<?xml version="1.0" encoding="UTF-8" standalone="no"?>
<!-- Created with Inkscape (http://www.inkscape.org/) -->

<svg
   xmlns:dc="http://purl.org/dc/elements/1.1/"
   xmlns:cc="http://creativecommons.org/ns#"
   xmlns:rdf="http://www.w3.org/1999/02/22-rdf-syntax-ns#"
   xmlns:svg="http://www.w3.org/2000/svg"
   xmlns="http://www.w3.org/2000/svg"
   xmlns:sodipodi="http://sodipodi.sourceforge.net/DTD/sodipodi-0.dtd"
   xmlns:inkscape="http://www.inkscape.org/namespaces/inkscape"
   width="183.03761"
   height="183.03806"
   viewBox="0 0 183.03761 183.03805"
   id="svg3611"
   version="1.1"
   inkscape:version="0.91 r"
   sodipodi:docname="border_top_left5.svg">
  <defs
     id="defs3613" />
  <sodipodi:namedview
     id="base"
     pagecolor="#ffffff"
     bordercolor="#666666"
     borderopacity="1.0"
     inkscape:pageopacity="0.0"
     inkscape:pageshadow="2"
     inkscape:zoom="1.3111328"
     inkscape:cx="246.79575"
     inkscape:cy="134.76651"
     inkscape:document-units="px"
     inkscape:current-layer="layer1"
     showgrid="false"
     units="px"
     fit-margin-top="0"
     fit-margin-left="0"
     fit-margin-right="0"
     fit-margin-bottom="0"
     inkscape:window-width="1855"
     inkscape:window-height="1056"
     inkscape:window-x="65"
     inkscape:window-y="24"
     inkscape:window-maximized="1" />
  <metadata
     id="metadata3616">
    <rdf:RDF>
      <cc:Work
         rdf:about="">
        <dc:format>image/svg+xml</dc:format>
        <dc:type
           rdf:resource="http://purl.org/dc/dcmitype/StillImage" />
        <dc:title></dc:title>
      </cc:Work>
    </rdf:RDF>
  </metadata>
  <g
     inkscape:label="Capa 1"
     inkscape:groupmode="layer"
     id="layer1"
     transform="translate(-19.138258,-240.02691)">
    <g
       id="g3740"
       transform="matrix(-1,0,0,1,221.31413,0)">
      <path
         d="m 177.58783,408.4599 c -0.0175,-0.13875 0,-0.25 0.0312,-0.35 0.0537,-0.0913 0.11,-0.18 0.16375,-0.27125 0.2975,-0.29375 0.86875,-0.3775 1.34,-0.53375 0.25625,-0.085 0.51875,-0.13375 0.77625,-0.20625 0.085,0.2375 0.26,0.4425 0.52625,0.58625 -0.235,0.09 -0.47,0.18 -0.705,0.275 -0.46375,0.0725 -0.92875,0.145 -1.39375,0.21875 -0.31625,0.05 -0.53875,0.19875 -0.70375,0.38875 -0.009,-0.0387 -0.0288,-0.0625 -0.035,-0.1075 z m 10.18,-14.39375 c 2.32875,-1.745 4.83625,-3.11125 7.2025,-4.84875 -0.7975,0.79125 -1.64125,1.54125 -2.59,2.19125 -1.33625,0.915 -2.97375,1.86125 -4.6125,2.6575 z m 1.1575,-69.28875 c -0.16625,1.815 -0.33125,3.62875 -0.49375,5.44375 -0.58125,-1.72875 -0.2625,-3.61375 0.49375,-5.44375 z m -4.3225,-15.55125 c 0.009,-0.20125 0.0175,-0.40375 0.0263,-0.60625 0.0137,-0.0575 0.0425,-0.1025 0.0487,-0.165 0.1775,-1.58375 0.225,-3.19 0.25125,-4.79625 0.2325,1.0675 0.32375,2.17375 0.23875,3.32 -0.0563,0.7625 -0.2925,1.51 -0.565,2.2475 z m -13.29375,-14.245 c -0.475,-0.27375 -0.8375,-0.82875 -1.12375,-1.275 -0.655,-1.0225 -1.07,-2.13 -1.285,-3.27125 0.79875,1.35125 1.59875,2.70125 2.3975,4.05125 0.12,0.2025 0.26875,0.34 0.42875,0.4475 0.2125,0.30625 0.45625,0.55125 -0.4175,0.0475 z m -1.7825,-6.61875 c -0.34125,0.135 -0.63,0.3925 -0.78625,0.71625 -0.02,-0.4575 -0.0112,-0.9175 0.0325,-1.3775 0.2625,0.21 0.5075,0.43625 0.75375,0.66125 z m 3.3475,24.6725 c -0.03,0.03 -0.06,0.05 -0.0888,0.0838 -0.007,0.007 -0.01,0.0175 -0.0163,0.0263 -0.0462,0.035 -0.0925,0.0675 -0.13375,0.1175 -0.1025,0.12375 -0.17375,0.25375 -0.23375,0.385 -0.94625,-0.56625 -1.75125,-1.3125 -2.455,-2.1575 0.14625,0.0388 0.2925,0.0775 0.4375,0.11625 0.8075,0.5575 1.6375,1.0225 2.49,1.42875 z m 6.5675,34.7775 c -0.35875,0.4175 -0.4925,0.94125 -0.45,1.44875 -0.27125,-0.51625 -0.4875,-1.06125 -0.655,-1.6275 0.3725,0.0412 0.74125,0.1 1.105,0.17875 z m -12.8475,74.9 c 3.21125,-3.38 6.07875,-7.0225 8.64625,-10.8525 0.06,0.13125 0.15,0.24875 0.29125,0.3275 5.64125,3.14875 12.935,-0.8175 15.5725,-6.12 0.36625,-0.7375 0.10875,-1.865 -0.83125,-2.0425 -3.16875,-0.595 -6.34625,-0.6475 -9.52,-0.035 -0.29125,0.0563 -0.59625,0.1175 -0.91,0.185 1.30875,-2.4725 2.51125,-5.00125 3.5875,-7.585 0.47875,0.30625 1.1175,0.34 1.64,-0.18375 0.16375,-0.16875 0.33625,-0.315 0.50375,-0.475 1.70125,-0.0125 2.71,0.1425 4.5625,-0.60875 1.50125,-0.60875 2.90875,-1.36375 4.23375,-2.29875 2.80375,-1.97875 5.0225,-4.525 6.68,-7.52 0.5175,-0.935 -0.37,-2.4625 -1.52625,-1.98625 -3.37375,1.3875 -6.5325,3.12375 -9.48125,5.17125 -1.65375,0.98875 -3.2125,2.25125 -4.61625,3.53625 0.0363,-0.22125 0.009,-0.455 -0.0775,-0.69625 1.54375,-4.39875 2.78875,-8.91125 3.695,-13.49875 0.4175,-0.31 0.8275,-0.62625 1.2275,-0.95375 0.006,-10e-4 0.0125,0.001 0.0188,0 5.89875,-0.96875 9.8475,-6.87125 10.34625,-12.495 0.0913,-1.02625 -1.205,-1.66125 -2.02,-1.16 -3.31375,2.035 -6.16125,4.63625 -8.45375,7.69125 0.2625,-2.0675 0.4825,-4.14 0.62,-6.22 0.13875,-2.095 0.20875,-4.22375 0.225,-6.3725 0.405,0.485 1.05375,0.73125 1.65625,0.27875 0.52,-0.39125 1.01,-0.80625 1.47875,-1.235 5.455,-2.575 8.4875,-8.78 7.9775,-14.67 -0.10375,-1.20625 -1.38875,-1.75 -2.32,-0.96125 -4.03,3.4125 -6.8975,7.81 -8.4575,12.78625 -0.11,-0.13125 -0.24625,-0.23875 -0.405,-0.32625 -0.1675,-6.0025 -0.7675,-12.125 -1.85,-18.21 0.3975,-0.1775 0.6675,-0.495 0.79125,-0.86625 0.51625,-0.1525 0.92875,-0.6075 0.98875,-1.28875 0.0287,-0.31875 0.055,-0.63875 0.0837,-0.9575 4.19375,-3.98375 5.05125,-10.85625 1.83,-15.82625 -0.42875,-0.65875 -1.58,-1.01375 -2.15375,-0.2775 -1.5775,2.02125 -3.26125,4.54625 -4.2875,7.17375 -0.90625,-3.19375 -1.94,-6.34125 -3.10625,-9.41375 0.46875,-0.0975 0.9075,-0.42 1.0925,-0.89 2.3025,-0.69375 3.0825,-4.32 3.33125,-6.42375 0.3925,-3.325 -0.41875,-6.58 -2.23625,-9.37125 -0.58875,-0.905 -1.70625,-0.81125 -2.31125,0 -2.09375,2.80375 -3.06625,6.11 -2.95625,9.4225 -1.4575,-3.1075 -3.04125,-6.12 -4.78875,-8.98 0.4675,-0.0275 0.94125,-0.345 0.9175,-0.885 -0.2375,-5.5275 -3.11,-10.34 -7.7625,-13.305 -0.735,-0.46875 -1.705,10e-4 -1.94,0.79 -1.19375,4.01875 -0.45625,10.915 4.1075,12.68625 0.385,0.15 0.80875,0.24625 1.235,0.28375 1.6225,3.6825 3.2775,7.29625 4.87125,10.92 -3.16,-1.7125 -6.88375,-2.26375 -10.5725,-1.4775 -0.8375,0.1775 -1.15125,1.2025 -0.77,1.89125 1.84625,3.3425 4.36,6.875 8.3225,7.76375 2.11375,0.47375 4.30875,0.0838 6.01125,-1.07125 1.59,3.97375 3.02,8.02375 4.18125,12.23375 -2.625,-2.455 -6.11,-3.9475 -9.78875,-4.10125 -0.66,-0.0275 -1.4175,0.6375 -1.3375,1.3375 0.7475,6.5525 6.7025,11.50125 13.08625,11.225 0.865,4.48125 1.47125,9.01 1.80125,13.55875 -2.6675,-2.95625 -6.4475,-4.69875 -10.6475,-5.31625 -0.74875,-0.11 -1.7275,0.32 -1.6425,1.25125 0.59375,6.4475 6.325,11.2675 12.5675,11.15125 0.0112,1.815 -0.0125,3.63 -0.0962,5.44625 -0.11375,2.4525 -0.33125,4.89 -0.62625,7.3125 -0.5425,-0.7975 -1.12875,-1.54 -1.69,-2.175 -2.1375,-2.425 -4.80625,-3.9625 -7.7725,-5.1575 -1.085,-0.4375 -1.87,0.9725 -1.4125,1.83625 0.49375,0.9325 1.06125,1.81375 1.665,2.66875 -0.27125,0.585 -0.175,1.3 0.57875,1.67375 0.4425,0.215 0.8625,0.45875 1.2925,0.6875 1.9,2.095 4.14875,3.86375 6.6475,5.22625 -0.61375,3.55625 -1.4325,7.0625 -2.43125,10.5125 -1.0925,-3.0025 -3.3375,-5.5875 -6.2925,-7.25875 -1.095,-0.62 -2.1275,0.4 -1.96,1.5075 0.705,4.665 2.89875,8.8825 6.105,12.28625 -1.56375,4.25 -3.455,8.3725 -5.605,12.36625 -0.0825,-1.17875 -0.2625,-2.3325 -0.53625,-3.46 -0.0637,-1.00125 -0.3125,-1.92625 -0.8625,-2.9925 -0.0437,-0.0837 -0.12375,-0.1425 -0.18625,-0.21375 -1.03875,-2.5025 -2.53375,-4.8475 -4.3925,-7.00875 -0.6075,-0.705 -1.99375,-0.36125 -2.1625,0.57125 -1.145,6.355 0.75875,12.49125 4.78,17.46625 0.17375,0.215 0.39875,0.33125 0.63875,0.38875 -2.5725,4.2 -5.45,8.23125 -8.67625,12.02625 -0.92125,1.08375 0.5775,2.64 1.58375,1.5825"
         style="fill:#2f3031;fill-opacity:1;fill-rule:nonzero;stroke:none"
         id="path122"
         inkscape:connector-curvature="0" />
      <path
         d="m 33.634833,264.57865 c 0.1905,-0.16375 0.339875,-0.38625 0.389625,-0.7025 0.07325,-0.465 0.1455,-0.93 0.21875,-1.39375 0.09475,-0.235 0.184625,-0.47 0.275375,-0.705 0.143125,0.2675 0.34825,0.44125 0.586,0.52625 -0.07275,0.2575 -0.121625,0.52 -0.2065,0.77625 -0.15675,0.47125 -0.24025,1.0425 -0.53425,1.34 -0.09075,0.0538 -0.179625,0.11 -0.2705,0.16375 -0.100625,0.0312 -0.211875,0.0488 -0.350125,0.0312 -0.04588,-0.006 -0.06925,-0.025 -0.108375,-0.0362 z M 50.794458,249.8224 c 0.6505,-0.95 1.3995,-1.79375 2.1915,-2.59 -1.73875,2.36625 -3.1045,4.87375 -4.849125,7.2025 0.796375,-1.6375 1.742625,-3.27625 2.657625,-4.6125 z m 61.187122,3.94875 c 1.815,-0.1625 3.62875,-0.3275 5.44375,-0.49375 -1.83,0.75625 -3.715,1.075 -5.44375,0.49375 z m 23.2425,3.26375 c 1.14625,-0.085 2.2525,0.006 3.32,0.23875 -1.60625,0.0263 -3.2125,0.0738 -4.79625,0.25125 -0.0625,0.006 -0.1075,0.035 -0.165,0.0487 -0.2025,0.009 -0.40375,0.0175 -0.60625,0.0263 0.73875,-0.2725 1.485,-0.50875 2.2475,-0.565 z m 12.045,13.44125 c 0.1075,0.16 0.245,0.30875 0.4475,0.42875 1.35,0.79875 2.70125,1.59875 4.05125,2.3975 -1.14125,-0.215 -2.24875,-0.63 -3.27125,-1.285 -0.44625,-0.285 -1.00125,-0.64875 -1.275,-1.12375 -0.50375,-0.87375 -0.25875,-0.63 0.0475,-0.4175 z m 7.23375,2.95375 c -0.46125,0.0438 -0.92125,0.0525 -1.37875,0.0325 0.325,-0.15625 0.58125,-0.445 0.71625,-0.78625 0.225,0.24625 0.45125,0.49125 0.6625,0.75375 z m -23.90625,-1.6125 c 0.0387,0.14625 0.0775,0.2925 0.11625,0.43875 -0.84625,-0.70375 -1.59125,-1.50875 -2.1575,-2.455 0.13125,-0.06 0.26125,-0.13125 0.385,-0.23375 0.05,-0.0413 0.0825,-0.0875 0.1175,-0.13375 0.009,-0.006 0.0187,-0.009 0.0262,-0.0163 0.0338,-0.0288 0.055,-0.0587 0.0838,-0.0888 0.40625,0.8525 0.87125,1.6825 1.42875,2.48875 z m -36.027496,-7.95125 c -0.56625,-0.1675 -1.1125,-0.38375 -1.6275,-0.655 0.5075,0.0425 1.03125,-0.0913 1.44875,-0.45 0.0787,0.36375 0.1375,0.7325 0.17875,1.105 z M 21.073333,277.1924 c 3.794375,-3.22625 7.825625,-6.10375 12.025375,-8.67625 0.05813,0.24 0.173875,0.465 0.388625,0.63875 4.975125,4.02125 11.111875,5.925 17.466875,4.78 0.932625,-0.16875 1.276375,-1.555 0.57075,-2.1625 -2.160625,-1.85875 -4.506375,-3.35375 -7.00775,-4.3925 -0.07188,-0.0625 -0.129875,-0.1425 -0.214375,-0.18625 -1.065875,-0.55 -1.99175,-0.79875 -2.99275,-0.8625 -1.126875,-0.27375 -2.28075,-0.45375 -3.458875,-0.53625 3.993625,-2.15 8.115625,-4.04125 12.365125,-5.605 3.403875,3.2075 7.6215,5.4 12.2865,6.105 1.1075,0.1675 2.1275,-0.86375 1.5075,-1.96 -1.67125,-2.955 -4.25625,-5.2 -7.25875,-6.2925 3.45,-0.9975 6.95625,-1.8175 10.5125,-2.43125 1.3625,2.49875 3.13125,4.7475 5.22625,6.6475 0.22875,0.43 0.47375,0.84875 0.6875,1.2925 0.37375,0.75375 1.08875,0.85 1.675,0.57875 0.85375,0.60375 1.735,1.17125 2.6675,1.665 0.863751,0.4575 2.273751,-0.3275 1.836251,-1.4125 -1.195,-2.9675 -2.732501,-5.635 -5.157501,-7.7725 -0.635,-0.56125 -1.3775,-1.1475 -2.175,-1.69 2.4225,-0.295 4.86,-0.5125 7.312501,-0.62625 1.815,-0.0838 3.63125,-0.1075 5.44625,-0.0963 -0.11625,6.2425 4.70375,11.97375 11.15125,12.5675 0.93125,0.085 1.36125,-0.89375 1.25125,-1.6425 -0.6175,-4.2 -2.36,-7.98 -5.31625,-10.6475 4.54875,0.33125 9.077496,0.93625 13.558746,1.80125 -0.27625,6.38375 4.6725,12.33875 11.225,13.08625 0.69875,0.08 1.365,-0.6775 1.3375,-1.3375 -0.15375,-3.67875 -1.64625,-7.16375 -4.10125,-9.78875 4.21,1.16125 8.26,2.59125 12.23375,4.18125 -1.15625,1.7025 -1.545,3.8975 -1.07125,6.01125 0.88875,3.9625 4.42125,6.47625 7.76375,8.3225 0.68875,0.38125 1.71375,0.0675 1.89125,-0.77 0.78625,-3.68875 0.235,-7.4125 -1.4775,-10.5725 3.62375,1.59375 7.2375,3.24875 10.92,4.87125 0.0375,0.42625 0.13375,0.85 0.28375,1.235 1.77125,4.56375 8.6675,5.30125 12.68625,4.1075 0.78875,-0.235 1.25875,-1.205 0.79,-1.94125 -2.965,-4.65125 -7.77625,-7.52375 -13.30375,-7.76125 -0.54125,-0.0238 -0.85875,0.45 -0.88625,0.9175 -2.86,-1.7475 -5.8725,-3.33125 -8.98,-4.78875 3.3125,0.11 6.61875,-0.8625 9.4225,-2.95625 0.81125,-0.605 0.905,-1.7225 0,-2.31125 -2.7925,-1.8175 -6.04625,-2.62875 -9.37125,-2.23625 -2.10375,0.24875 -5.73,1.02875 -6.42375,3.33125 -0.47,0.185 -0.7925,0.62375 -0.89,1.0925 -3.07375,-1.16625 -6.22,-2.2 -9.41375,-3.10625 2.6275,-1.02625 5.1525,-2.71 7.17375,-4.2875 0.735,-0.57375 0.38125,-1.725 -0.2775,-2.15375 -4.97,-3.22125 -11.8425,-2.36375 -15.82625,1.83 -0.31875,0.0288 -0.63875,0.055 -0.9575,0.0838 -0.68125,0.06 -1.13625,0.47125 -1.28875,0.98875 -0.37125,0.125 -0.68875,0.39375 -0.86625,0.79125 -6.084996,-1.0825 -12.207496,-1.6825 -18.209996,-1.85 -0.0875,-0.15875 -0.195,-0.295 -0.32625,-0.405 4.97625,-1.56 9.37375,-4.42625 12.786246,-8.4575 0.78875,-0.93125 0.245,-2.21625 -0.961246,-2.32 -5.89,-0.51 -12.095,2.5225 -14.67,7.9775 -0.42875,0.46875 -0.84375,0.95875 -1.235,1.47875 -0.4525,0.6025 -0.20625,1.25125 0.27875,1.65625 -2.14875,0.0175 -4.2775,0.0863 -6.372501,0.225 -2.08,0.1375 -4.1525,0.3575 -6.22,0.62 3.055,-2.2925 5.65625,-5.14 7.691251,-8.45375 0.50125,-0.81625 -0.13375,-2.11125 -1.158751,-2.02 -5.625,0.49875 -11.5275,4.4475 -12.49625,10.34625 -0.0013,0.006 0.0012,0.0125 0,0.0188 -0.3275,0.39875 -0.64375,0.81 -0.95375,1.2275 -4.5875,0.90625 -9.0995,2.15125 -13.498875,3.69375 -0.24075,-0.085 -0.474625,-0.1125 -0.695875,-0.0763 1.28475,-1.40375 2.547375,-2.9625 3.535625,-4.61625 2.047875,-2.94875 3.784125,-6.10875 5.171625,-9.48125 0.47625,-1.15625 -1.05125,-2.045 -1.98625,-1.52625 -2.994875,1.65625 -5.54175,3.87625 -7.52025,6.68 -0.935125,1.325 -1.69,2.7325 -2.298375,4.23375 -0.751,1.8525 -0.59625,2.86125 -0.608375,4.56375 -0.160125,0.16625 -0.307125,0.33875 -0.475125,0.5025 -0.524375,0.52375 -0.48975,1.16125 -0.183625,1.64 -2.5845,1.07625 -5.11275,2.27875 -7.584875,3.5875 0.06738,-0.3125 0.128375,-0.61875 0.1845,-0.91 0.61275,-3.17375 0.5605,-6.35125 -0.03562,-9.52 -0.17625,-0.94 -1.30425,-1.1975 -2.0415,-0.83125 -5.30325,2.6375 -9.268625,9.93125 -6.120625,15.57375 0.07863,0.14 0.19675,0.23 0.328125,0.29 -3.8305,2.5675 -7.472625,5.435 -10.8525,8.6475 -1.057625,1.005 0.499,2.50375 1.5825,1.5825"
         style="fill:#2f3031;fill-opacity:1;fill-rule:nonzero;stroke:none"
         id="path126"
         inkscape:connector-curvature="0" />
    </g>
  </g>
</svg>
