<?xml version="1.0" encoding="UTF-8" standalone="no"?>
<!-- Created with Inkscape (http://www.inkscape.org/) -->

<svg
   xmlns:dc="http://purl.org/dc/elements/1.1/"
   xmlns:cc="http://creativecommons.org/ns#"
   xmlns:rdf="http://www.w3.org/1999/02/22-rdf-syntax-ns#"
   xmlns:svg="http://www.w3.org/2000/svg"
   xmlns="http://www.w3.org/2000/svg"
   xmlns:sodipodi="http://sodipodi.sourceforge.net/DTD/sodipodi-0.dtd"
   xmlns:inkscape="http://www.inkscape.org/namespaces/inkscape"
   width="573.00842"
   height="573.41711"
   viewBox="0 0 573.00843 573.41712"
   id="svg3457"
   version="1.1"
   inkscape:version="0.91 r"
   sodipodi:docname="border_bottom_left.svg">
  <defs
     id="defs3459" />
  <sodipodi:namedview
     id="base"
     pagecolor="#ffffff"
     bordercolor="#666666"
     borderopacity="1.0"
     inkscape:pageopacity="0.0"
     inkscape:pageshadow="2"
     inkscape:zoom="0.35"
     inkscape:cx="898.64679"
     inkscape:cy="-224.72002"
     inkscape:document-units="px"
     inkscape:current-layer="layer1"
     showgrid="false"
     units="px"
     fit-margin-top="0"
     fit-margin-left="0"
     fit-margin-right="0"
     fit-margin-bottom="0"
     inkscape:window-width="1855"
     inkscape:window-height="1056"
     inkscape:window-x="65"
     inkscape:window-y="24"
     inkscape:window-maximized="1" />
  <metadata
     id="metadata3462">
    <rdf:RDF>
      <cc:Work
         rdf:about="">
        <dc:format>image/svg+xml</dc:format>
        <dc:type
           rdf:resource="http://purl.org/dc/dcmitype/StillImage" />
        <dc:title></dc:title>
      </cc:Work>
    </rdf:RDF>
  </metadata>
  <g
     inkscape:label="Capa 1"
     inkscape:groupmode="layer"
     id="layer1"
     transform="translate(523.64679,265.77494)">
    <path
       inkscape:connector-curvature="0"
       id="path20"
       style="fill:#978a5a;fill-opacity:1;fill-rule:nonzero;stroke:none"
       d="m -252.07699,283.28256 -0.0125,0.006 c 0.0512,-0.0375 0.0838,-0.0613 0.0125,-0.006 z m -271.37,-313.002496 c 0.42875,2.87 1.585,5.89 3.415,8.66375 1.80875,2.78875 4.21375,5.35375 6.9575,7.63 2.74125,2.2825 5.78875,4.3400002 9.02375,6.1412502 3.22375,1.79875 6.63625,3.45 10.075,4.85 3.46875,1.44875004 6.97375,2.54625004 10.36,3.69875 3.40125,1.10125 6.665,2.2975 9.6475,3.71625 0.7225,0.37125 1.43875,0.74 2.1475,1.10375 0.71375,0.37 1.41875,0.88125 2.11875,1.3075 l 1.04125,0.6625 0.25875,0.165 c -0.035,-0.0225 0.12375,0.0975 0.17625,0.1375 l 0.465,0.35875 c 0.61375,0.48125 1.24625,0.9275 1.80625,1.4462498 2.32,1.98125 4.325,4.1075 6.00125,6.22 1.035,1.30625 1.95,2.55375 2.78625,3.77125 -1.8975,-2.26 -4.11375,-4.48125 -6.6475,-6.58625 -3.22375,-2.64625 -6.93125,-5.1349998 -11.25,-6.9724998 -4.15875,-1.77875 -8.73375,-3.2 -13.52625,-3.87625 -4.78875,-0.6625 -9.825,-0.78375 -14.79375,0.2275 -4.945,0.97 -9.82,3.29375 -13.405,6.9025 -0.9025,0.8974998 -1.72375,1.8249998 -2.45,2.8812498 -0.75125,1.08625 -1.3375,2.16375 -1.84875,3.305 -0.9975,2.27125 -1.57875,4.65875 -1.77,7.035 -0.16,2.3775 0.0325,4.76 0.735,6.97875 0.6975,2.2125 1.895,4.26375 3.5375,5.78875 1.62,1.5475 3.60625,2.55125 5.57125,3.07625 0.25625,0.0662 0.4675,0.135 0.76,0.19625 0.2325,0.0463 0.45,0.0975 0.73125,0.1325 0.54,0.0875 1.0175,0.11375 1.52,0.13 0.99,0.0238 1.9525,-0.0575 2.88125,-0.22625 1.86,-0.35625 3.5875,-0.9825 5.03,-2.23125 1.3125,-1.17 2.105,-2.815 2.43,-4.31625 0.70125,-3.0675 -0.45125,-6.07 -2.41875,-7.41625 -0.95875,-0.6825 -2.0225,-0.96625 -2.95125,-0.97125 -0.9375,0.005 -1.73375,0.3025 -2.2775,0.66875 0,0.002 -0.0125,0.005 -0.0125,0.009 -1.39375,0.785 -2.3475,2.26125 -2.3475,3.975 0,2.52875 2.05125,4.58 4.58,4.58 1.895,0 3.52125,-1.1525 4.2175,-2.79375 0,0.53 -0.055,1.075 -0.1925,1.63 -0.32,1.28625 -0.945,2.53875 -2.09625,3.49125 -1.0425,0.84875 -2.625,1.43375 -4.245,1.6675 -0.82125,0.12125 -1.6725,0.16375 -2.5275,0.115 -0.41875,-0.0263 -0.8725,-0.07 -1.2575,-0.14625 -0.185,-0.0263 -0.42625,-0.0875 -0.655,-0.1425 -0.17125,-0.0437 -0.41125,-0.1325 -0.61375,-0.19625 -1.695,-0.54625 -3.3,-1.48125 -4.5575,-2.81375 -2.57,-2.64375 -3.5375,-6.82875 -2.9325,-10.87375 0.29875,-2.0275 0.93625,-4.04375 1.89875,-5.89375 0.48,-0.91375 1.065,-1.82 1.67875,-2.59375 0.63375,-0.80625 1.39,-1.59125 2.1825,-2.28875 3.15625,-2.8762498 7.3125,-4.4987498 11.63375,-5.2474998 4.3475,-0.72375 8.89125,-0.59 13.31,0.025 4.42875,0.63125 8.7625,1.545 12.955,2.7362498 4.03625,1.155 7.85,2.9875 11.0725,5.28125 3.2475,2.2775 5.9225,4.9775 8.16625,7.63625 2.04625,2.4325 3.6575,4.89125 4.94,7.20875 1.08,3.08375 1.92,6.28375 2.87125,9.41 l 0.4175,1.4275 c 0.1175,0.4 0.21,0.93875 0.31625,1.40125 l 0.61625,2.87625 c 0.41,1.91375 0.82,3.8225 1.2275,5.72625 0.3725,1.90875 0.55125,3.84625 0.835,5.7575 0.24625,1.9175 0.54625,3.8225 0.745,5.73125 0.11125,1.91625 0.2225,3.82625 0.3325,5.72875 l 0.0512,0.88375 c -0.53375,-3.33875 -1.35125,-6.72875 -2.665,-10.03375 -0.80125,-2.0625 -1.8575,-4.06875 -3.17875,-5.92625 l -0.5125,-0.72125 -0.52,-0.6375 c -0.4025,-0.45625 -0.8125,-0.88375 -1.2275,-1.28 -0.84375,-0.79625 -1.74875,-1.51375 -2.695,-2.1675 -1.89625,-1.3075 -3.9575,-2.3425 -6.1125,-3.165 -2.16125,-0.79375 -4.4325,-1.39875 -6.81375,-1.515 -2.36,-0.11875 -4.88125,0.225 -7.1075,1.41125 -1.1175,0.57 -2.12125,1.35375 -2.9925,2.23375 -0.85375,0.88875 -1.56,1.94125 -2.07375,2.9375 -1.11375,2.17125 -1.64375,4.37625 -1.72,6.6425 -0.0787,2.24125 0.36875,4.5425 1.52375,6.5125 2.32375,3.8725 6.48875,5.78125 10.27875,5.6325 1.91125,-0.0613 3.69375,-0.69625 5.12,-1.7175 0.855,-0.64375 1.33,-1.31125 1.765,-2.0625 0.4125,-0.73875 0.6725,-1.51 0.815,-2.265 0.57,-3.015 -0.40625,-5.86125 -2.39375,-7.2575 -0.75125,-0.49 -1.48875,-0.79875 -2.185,-0.9825 -0.4675,-0.16125 -0.96125,-0.2675 -1.48375,-0.2675 -0.4625,0 -0.9,0.0888 -1.32,0.21625 -0.1125,0.0312 -0.2225,0.0625 -0.32125,0.0987 -0.10125,0.04 -0.1975,0.0825 -0.295,0.1275 -0.0738,0.0363 -0.1375,0.0725 -0.2025,0.11 -1.445,0.77 -2.44125,2.275 -2.44125,4.02625 0,2.53 2.05,4.58125 4.58,4.58125 1.82125,0 3.3825,-1.0725 4.12,-2.61375 -0.0163,0.48125 -0.0788,0.97375 -0.2175,1.46375 -0.14,0.55 -0.37625,1.0875 -0.68875,1.57 -0.28,0.47 -0.73875,0.97125 -1.10375,1.21 -1.03,0.6775 -2.40125,1.05 -3.78,0.9925 -2.77,-0.0475 -5.82,-1.82375 -7.31125,-4.5225 -1.4475,-2.6325 -1.10125,-6.655 0.5775,-9.64125 0.89375,-1.585 2.05,-2.79375 3.57125,-3.65375 1.49875,-0.86625 3.33125,-1.3325 5.275,-1.4425 3.91125,-0.22375 8.17,1.00375 11.6975,3.22875 0.88625,0.5525 1.735,1.1625 2.52125,1.8375 0.39625,0.34375 0.75875,0.69 1.10125,1.03875 l 0.5475,0.61 0.46375,0.59875 c 1.2925,1.64375 2.37625,3.47375 3.23,5.4025 1.74375,3.85 2.72125,7.98125 3.36625,12.00375 0.46125,2.9925 0.72625,5.93625 0.8475,8.79375 -0.5175,12.76125 -2.7525,25.037496 -6.0075,36.409996 -3.7975,13.35125 -8.94375,25.50125 -14.34625,36.3625 -3.79125,7.625 -7.72,14.62 -11.56625,20.99 1.17875,-2.57875 2.46,-5.41 3.7475,-8.5 0.7925,-1.82375 1.5975,-3.76375 2.395,-5.74125 0.4025,-0.99375 0.8125,-2.005 1.2275,-3.0325 0.38875,-1.04625 0.78125,-2.10875 1.18125,-3.185 0.8325,-2.1475 1.5625,-4.39 2.30125,-6.68625 0.79625,-2.27875 1.4025,-4.675 2.08,-7.09625 0.16625,-0.60625 0.33375,-1.215 0.5025,-1.82625 0.135,-0.62 0.27125,-1.2425 0.4075,-1.8675 0.27375,-1.25125 0.5475,-2.5125 0.82375,-3.78 0.31125,-1.2625 0.42375,-2.57375 0.6475,-3.87125 0.18625,-1.305 0.41375,-2.61125 0.57125,-3.935 0.0975,-1.3325 0.195,-2.67125 0.2925,-4.01375 l 0.145,-2.02125 c 0.0462,-0.675 -0.0125,-1.35625 -0.0125,-2.03625 -0.0275,-1.36375 -0.0525,-2.73125 -0.08,-4.09875 l -0.0125,-0.51375 0,-0.12875 -10e-4,-0.0637 c 0,0.007 -0.0375,-0.2975 -0.0238,-0.1975 l -0.0337,-0.24625 -0.13375,-0.985 -0.27,-1.97 c -0.3725,-1.40625 -0.68875,-2.92125 -1.19,-4.2625 -0.5575,-1.31 -0.975,-2.69375 -1.7125,-3.9175 l -1.015,-1.881246 c -0.3475,-0.62125 -0.80625,-1.1725 -1.205,-1.76 -0.425,-0.57125 -0.80875,-1.17125 -1.2675,-1.7125 l -1.43375,-1.57875 c -0.90375,-1.0975 -2.09125,-1.92 -3.15625,-2.84375 -0.52125,-0.4775 -1.16,-0.8125 -1.755,-1.19375 l -1.805,-1.10375 c -0.7725,-0.38125 -1.1575,-0.565 -1.87125,-0.85875 -0.69375,-0.25875 -1.40125,-0.555 -2.06875,-0.72125 -1.34,-0.4225 -2.725,-0.65625 -4.10375,-0.80125 -2.75625,-0.28625 -5.58875,0.0637 -8.15,1.09375 -1.28625,0.4975 -2.4575,1.24875 -3.53125,2.07 -0.49,0.46875 -1.01625,0.89625 -1.45,1.4 -0.40625,0.52375 -0.885,0.99375 -1.205,1.56 -0.7325,1.1125 -1.2425,2.16375 -1.6975,3.45125 -0.0775,0.27875 -0.1625,0.49875 -0.23375,0.82375 l -0.17875,1.03125 c -0.0688,0.66625 -0.10125,1.27 -0.0625,1.88875 0.125,2.453746 0.95,4.706246 2.2875,6.522496 1.28375,1.8425 3.30125,3.13125 5.36375,3.50125 0.5125,0.0987 1.0325,0.085 1.5325,0.12125 l 0.74,-0.08 0.36375,-0.0425 0.18125,-0.0225 0.0888,-0.0112 c 0.1875,-0.0375 0.075,-0.0175 0.12625,-0.0288 l 0.0388,-0.0125 0.61,-0.18625 c 0.195,-0.0513 0.40625,-0.12625 0.6475,-0.25375 0.45875,-0.22125 0.91375,-0.4425 1.25125,-0.73 1.45125,-1.0825 2.4075,-2.5725 2.725,-4.09875 0.12,-0.3725 0.10625,-0.7625 0.115,-1.135 0,-0.19875 0.0237,-0.345 -0.0125,-0.5775 l -0.08,-0.48 c -0.17625,-0.74 -0.465,-1.31625 -0.79,-1.848746 -0.6925,-1.0275 -1.55125,-1.755 -2.41125,-2.15875 -0.865,-0.405 -1.705,-0.4575 -2.33625,-0.3525 -0.0512,0.0125 -0.0913,0.0275 -0.14,0.0413 -2.33625,0.2075 -4.175,2.1475 -4.175,4.537496 0,2.53 2.05125,4.58125 4.58,4.58125 1.35375,0 2.5575,-0.59875 3.39625,-1.5325 -0.4575,0.64875 -1.05375,1.235 -1.78375,1.67 -0.2975,0.22 -0.605,0.315 -0.9,0.44625 l -0.2275,0.1 -0.30875,0.0688 -0.62375,0.1375 c -0.34875,0.0112 -0.70375,0.0225 -1.0625,0.0337 -0.37375,-0.07 -0.76,-0.08 -1.1275,-0.185 -1.46875,-0.4075 -2.845,-1.40875 -3.7225,-2.91375 -0.48375,-0.715 -0.77875,-1.57625 -1.05125,-2.4325 -0.1925,-0.885 -0.36125,-1.79875 -0.305,-2.718746 0,-0.45 0.0787,-0.93125 0.15,-1.34 0.0512,-0.1925 0.0975,-0.385 0.135,-0.58 0.0512,-0.20875 0.17875,-0.5025 0.26625,-0.75125 0.33625,-0.77375 0.86,-1.73625 1.445,-2.48375 2.3175,-3.21 6.68375,-4.51875 11.0175,-3.845 1.08375,0.17625 2.175,0.415 3.22375,0.81375 0.5525,0.1675 0.99875,0.405 1.49,0.6025 0.455,0.2025 1.2025,0.61375 1.565,0.8175 l 1.43625,0.97 c 0.475,0.33 0.98375,0.60875 1.4025,1.03 0.8675,0.7925 1.82875,1.4775 2.58875,2.4075 l 1.22125,1.30875 c 0.395,0.45 0.71875,0.9625 1.08375,1.44125 0.34625,0.493746 0.74125,0.954996 1.05125,1.474996 l 0.92625,1.5675 c 0.685,1.015 1.06375,2.18375 1.6,3.2825 0.2925,0.55875 0.39125,1.10875 0.59,1.66375 l 0.545,1.67 0.36,1.95625 0.18,0.9775 0.0412,0.2225 0,0.007 0.0125,0.12 0.0312,0.47875 0.25875,3.83 c 0.0312,0.64 0.115,1.275 0.10375,1.91625 l -0.0487,1.9225 c -0.03,1.2825 -0.0613,2.56125 -0.0913,3.835 -0.09,1.2725 -0.24875,2.54 -0.36875,3.80375 -0.155,1.26 -0.1975,2.5275 -0.4425,3.76625 -0.20875,1.24375 -0.41625,2.48 -0.6225,3.7075 -0.10375,0.61375 -0.20625,1.22625 -0.3075,1.83625 -0.135,0.60375 -0.27125,1.20625 -0.40375,1.80625 -0.54875,2.39625 -1.02625,4.77 -1.70125,7.0475 -0.6175,2.2925 -1.23,4.535 -1.94375,6.6775 -0.34,1.0775 -0.6775,2.14125 -1.00875,3.18875 -0.365,1.04375 -0.725,2.0725 -1.07875,3.08375 -0.71,2.0375 -1.40125,3.96 -2.105,5.82125 -1.36375,3.73875 -2.69875,7.1175 -3.855,10.13125 -0.7425,1.83375 -1.4625,3.48375 -2.12625,4.99375 -0.37375,0.59125 -0.74875,1.19125 -1.12,1.76875 -1.9825,3.20625 -4.00625,6.19875 -5.9075,9.0325 0.3625,-0.895 0.73125,-1.80625 1.115,-2.75 0.91625,-2.0975 1.60375,-4.4075 2.43,-6.7625 0.83,-2.36875 1.5625,-4.7975 2.32625,-7.31 0.77125,-2.50125 1.44,-5.09875 1.985,-7.7425 0.28,-1.31875 0.435,-2.67625 0.655,-4.01125 0.0775,-1.36 0.19375,-2.71625 0.19375,-4.07 -0.0762,-2.715 -0.35,-5.40875 -1.17875,-7.93625 -0.54,-1.3975 -1.2625,-2.44875 -2.1175,-3.45375 -0.84375,-0.9825 -1.8125,-1.83375 -2.89375,-2.46625 l -0.3925,-0.24875 c -0.24125,-0.13625 -0.28875,-0.135 -0.44375,-0.20875 -0.25625,-0.11375 -0.51625,-0.2175 -0.76375,-0.33875 -0.58625,-0.16875 -1.19,-0.4025 -1.7575,-0.46 -0.57,-0.0913 -1.12875,-0.16625 -1.68625,-0.1175 -0.5575,-0.0212 -1.09375,0.10375 -1.6175,0.215 -2.105,0.44875 -3.71375,2.0375 -4.395,3.57375 -0.73,1.56375 -0.86125,3.12875 -0.6,4.38125 0.23125,1.275 0.965,2.1475 1.50875,2.58875 0.125,0.10625 0.2375,0.19125 0.3425,0.26375 0.77,0.58625 1.71875,0.94875 2.76125,0.94875 2.53,0 4.58,-2.05125 4.58,-4.58125 0,-2.52875 -2.05,-4.57875 -4.58,-4.57875 -1.16125,0 -2.21125,0.44625 -3.02,1.16 0.6425,-1.3 1.93375,-2.36 3.65,-2.69375 0.45,-0.075 0.90625,-0.1725 1.38625,-0.1325 0.4775,-0.0288 0.95625,0.0575 1.44125,0.15125 0.49875,0.0687 0.89875,0.3125 1.3625,0.46125 0.23875,0.1375 0.4725,0.2925 0.71,0.44 0.0913,0.0613 0.3,0.18 0.295,0.195 l 0.29125,0.2575 c 1.53125,1.3675 2.55375,3.575 3.25875,5.50125 0.0913,0.26625 0.175,0.5875 0.26375,0.88 0.0525,0.1725 0.11,0.5475 0.165,0.81375 0.11375,0.58375 0.22875,1.17125 0.3425,1.7625 0.14875,0.58625 0.1825,1.1975 0.215,1.81125 0.0412,0.61375 0.0838,1.23125 0.125,1.85 0.02,1.245 -0.0688,2.51125 -0.1175,3.77875 -0.15375,1.27125 -0.23625,2.5525 -0.44625,3.83125 -0.4075,2.5575 -0.9525,5.11 -1.55375,7.63125 -0.60125,2.5075 -1.2025,5.0275 -1.875,7.38375 -0.6775,2.3675 -1.22375,4.69875 -2.00625,6.81875 -0.36125,1.0725 -0.71375,2.115 -1.055,3.12375 -0.33375,1.0125 -0.665,1.9875 -1.06,2.89 -0.16125,0.3925 -0.3175,0.77625 -0.47125,1.15375 -1.9775,3.1075 -3.71375,6.145 -4.93625,9.0225 -0.80125,1.625 -1.355,3.25875 -1.94625,4.75625 -0.56125,1.5125 -0.96,2.98 -1.39625,4.315 -0.735,2.72125 -1.2975,5.045 -1.495,7.02875 -0.3275,1.96125 -0.325,3.405 -0.3475,4.395 0,0.29125 -0.0125,0.5275 -0.015,0.73375 -1.185,5.89625 -1.42375,11.87 -0.64875,17.59625 0.18125,1.38125 0.43375,2.7425 0.71875,4.095 0.0337,0.325 0.0537,0.51125 0.0537,0.51125 l 0.0613,-0.005 c 0.62375,2.835 1.435,5.60125 2.4175,8.2375 1.5175,4.07125 3.4825,7.90125 5.91375,11.35375 2.4525,3.42375 5.47,6.45375 9.08125,8.52 1.7975,1.04125 3.71625,1.82625 5.70625,2.34875 1.97625,0.50875 3.96875,0.74375 5.94125,0.855 1.97875,0.0687 3.93625,-0.07 5.8625,-0.335 1.92,-0.305 3.79,-0.79625 5.5925,-1.44 1.775,-0.71 3.475,-1.56 5.0475,-2.5825 1.5525,-1.04625 3.00375,-2.2225 4.23375,-3.57625 0.64125,-0.62625 1.20625,-1.44125 1.79,-2.14875 l 0.69125,-1.02 0.3425,-0.50625 c 0.0188,-0.0238 0.145,-0.2225 0.1325,-0.21 l 0.085,-0.14625 0.17,-0.29375 c 0.8875,-1.57375 1.5675,-3.25125 1.9475,-4.99375 0.805,-3.455 0.3075,-7.2525 -1.56875,-10.13375 -0.93125,-1.4275 -2.1225,-2.6175 -3.42125,-3.51375 -1.3,-0.89875 -2.645,-1.59375 -4.1925,-2.00375 -3.03375,-0.77125 -6.03,-0.2075 -8.43125,1.1 -0.3,0.18125 -0.5825,0.3375 -0.88,0.55125 -0.30125,0.2125 -0.59875,0.43 -0.79375,0.6125 -0.525,0.42375 -1.005,0.96125 -1.3825,1.49375 -0.77,1.0825 -1.2475,2.25375 -1.525,3.41625 -0.5425,2.3175 -0.3275,4.685 0.72125,6.5675 0.3175,0.56875 0.70875,1.06375 1.14375,1.49375 1.13625,1.21625 2.74,1.9875 4.535,1.9875 3.435,0 6.22,-2.785 6.22,-6.22125 0,-3.435 -2.785,-6.22 -6.22,-6.22 -1.1925,0 -2.2975,0.3525 -3.24375,0.935 0.10875,-0.1575 0.19375,-0.33125 0.31625,-0.4775 0.31125,-0.37 0.62875,-0.6825 1.0375,-0.96625 0.25,-0.19875 0.44625,-0.305 0.63875,-0.42125 0.1925,-0.12 0.445,-0.235 0.6675,-0.35125 1.8725,-0.85 4.2325,-1.1025 6.34375,-0.445 1.01,0.3175 2.1,0.9375 3.04125,1.6725 0.95375,0.7325 1.75375,1.6425 2.3575,2.6775 1.2125,2.06375 1.50375,4.715 0.79875,7.33 -0.335,1.3075 -0.91375,2.5975 -1.66375,3.81875 l -0.2475,0.39 -0.35,0.5 -0.7075,1.00875 c -0.48625,0.5425 -0.87,1.10875 -1.43,1.6525 -4.0725,4.4825 -10.45,7.7 -17.6275,7.82875 -1.78125,0.004 -3.6025,-0.0875 -5.38125,-0.45125 -1.76125,-0.3625 -3.525,-0.96875 -5.1925,-1.82 -3.18125,-1.6075 -6.0575,-4.0625 -8.45125,-7.03375 -0.2075,-0.575 -0.56,-1.55 -1.0375,-2.87125 -0.27,-1.115 -0.725,-2.41375 -1.0175,-3.985 -0.15,-0.78375 -0.31125,-1.61625 -0.48,-2.49625 -0.0875,-0.88875 -0.17875,-1.82375 -0.275,-2.8 -0.0937,-1.95375 -0.13375,-4.07625 0.0937,-6.30625 0.20375,-2.23 0.65625,-4.55875 1.33,-6.91 0.0762,-0.265 0.1625,-0.66 0.23,-0.82125 l 0.3325,-0.895 c 0.2325,-0.58625 0.42625,-1.22875 0.69375,-1.77875 0.58125,-1.05125 1.06625,-2.15625 1.85,-3.17125 0.6675,-1.0775 1.55375,-2 2.3925,-2.96875 0.43375,-0.47125 0.9375,-0.8775 1.40375,-1.32125 l 0.71125,-0.655 0.775,-0.58 c 2.01125,-1.63375 4.36125,-2.795 6.70625,-3.77875 2.37125,-0.95625 4.8425,-1.50625 7.26125,-1.78375 2.41875,-0.1525 4.80625,-0.13375 6.9775,0.405 2.2025,0.4075 4.15625,1.27625 5.875,2.195 1.73125,0.9325 3.025,2.14125 4.0325,3.36125 0.97375,1.24625 1.67875,2.46125 2.08625,3.53625 0.25625,0.52125 0.35125,1.02875 0.495,1.45625 0.1525,0.4275 0.20125,0.80625 0.24625,1.11375 0.10375,0.61875 0.15875,0.94875 0.15875,0.94875 l 0.0913,-0.002 c 0,0 -0.0125,-0.3375 -0.0225,-0.97 -0.0125,-0.32 -0.0125,-0.71375 -0.11375,-1.16625 -0.1,-0.45 -0.12125,-1 -0.3425,-1.5575 -0.18375,-0.57125 -0.37875,-1.21 -0.71625,-1.85375 -0.28125,-0.67375 -0.70625,-1.33625 -1.17,-2.0425 -0.9975,-1.34875 -2.3725,-2.785 -4.15,-3.835 -1.7825,-1.035 -3.83375,-2.0225 -6.1575,-2.5375 -2.29625,-0.64625 -4.82875,-0.76 -7.41625,-0.67625 -2.58375,0.20625 -5.23875,0.70625 -7.80625,1.64375 -2.52875,0.99625 -5.05,2.22875 -7.24125,3.95 l -0.84125,0.61625 -0.7775,0.695 c -0.51,0.4725 -1.055,0.9075 -1.5325,1.41125 -0.9275,1.035 -1.89625,2.03125 -2.645,3.19625 -0.8475,1.075 -1.4625,2.3625 -2.12375,3.57875 -0.3,0.61 -0.4825,1.20625 -0.72875,1.8025 l -0.34375,0.89 c -0.16375,0.4275 -0.18375,0.66125 -0.28125,0.99875 -0.685,2.49 -1.13375,4.9575 -1.3225,7.3175 -0.2175,2.36125 -0.1575,4.61 0.0425,6.6625 0.1375,1.02125 0.27125,2.00125 0.3975,2.9325 0.21,0.915 0.41,1.7825 0.59875,2.59875 0.10125,0.5425 0.2625,1.04125 0.4275,1.52375 -2.665,-4.645 -4.51875,-9.94625 -5.57875,-15.49375 -0.0137,-0.7375 0.0125,-1.705 0.0838,-2.98 0.0888,-1.3525 0.255,-2.995 0.64125,-4.84125 0.375,-1.84625 0.9525,-3.895 1.73875,-6.0725 0.79,-2.17625 1.865,-4.455 3.2075,-6.7425 1.32875,-2.29875 2.99,-4.56 4.84625,-6.77875 3.75375,-4.39625 8.565,-8.43125 14.0125,-11.32625 2.65,-1.46875 5.59,-2.425 8.54875,-3.17625 2.95875,-0.72375 5.93375,-1.2225 8.81625,-1.375 2.87625,-0.13 5.6825,0.03 8.1575,0.76125 2.47125,0.7125 4.54875,2.125 5.68375,4.02625 0.58625,0.93375 0.9425,1.96 1.16,2.96625 0.22875,1.0125 0.31125,1.99 0.18625,2.88375 -0.02,0.14125 -0.06,0.2675 -0.0863,0.40375 -0.0425,-3.3975 -2.80375,-6.14 -6.21125,-6.14 -3.435,0 -6.22125,2.785 -6.22125,6.22 0,3.43625 2.78625,6.22 6.22125,6.22 0.3225,0 0.6325,-0.0462 0.9425,-0.095 -0.02,0.005 -0.0475,0.01 -0.0462,0.0138 0,-0.0275 0.405,0.0162 1.12875,-0.2 0.70875,-0.21 1.77625,-0.68375 2.75,-1.73875 0.98375,-1.02625 1.93625,-2.55 2.38,-4.535 0.42,-2.025 0.12625,-4.38375 -1.05875,-6.65875 -1.19375,-2.28875 -3.5775,-4.08875 -6.2825,-5.02125 -2.7125,-0.98 -5.72375,-1.2925 -8.775,-1.23875 -3.05875,0.0613 -6.19,0.45375 -9.3025,1.17125 -3.09125,0.7275 -6.2675,1.66 -9.19125,3.24 -2.88375,1.51625 -5.61375,3.32 -8.09625,5.345 -2.495,2.0125 -4.71,4.27625 -6.6725,6.6075 -3.9125,4.69375 -6.565,9.84 -8.1125,14.46 -0.65125,1.93625 -1.0825,3.7725 -1.3775,5.46875 -0.0712,-6.3625 1.06125,-12.87 3.3325,-19.12125 0.28625,-0.3975 0.70625,-0.98 1.25125,-1.73875 1.14625,-1.48875 2.82125,-3.645 5.1775,-6.245 2.35,-2.58375 5.2875,-5.665 8.9875,-8.77125 0.46375,-0.38375 0.935,-0.77375 1.4125,-1.17 l 0.69875,-0.5775 0.77375,-0.595 c 1.04125,-0.80375 2.11375,-1.62375 3.20625,-2.37875 2.17,-1.57 4.59375,-3.11 7.11375,-4.6525 5.08625,-3.0375 10.8775,-5.815 17.23125,-7.99125 6.39,-2.07625 13.2875,-3.535 20.59,-3.66625 7.27875,-0.13125 14.9375,0.5475 22.41375,2.215 7.44,1.665 14.95,4.32125 20.90625,8.88 2.995,2.32875 5.5175,5.145 7.53375,8.40375 2,3.2625 3.66125,6.79375 4.29625,10.42125 0.63375,3.72875 0.615,7.61375 0.105,11.34875 -0.53375,3.72875 -1.5925,7.375 -3.39875,10.47625 -3.61125,6.15375 -10.94375,9.71 -17.30875,9.22125 -1.5875,-0.13625 -3.1175,-0.49625 -4.48625,-1.12375 -1.3675,-0.6325 -2.58,-1.49375 -3.59375,-2.52625 -0.49875,-0.52875 -0.96,-1.08125 -1.37125,-1.6725 -0.18125,-0.28875 -0.43,-0.63 -0.55375,-0.86625 -0.1975,-0.34875 -0.405,-0.71 -0.5075,-0.97625 -0.53125,-1.19 -0.965,-2.57375 -1.15375,-3.9 -0.38,-2.67 -0.0925,-5.34375 0.99,-7.27875 0.12,-0.2525 0.28,-0.4675 0.43375,-0.685 l 0.11375,-0.165 c 10e-4,-0.005 0.0775,-0.10875 0.015,-0.0312 l 0.0813,-0.0975 0.3225,-0.3875 c 0.28875,-0.31 0.72125,-0.7025 1.14125,-1.01125 0.73125,-0.52 1.5325,-0.90625 2.33625,-1.14375 -1.39375,1.14125 -2.30375,2.85375 -2.30375,4.79625 0,2.785 1.84375,5.115 4.3675,5.9075 0.1525,0.0613 0.31125,0.11 0.475,0.1475 0.0812,0.0188 0.16125,0.0362 0.24375,0.0512 0.0125,0.001 0.0188,0.005 0.03,0.006 0.0138,0.001 0.0275,-10e-4 0.04,0 0.3475,0.06 0.7,0.1075 1.065,0.1075 3.435,0 6.22,-2.785 6.22,-6.22 0,-0.615 -0.11625,-1.1975 -0.2825,-1.7575 -0.33875,-1.50875 -1.13375,-2.9625 -2.27875,-4.20875 -0.43875,-0.4675 -0.94625,-0.895 -1.52,-1.28 -0.27875,-0.1875 -0.6,-0.36875 -0.96375,-0.545 l -0.1925,-0.0888 -0.145,-0.0625 -0.1275,-0.0463 -0.51375,-0.1825 c -1.39125,-0.4375 -2.91875,-0.5025 -4.37375,-0.215 -1.4625,0.28625 -2.86625,0.88625 -4.15625,1.755 -0.645,0.45375 -1.22875,0.925 -1.8625,1.59625 l -0.33625,0.38375 -0.0838,0.095 c -0.11875,0.1425 -0.085,0.1125 -0.135,0.17625 l -0.17875,0.255 c -0.2425,0.33875 -0.48125,0.6825 -0.66625,1.0525 -1.6025,2.93875 -1.905,6.3725 -1.3275,9.66625 0.305,1.66875 0.79125,3.27875 1.65875,4.92 0.22625,0.4525 0.435,0.76625 0.64625,1.1025 0.27875,0.45 0.5275,0.74 0.79625,1.1175 0.54375,0.705 1.15625,1.36875 1.81875,1.99625 1.3425,1.2375 2.94,2.2525 4.6825,2.94625 1.74375,0.69375 3.62375,1.03375 5.50375,1.09875 3.77625,0.0738 7.51875,-0.99125 10.89,-2.8025 1.94125,-1.05 3.79125,-2.395 5.4175,-4.00125 -0.62625,1.6625 -1.2725,3.34375 -1.93875,5.05375 -1.20125,3.06625 -2.3675,6.19625 -3.4725,9.37625 -1.08625,3.1875 -2.10125,6.43375 -2.73625,9.73875 -0.62625,3.29875 -0.95125,6.64875 -0.64125,9.88 0.09,0.805 0.165,1.6 0.33875,2.3975 l 0.23,1.18 0.29375,1.09875 c 0.3875,1.5225 0.995,2.94125 1.65375,4.2775 1.40875,2.63625 3.32,4.7725 5.34625,6.3575 2.02875,1.59625 4.18875,2.605 6.145,3.26375 1.96375,0.6525 3.74375,0.97125 5.21375,1.075 0.7325,0.085 1.39125,0.0825 1.96375,0.0738 0.5725,0.0113 1.055,-0.0113 1.44375,-0.055 0.78125,-0.0637 1.1975,-0.0987 1.1975,-0.0987 0,0 -0.4175,-0.001 -1.20125,-0.002 -0.3925,0.0113 -0.875,-0.007 -1.4375,-0.0662 -0.5625,-0.0375 -1.20625,-0.0963 -1.9225,-0.2225 -2.83875,-0.40375 -6.96625,-1.65375 -10.6825,-4.8475 -1.84625,-1.58125 -3.5325,-3.6575 -4.725,-6.14875 -0.5525,-1.265 -1.05375,-2.5925 -1.3475,-4.01 l -0.245,-1.11 -0.15625,-1.0825 c -0.1225,-0.71375 -0.16125,-1.46875 -0.2125,-2.2225 -0.2225,-3.02 0.155,-6.17125 0.8225,-9.30875 0.6775,-3.1425 1.73,-6.27 2.86875,-9.37625 1.16125,-3.10375 2.405,-6.205 3.59375,-9.26375 1.195,-3.0525 2.42,-6.075 3.4225,-9.07625 0.7775,-2.325 1.5125,-4.60875 2.07125,-6.85875 0.5475,-1.695 0.9725,-3.435 1.2975,-5.1925 0.74875,-3.96625 0.9375,-8.07375 0.50125,-12.23875 -0.4725,-4.2875 -2.05875,-8.2725 -4.01375,-12.00375 -1.97875,-3.74625 -4.7025,-7.2475 -7.93,-10.1025 -6.60625,-5.77875 -14.68625,-8.96875 -22.66625,-10.99375 -8.0425,-1.96125 -16.1325,-2.7025 -24.0175,-2.39625 -2.66875,0.1125 -5.3575,0.355 -7.9825,0.7475 4.89,-1.2225 9.9925,-2.19125 15.27375,-2.79875 7.815,-0.86625 15.995,-1.15625 24.13625,-0.11875 4.06375,0.52125 8.1175,1.355 12.005,2.6875 3.89625,1.2975 7.62125,3.105 10.945,5.46 3.33875,2.335 6.185,5.3025 8.44625,8.6425 1.075,1.71 2.08875,3.45375 2.86125,5.33125 0.205,0.48125 0.43125,0.96875 0.62,1.44375 l 0.50375,1.4025 c 0.36125,0.91625 0.62125,1.91 0.91625,2.87625 2.2175,7.815 2.4625,16.02 2.4375,23.9225 -0.0425,7.925 -0.3325,15.67875 0.1975,23.07125 0.52125,7.37625 2.06625,14.40875 4.95125,20.29125 1.4075,2.95125 3.1775,5.56625 5.07375,7.845 0.915,1.17125 1.95375,2.17875 2.92375,3.19 1.05375,0.99625 2.04125,1.815 3.03625,2.675 4.18,3.29375 8.175,5.4425 11.525,7.1025 3.34125,1.6625 6.03125,2.81375 7.86125,3.60625 1.83125,0.78875 2.8075,1.20875 2.8075,1.20875 0,0 -0.9475,-0.48375 -2.7225,-1.39125 -1.7675,-0.92 -4.38125,-2.235 -7.62125,-4.03625 -3.22375,-1.79625 -7.12,-4.17625 -10.93,-7.5025 -0.92125,-0.88125 -1.94625,-1.8275 -2.865,-2.74625 -0.90375,-1.005 -1.87125,-2.0025 -2.71,-3.15375 -1.745,-2.24125 -3.3475,-4.7825 -4.59375,-7.63375 -2.5725,-5.68125 -3.7975,-12.42875 -4.13375,-19.6175 -0.39625,-7.2025 0.0813,-14.86875 0.205,-22.88 0.0562,-4.005 0.0337,-8.10375 -0.27625,-12.2675 -0.30875,-4.1575 -0.89125,-8.3975 -2.0925,-12.55125 -0.315,-1.03625 -0.58875,-2.0725 -0.99625,-3.11375 l -0.57,-1.56 c -0.20125,-0.50125 -0.41875,-0.97 -0.6275,-1.45625 -0.8375,-2.0225 -1.95125,-3.94875 -3.135,-5.81625 -2.4825,-3.66625 -5.63125,-6.92625 -9.26375,-9.46125 -3.6225,-2.55875 -7.63375,-4.48625 -11.76875,-5.86 -4.13125,-1.4075 -8.38375,-2.27125 -12.6175,-2.80875 -8.47875,-1.05625 -16.89625,-0.79375 -24.89125,0.245 -7.9975,1.02875 -15.62875,2.81 -22.63375,5.1375 -0.88125,0.27875 -1.755,0.555 -2.6225,0.83 -0.855,0.3275 -1.70375,0.6525 -2.5475,0.975 -1.67875,0.65625 -3.35625,1.26875 -4.9575,1.93625 -1.55875,0.72125 -3.0925,1.43125 -4.5975,2.12875 -0.765,0.375 -1.47,0.63375 -2.265,1.095 -0.72125,0.405 -1.4375,0.80625 -2.14375,1.20375 -5.6275,3.22625 -10.36,6.855 -14.18,10.43375 -1.9925,1.70625 -3.62625,3.53625 -5.2275,5.1325 -1.23125,1.29625 -2.30875,2.56875 -3.3225,3.73875 2.325,-3.28 4.90625,-6.43125 7.71875,-9.4125 6.7475,-7.1575 14.685,-13.47625 23.38375,-18.8575 5.06875,-3.1325 10.40625,-5.9525 15.955,-8.4025 0.6575,-0.1775 1.39625,-0.37625 2.22625,-0.59875 1.76125,-0.565 3.93625,-0.8825 6.40875,-1.40625 2.45375,-0.55 5.31625,-0.91125 8.40625,-1.3875 3.08125,-0.45875 6.5,-0.9175 10.0125,-1.3425 1.7925,-0.1875 3.635,-0.38 5.515,-0.5775 1.87375,-0.14 3.77125,-0.2125 5.70875,-0.3275 1.92875,-0.15375 3.91875,-0.065 5.91625,-0.095 1.00125,0.01 2.00875,-0.03 3.02,-0.005 1.01,0.0462 2.025,0.095 3.045,0.1425 2.03875,0.0875 4.095,0.16375 6.14125,0.43125 l 3.0825,0.32875 1.54125,0.16875 1.53,0.26125 c 2.03375,0.36625 4.0925,0.6225 6.09875,1.0775 2,0.48 3.99375,0.96 5.97,1.43625 3.85125,1.2825 7.76,2.3025 11.07625,4.10875 3.38375,1.75375 6.455,3.86125 9.10125,6.1475 2.6075,2.32125 4.82375,4.81 6.37,7.40875 0.765,1.3 1.39875,2.60375 1.8575,3.8975 0.43125,1.29875 0.725,2.5725 0.84,3.79125 0.25875,2.44 -0.13875,4.61375 -0.70125,6.31375 -0.5575,1.71125 -1.27375,2.9625 -1.7525,3.8125 -0.5225,0.83 -0.8025,1.2725 -0.8025,1.2725 l 0.0613,0.0475 c 0,0 0.33375,-0.40625 0.96125,-1.17 0.3125,-0.385 0.6425,-0.90125 1.05625,-1.495 0.3475,-0.63125 0.80125,-1.3375 1.15,-2.20875 0.75125,-1.7075 1.41125,-3.9725 1.3775,-6.65 -0.065,-2.665 -0.8125,-5.6725 -2.36375,-8.5575 -1.52125,-2.9 -3.735,-5.69875 -6.43375,-8.245 -2.705,-2.54375 -5.885,-4.85875 -9.46,-6.7675 -1.78625,-0.94625 -3.6875,-1.8475 -5.64125,-2.49375 -1.955,-0.63875 -3.9325,-1.285 -5.9275,-1.9375 -2.03375,-0.4975 -4.08375,-0.99875 -6.14375,-1.5025 -2.06375,-0.475 -4.175,-0.7475 -6.26375,-1.13125 l -1.5725,-0.2625 -1.58375,-0.16375 -3.16,-0.31625 c -2.10125,-0.26 -4.20375,-0.32625 -6.29,-0.4025 -1.04375,-0.0425 -2.08125,-0.0838 -3.11625,-0.125 -1.0325,-0.015 -2.06125,0.0175 -3.0825,0.0362 -2.045,0.0725 -4.05875,0.0238 -6.05,0.2225 -1.985,0.15625 -3.94875,0.27625 -5.84625,0.45875 -1.8775,0.235 -3.71375,0.46625 -5.50125,0.69 -1.84625,0.225 -3.5375,0.53125 -5.23,0.78 -1.67875,0.26875 -3.30375,0.48625 -4.855,0.80625 -1.4825,0.28875 -2.9025,0.54625 -4.26,0.81 2.44,-0.76875 4.90875,-1.45875 7.4075,-2.0475 2.5525,-0.6025 5.18375,-1.09 7.81625,-1.58875 5.245,-0.975 10.5525,-1.82125 15.895,-2.44125 7.35125,-0.855 14.80875,-1.27 22.24125,-0.9725 l -0.0325,0.185 c 0,0 2.6975,0.56125 7.34625,1.91875 4.6375,1.36 11.2375,3.4625 18.78125,6.80625 3.77375,1.66125 7.7575,3.68 11.8,6.0625 4.0375,2.39 8.09,5.2375 11.87875,8.595 3.7875,3.34875 7.285,7.27875 9.90875,11.80875 2.67125,4.4925 4.4825,9.5575 5.155,14.81375 0.24875,1.3025 0.23625,2.6375 0.315,3.96 l 0.0487,0.99375 0.0125,0.2375 0,0.05 0,0.13 -0.0213,0.52 -0.04,1.04 -0.12375,0.87 c -0.13375,1.1625 -0.505,2.395 -0.91125,3.52875 -0.4975,1.10625 -1.0275,2.20875 -1.77875,3.14375 -2.81875,3.925 -7.9175,5.60625 -12.5075,4.98625 -4.58625,-0.56375 -8.53875,-4.025 -9.34875,-8.0475 -0.74625,-4.04375 1.17,-8.6125 4.3625,-10.21375 0.78,-0.40625 1.69375,-0.59625 2.4975,-0.655 l 0.74375,-0.0125 c 0.2325,0.006 0.4125,0.045 0.62,0.0613 0,0 0.0125,0.002 0.015,0.002 -2.81375,0.595 -4.9275,3.09 -4.9275,6.08125 0,3.43625 2.785,6.22125 6.22,6.22125 3.435,0 6.22125,-2.785 6.22125,-6.22125 0,-0.6175 -0.11875,-1.2025 -0.28625,-1.7675 -0.1525,-0.755 -0.39625,-1.525 -0.84875,-2.19625 -1.98875,-3.15625 -6.50875,-5.32625 -11.16625,-3.48625 -2.205,0.96875 -3.99125,2.86625 -5.05625,5.10875 -0.53375,1.12625 -0.91875,2.3375 -1.135,3.6075 -0.21875,1.33 -0.25875,2.58 -0.06,3.96 0.85375,5.51375 5.84375,9.98375 11.5775,10.88375 2.90625,0.45625 5.85125,0.28 8.725,-0.7275 2.8475,-1.00125 5.4575,-2.86125 7.315,-5.32375 0.97625,-1.1975 1.685,-2.5775 2.3225,-3.97625 0.5475,-1.4475 1.00375,-2.87125 1.22,-4.46 l 0.16625,-1.18875 0.055,-1.03875 0.0275,-0.52 0.0163,-0.35 -0.0125,-0.2725 -0.05,-1.0875 c -0.0813,-1.44875 -0.0775,-2.905 -0.34375,-4.34375 -0.735,-5.77875 -2.73625,-11.3975 -5.67,-16.305 -2.9375,-4.92 -6.76125,-9.09 -10.81875,-12.58875 -4.06625,-3.5075 -8.40625,-6.33 -12.64375,-8.7125 -4.2425,-2.3875 -8.44125,-4.24875 -12.3575,-5.8175 -6.72,-2.66125 -12.665,-4.3175 -17.2375,-5.41 0.0275,0.004 0.0525,0.005 0.08,0.009 5.34,0.735 10.5325,1.9475 15.68875,3.67 1.235,0.54625 2.62125,1.16125 4.17,1.84625 2.48875,1.07375 5.3875,2.2575 8.66375,3.49 0.7225,0.36 1.45125,0.71125 2.165,1.0875 9.615,5.05375 18.44875,11.535 26.595,18.7075 4.07625,3.56625 7.97125,7.39 11.9125,11.15625 0.0763,0.0725 0.15,0.145 0.22625,0.2175 0.3925,0.7075 0.815,1.48625 1.27625,2.37375 1.10125,2.0875 2.3275,4.6825 3.59875,7.71 1.27625,3.02625 2.555,6.50875 3.63375,10.38875 1.08,3.875 2.03,8.1375 2.47125,12.6875 0.425,4.54125 0.405,9.37125 -0.51875,14.16 -0.90375,4.78875 -2.755,9.46625 -5.44875,13.6225 l -1.02625,1.5525 c -0.34625,0.515 -0.77625,0.975 -1.1575,1.465 l -1.17375,1.45 c -0.425,0.45875 -0.88,0.8925 -1.31375,1.3425 l -1.30625,1.345 -1.4225,1.23875 c -0.47875,0.40875 -0.93125,0.84625 -1.39625,1.27 l -1.47625,1.19375 c -1,0.78 -1.9275,1.6575 -3.01625,2.345 l -1.58,1.1 -0.79,0.55125 -0.1975,0.13875 c 0.0238,-0.0125 -0.12375,0.0738 0.0412,-0.0175 l -0.055,0.0325 -0.10875,0.0638 -0.4375,0.25625 c -1.2375,0.74625 -2.17375,1.20625 -3.295,1.7175 -1.12875,0.50625 -2.3,0.9225 -3.47875,1.31625 -4.75125,1.46375 -9.79625,2.0025 -14.5675,1.4425 -2.37875,-0.2975 -4.68,-0.88 -6.815,-1.74 -0.52125,-0.2375 -1.075,-0.4175 -1.56875,-0.6975 -0.47625,-0.2525 -1.05125,-0.57 -1.44625,-0.765 -0.475,-0.3325 -1.04625,-0.66375 -1.43125,-0.99125 -0.405,-0.33 -0.82125,-0.63625 -1.20875,-1.035 -3.17375,-3.00375 -5.125,-7.09 -5.36,-10.945 -0.115,-1.92875 0.22375,-3.80375 0.97875,-5.41375 0.755,-1.61875 1.9275,-2.95 3.2875,-3.67875 1.38125,-0.76125 2.94625,-0.875 4.27125,-0.57375 1.3325,0.31875 2.42125,1.03625 3.185,1.86 0.1525,0.17875 0.28125,0.36 0.40625,0.54 -1.1075,-1.0175 -2.57125,-1.65375 -4.19375,-1.65375 -3.435,0 -6.22,2.78625 -6.22,6.22125 0,3.435 2.785,6.22 6.22,6.22 2.78875,0 5.12125,-1.84625 5.91125,-4.375 l 0.0125,0.004 c 0,0 0.0125,-0.05 0.0163,-0.1 0.165,-0.55875 0.28125,-1.1375 0.28125,-1.74875 0,-0.0775 -0.02,-0.15 -0.0238,-0.22625 0.0925,-1.31625 -0.20625,-3.47875 -1.93125,-5.32625 -0.8725,-0.885 -2.07,-1.65625 -3.53125,-1.98875 -1.445,-0.3625 -3.155,-0.23 -4.715,0.53875 -3.165,1.59875 -5.29375,5.425 -5.345,9.73 -0.0525,4.3075 1.78,8.8375 5.025,12.57875 0.38875,0.47625 0.8725,0.925 1.35125,1.38125 0.48625,0.4725 0.92875,0.775 1.4,1.175 0.5475,0.3625 1.0975,0.7275 1.65,1.09375 0.53375,0.36375 1.12375,0.6275 1.69125,0.9475 2.31,1.1925 4.83375,2.075 7.465,2.6675 5.27,1.12125 10.9525,1.13125 16.5425,-0.0975 1.39125,-0.33625 2.78625,-0.70875 4.16,-1.1925 1.3775,-0.48125 2.90875,-1.12625 4.035,-1.69375 l 0.4575,-0.21875 0.115,-0.0562 0.0575,-0.0263 0.15,-0.0838 0.23,-0.13375 0.925,-0.535 1.85375,-1.07625 c 1.26,-0.68125 2.425,-1.5425 3.59375,-2.3925 4.6775,-3.4225 8.42,-8.14 11.11875,-13.18 1.32625,-2.48625 2.34375,-5.08 3.0975,-7.70125 -0.09,0.68875 -0.18375,1.38625 -0.26875,2.1 -0.28625,1.64 -0.59,3.3375 -0.93625,5.055 -0.41125,1.7025 -0.7575,3.4525 -1.235,5.17 -0.4625,1.72125 -0.90625,3.44625 -1.42,5.13 -0.49625,1.68875 -0.98625,3.34875 -1.45875,4.9575 -0.92375,3.225 -1.51,6.34125 -1.50875,9.04 0.02,1.34875 0.1725,2.57875 0.4275,3.6425 0.1425,0.5275 0.29375,1.0175 0.455,1.46 0.195,0.43125 0.34375,0.84 0.5325,1.18375 0.19375,0.34 0.36875,0.6425 0.52,0.9075 0.165,0.255 0.33125,0.45375 0.45125,0.625 0.25,0.33625 0.3825,0.51625 0.3825,0.51625 0,0 -0.13,-0.18375 -0.37125,-0.525 -0.1175,-0.1725 -0.27875,-0.37625 -0.4375,-0.63375 -0.145,-0.26625 -0.31125,-0.5725 -0.4975,-0.915 -0.18,-0.34375 -0.31875,-0.75625 -0.5025,-1.18625 -0.15,-0.44375 -0.29125,-0.93375 -0.42,-1.45875 -0.23,-1.06 -0.35375,-2.28125 -0.345,-3.61375 0.0575,-2.6725 0.705,-5.7425 1.69375,-8.9325 0.50625,-1.595 1.03125,-3.24375 1.565,-4.91875 0.55,-1.66875 1.03375,-3.395 1.53625,-5.11375 0.5175,-1.71625 0.905,-3.4675 1.355,-5.17375 0.3875,-1.72125 0.73125,-3.42625 1.05625,-5.0775 0.235,-1.6675 0.52,-3.2725 0.68625,-4.81 0.11875,-1.54125 0.26375,-2.99875 0.335,-4.3475 0,-0.80125 0.0125,-1.54875 0.0125,-2.265 0.325,-4.94375 -0.0237,-9.68875 -0.77625,-14.08625 -0.79375,-4.70125 -1.95875,-9.035 -3.29375,-12.93125 -1.345,-3.89375 -2.77125,-7.38 -4.16125,-10.40875 -1.1325,-2.465 -2.235,-4.6075 -3.2175,-6.46125 0.5925,0.56875 1.18125,1.135 1.7725,1.7025 0.72375,0.84375 1.82,2.12125 3.255,3.795 0.67625,0.785 1.42375,1.65625 2.23875,2.605 0.8375,0.9275 1.74625,1.93375 2.715,3.0075 1.94,2.14625 4.14125,4.56625 6.4525,7.24 1.16375,1.33125 2.37875,2.71875 3.635,4.15375 1.18125,1.48625 2.40375,3.0225 3.65875,4.60125 2.55125,3.1125 5.0475,6.59125 7.50375,10.23125 4.89375,7.2725 9.62875,15.4625 12.52625,24.07625 1.40875,4.29 2.34375,8.705 2.1275,12.83625 -0.21625,4.125 -1.74125,7.78375 -4.405,10.49125 -0.34,0.3325 -0.71,0.63875 -1.0575,0.96125 l -0.2625,0.23875 -0.0662,0.06 -0.0238,0.0225 -0.045,0.0325 -0.67,0.47375 c -0.205,0.13125 -0.485,0.37375 -0.62625,0.4125 -0.1575,0.07 -0.31,0.1475 -0.4625,0.22875 -0.1625,0.0763 -0.27625,0.18 -0.47625,0.2475 l -0.585,0.21875 c -1.5625,0.57375 -3.315,0.8325 -5.06625,0.72875 -3.52,-0.1475 -6.99875,-1.71625 -9.17625,-4.18 -1.1425,-1.20375 -1.77875,-2.70375 -2.22375,-4.13875 -0.21625,-0.80875 -0.30875,-1.51625 -0.3875,-2.2325 -0.0138,-0.36625 -0.0275,-0.72625 -0.0412,-1.08125 0.0288,-0.35375 0.055,-0.70125 0.0825,-1.04375 0.30875,-2.64125 1.82625,-4.66 3.55125,-5.44 -1.31375,1.14 -2.16375,2.80375 -2.16375,4.68 0,3.43625 2.785,6.22125 6.22,6.22125 3.435,0 6.22125,-2.785 6.22125,-6.22125 0,-2.52875 -1.515,-4.695 -3.6825,-5.6675 l 0.0125,-0.03 c 0,0 -0.0437,-0.0113 -0.1225,-0.0312 -0.74625,-0.31625 -1.565,-0.49125 -2.42625,-0.49125 -0.0888,0 -0.17125,0.0225 -0.26125,0.0263 -1.0675,-0.0762 -2.43125,-0.0213 -3.9325,0.6125 -2.0675,0.84875 -3.9375,3.17625 -4.44375,6.18125 -0.0513,0.375 -0.10375,0.75625 -0.15625,1.14375 -0.015,0.39 -0.0312,0.785 -0.0475,1.18625 0.02,0.815 0.0838,1.68 0.23,2.4525 0.31625,1.69125 0.8825,3.4675 1.955,5.0725 2.07375,3.205 5.53375,6.10875 10.08125,7.26 2.2525,0.55875 4.79,0.70625 7.32,0.03 2.7375,-0.69875 4.88375,-2.28375 6.65625,-4.0225 1.8075,-1.79625 3.33,-4.00875 4.3675,-6.44875 1.0375,-2.44625 1.54875,-5.09 1.66875,-7.68875 0.1425,-2.61 -0.19375,-5.17 -0.69125,-7.64625 -0.5125,-2.475 -1.22625,-4.885 -2.12625,-7.18875 -1.755,-4.63375 -4.0675,-8.9375 -6.5225,-13.0125 -2.47875,-4.06375 -5.12625,-7.8975 -7.81125,-11.4975 -2.69625,-3.6 -5.37875,-6.9825 -8.145,-10.04375 -0.95875,-1.0925 -1.895,-2.15625 -2.81625,-3.20375 10.99125,9.83125 22.34625,18.9925 34.48125,26.57625 3.2425,2.04375 6.5475,3.935 9.90125,5.68 0.50125,0.38625 1.01,0.77625 1.5375,1.17 2.48375,1.73 5.13749,3.67375 8.02874,5.6125 1.48375,0.91375 3.0075,1.8525 4.56625,2.81375 0.78,0.48 1.57,0.96625 2.365,1.45625 0.78625,0.51 1.65625,0.96625 2.4625,1.41375 1.64,0.92 3.34125,1.825 5.0875,2.72625 1.71875,0.895 3.46,1.8 5.21375,2.7125 3.41875,1.87875 6.9325,3.69625 10.05375,5.9325 l 1.20125,0.8025 1.10875,0.9 2.2325,1.76875 2,1.9775 0.99875,0.98125 0.87,1.0475 0.46375,0.56875 0.33,0.51375 c 0.2175,0.34625 0.4575,0.66625 0.67,1.02625 0.37,0.7725 0.835,1.51 1.07875,2.3175 0.65625,1.56875 0.87625,3.2225 0.93375,4.825 -0.0275,0.8025 -0.0175,1.60625 -0.21375,2.3775 -0.08,0.36875 -0.1175,0.82875 -0.22625,1.1225 -0.13375,0.44 -0.27,0.89875 -0.40625,1.1875 -0.535,1.37 -1.4025,2.76 -2.395,3.87875 -2.0025,2.29125 -4.695,3.70875 -7.3075,4.05375 -2.63,0.39875 -5.0625,-0.42375 -6.93625,-1.68125 -1.1775,-0.7975 -2.105,-1.7375 -2.85,-2.68875 1.0675,0.70125 2.34125,1.1125 3.7125,1.1125 3.73625,0 6.7675,-3.03 6.7675,-6.7675 0,-3.7375 -3.03125,-6.7675 -6.7675,-6.7675 -3.73625,0 -6.7675,3.03 -6.7675,6.7675 0,0.23625 0.0125,0.47125 0.0363,0.7025 0.0237,0.955 0.19375,2.255 0.76875,3.8025 0.62375,1.7375 1.8375,3.73 3.84,5.47875 1.94625,1.75625 5.015,3.11875 8.43625,2.96 3.40625,-0.1175 6.97,-1.71375 9.7425,-4.42 1.39375,-1.3775 2.5275,-2.985 3.425,-4.945 0.25375,-0.5325 0.3925,-0.9425 0.55125,-1.37125 0.21875,-0.56625 0.27625,-1.03375 0.41875,-1.56125 0.30125,-1.02375 0.37,-2.09125 0.45,-3.17125 0.0412,-2.14875 -0.255,-4.36125 -1.02375,-6.40875 -0.3075,-1.06 -0.84125,-2.01375 -1.3075,-3.0125 -0.27,-0.4925 -0.59625,-0.98 -0.89875,-1.4675 l -0.46875,-0.73125 -0.4575,-0.59375 -0.45875,-0.58375 -0.2275,-0.29375 -0.115,-0.14625 -0.0575,-0.0737 -0.0275,-0.0362 c -0.1675,-0.19875 -0.0675,-0.075 -0.11375,-0.12875 l -1.12125,-1.1175 -2.2575,-2.23875 -2.48125,-1.96875 -1.255,-0.9675 -1.3225,-0.845 -2.64625,-1.68125 -2.73375,-1.45 c -1.805,-1.005 -3.6675,-1.77 -5.4875,-2.63125 -3.67125,-1.62875 -7.21625,-3.005 -10.65625,-4.595 -1.75375,-0.73625 -3.29625,-1.60625 -4.91875,-2.43375 -0.92625,-0.47875 -1.81125,-0.93875 -2.71125,-1.405 11.0075,4.3975 22.29625,7.31875 33.34875,8.81 0.18,0.0238 0.3575,0.0425 0.53625,0.0675 0.27625,0.0462 0.59375,0.0987 0.9525,0.16 0.805,0.14125 1.8375,0.31375 3.04625,0.505 l -0.20875,0.255 c 0,0 0.26,0.225 0.74875,0.645 0.48125,0.40625 1.33375,1.04125 2.39,1.6575 1.08,0.61375 2.43375,1.285 4.045,1.86625 1.60625,0.59625 3.455,1.14375 5.48875,1.6225 2.0325,0.485 4.25625,0.8625 6.59625,1.23875 2.33125,0.38 4.82,0.7325 7.36375,1.08125 2.57875,0.305 5.23375,0.63375 7.92125,0.88375 2.685,0.28 5.4075,0.565 8.1075,0.93875 2.6975,0.38375 5.38875,0.805 7.9825,1.425 0.64875,0.14875 1.3025,0.28 1.9425,0.44125 0.63125,0.185 1.26125,0.36875 1.88625,0.5525 0.62625,0.1825 1.2475,0.365 1.86625,0.54625 0.5675,0.16375 1.215,0.42 1.81125,0.62125 4.66625,1.7325 8.625,4.46875 11.1525,7.54 1.2525,1.54125 2.21875,3.13 2.77125,4.66375 0.32625,0.74875 0.5075,1.495 0.73625,2.17 0.13625,0.695 0.29375,1.335 0.37875,1.9225 0.0587,0.5925 0.11125,1.1225 0.15625,1.5825 0.0287,0.4625 0.0175,0.85875 0.025,1.18 0.009,0.645 0.0125,0.99 0.0125,0.99 0,0 0.0437,-0.34125 0.12625,-0.9825 0.0325,-0.32125 0.1125,-0.7175 0.13125,-1.1875 0.004,-0.4725 0.009,-1.015 0.015,-1.6225 -0.0237,-0.60875 -0.1125,-1.28 -0.1775,-2.01875 -0.16625,-0.715 -0.24625,-1.52875 -0.54125,-2.33625 -0.47,-1.65875 -1.37,-3.41875 -2.59125,-5.16 -1.22625,-1.745 -2.87,-3.41 -4.83625,-4.855 -1.955,-1.46375 -4.22125,-2.68125 -6.7,-3.68 -0.61875,-0.22375 -1.17125,-0.47125 -1.85625,-0.68125 -0.6375,-0.19 -1.27875,-0.38 -1.92375,-0.57375 -0.64625,-0.19125 -1.295,-0.385 -1.9475,-0.57875 -0.6575,-0.17 -1.32625,-0.3075 -1.99375,-0.4625 -2.665,-0.65125 -5.40875,-1.09375 -8.145,-1.49625 -5.4775,-0.7775 -10.97875,-1.24875 -16.04625,-1.795 -2.56375,-0.31375 -5.0125,-0.62375 -7.345,-0.9675 -2.32875,-0.33125 -4.50875,-0.7025 -6.50125,-1.1025 -1.9925,-0.4 -3.78875,-0.86875 -5.34,-1.38625 -1.5575,-0.50625 -2.8475,-1.09625 -3.87375,-1.635 -0.715,-0.375 -1.255,-0.70625 -1.69875,-1.00625 0.46625,0.07 0.93125,0.14 1.44,0.21375 2.77125,0.405 6.13875,0.86125 10.01875,1.26625 3.8775,0.4175 8.26375,0.80125 13.06125,1.07125 4.7875,0.26875 10.02875,0.37125 15.515,0.235 5.54,-0.13875 11.3125,-0.57875 17.28875,-1.07375 5.975,-0.5075 12.10375,-1.04 18.369999,-1.46125 6.28625,-0.465 12.62375,-1.045 18.885,-0.75375 3.1225,0.13125 6.21375,0.42 9.2125,0.95875 2.99875,0.5325 5.94125,1.2375 8.6325,2.29125 2.68,1.05625 5.25875,2.41 7.21,4.34875 0.96625,0.96625 1.78374,2.06125 2.31749,3.28375 0.115,0.31 0.27,0.61625 0.355,0.92875 l 0.16875,0.54125 0.1175,0.47375 c 0.1425,0.6475 0.25125,1.335 0.2775,2.00125 0.155,2.69 -0.81875,5.31 -2.55874,7.22125 -1.71,1.93375 -3.9875,3.27625 -6.33,3.98875 -2.33625,0.735 -4.75,0.89625 -6.87625,0.48 -2.12625,-0.43125 -3.94,-1.475 -5.1525,-3.065 -1.24125,-1.55625 -1.8325,-3.68375 -2.01125,-5.59625 -0.0288,-0.55 -0.0588,-1.10375 -0.0237,-1.51 0.006,-0.435 0.0787,-0.9175 0.16875,-1.3475 0.18125,-0.87875 0.51,-1.685 0.98,-2.36375 0.93375,-1.36625 2.41125,-2.18 3.88125,-2.43125 1.47875,-0.27375 2.92,-0.007 4.07625,0.51375 0.3575,0.165 0.67625,0.3575 0.97625,0.56 -0.74625,-0.3175 -1.56875,-0.49375 -2.43125,-0.49375 -3.435,0 -6.22125,2.785 -6.22125,6.22 0,3.43625 2.78625,6.22125 6.22125,6.22125 3.3175,0 6.005,-2.605 6.18625,-5.8775 l 0.0225,0 c 0,0 0,-0.0763 -0.001,-0.21 0.001,-0.045 0.0125,-0.0875 0.0125,-0.13375 0,-0.0513 -0.0125,-0.0988 -0.0138,-0.15 -10e-4,-0.0387 -10e-4,-0.07 -10e-4,-0.1125 0.002,-0.39875 -0.0312,-0.9975 -0.18875,-1.76625 -0.14625,-0.76875 -0.4425,-1.7175 -1.0575,-2.70875 -0.60125,-0.99625 -1.575,-1.98875 -2.90125,-2.74 -1.33,-0.72375 -3.03375,-1.18625 -4.90375,-0.99125 -1.84875,0.1675 -3.905,1.06625 -5.3275,2.835 -0.71,0.87125 -1.235,1.92625 -1.5575,3.0475 -0.32625,1.06625 -0.46625,2.45 -0.45875,3.46125 0.015,2.42 0.45125,4.95 1.905,7.38625 0.725,1.2 1.74375,2.28 2.95125,3.13875 1.20875,0.86625 2.63125,1.425 4.08375,1.7625 2.92875,0.665 6.02625,0.28875 8.8475,-0.8075 2.8125,-1.12375 5.43375,-2.97 7.36124,-5.51625 1.92875,-2.5275 3.0775,-5.7975 2.9675,-9.105 -0.01,-0.83 -0.105,-1.63625 -0.25625,-2.46625 l -0.11875,-0.63375 -0.12875,-0.5525 c -0.0888,-0.42625 -0.24,-0.81625 -0.36125,-1.22875 -0.54875,-1.6175 -1.385,-3.155 -2.455,-4.495 -2.15124,-2.68 -4.99124,-4.71625 -8.07874,-6.09375 -6.26875,-2.66 -13.0075,-3.13375 -19.50875,-2.91625 -5.07875,0.20875 -10.0725,0.7175 -14.9775,1.2075 1.78125,-0.5825 3.61375,-1.255 5.4925,-2.02875 3.0225,-1.21 6.055,-2.85875 9.08875,-4.72375 1.155,-0.75125 2.29625,-1.5625 3.42625,-2.4075 0.1325,-0.0663 0.2725,-0.13625 0.41,-0.20875 l 0.2575,0.18375 c 0,0 0.0175,-0.17375 0.17125,-0.39875 0.32625,-0.165 0.6625,-0.3325 1.0225,-0.48125 0.775,-0.3225 1.61375,-0.66875 2.51,-1.04 0.88875,-0.375 1.835,-0.775 2.8325,-1.195 1.03125,-0.35375 2.11375,-0.72625 3.245,-1.115 1.135,-0.3725 2.28875,-0.84 3.53125,-1.18 1.24125,-0.33375 2.525,-0.67875 3.84625,-1.035 0.65875,-0.175 1.31875,-0.3825 2.00125,-0.53875 0.6875,-0.1375 1.3825,-0.27625 2.085,-0.4175 1.40625,-0.27125 2.83499,-0.59125 4.29999,-0.84 2.94875,-0.3625 5.97625,-0.9175 9.09625,-0.99375 3.1075,-0.27875 6.265,-0.16 9.42375,-0.14125 l 2.36375,0.18 2.2275,0.3125 2.21625,0.46375 c 0.715,0.21 1.4275,0.42 2.13875,0.6275 2.795,0.94375 5.2325,2.4975 7.0775,4.50375 0.0987,0.0987 0.29875,0.28125 0.31375,0.3125 l 0.35,0.44375 c 0.21875,0.29 0.49375,0.6 0.665,0.87125 0.33125,0.55 0.71,1.04625 0.98625,1.66375 0.64875,1.1625 1.00125,2.39875 1.2975,3.595 0.4812499,2.41875 -0.115,4.70625 -1.40875,6.46875 -0.45875,0.63625 -1.02,1.1675 -1.6125,1.64125 0.60875,-0.92375 0.96875,-2.0275 0.96875,-3.2175 0,-3.235 -2.6225,-5.8575 -5.85625,-5.8575 -3.235,0 -5.8575,2.6225 -5.8575,5.8575 0,0.5675 0.10625,1.105 0.25625,1.62375 0.0238,0.19875 0.0788,0.48 0.23125,0.8275 0.28625,0.71625 0.88625,1.73625 2.05625,2.67625 0.61375,0.47 1.385,0.925 2.29125,1.03625 0.88875,0.2475 1.8975,0.2325 2.95875,0.135 2.1325,-0.26375 4.42125,-1.35125 6.2587499,-3.39875 1.83875,-1.94375 2.86625,-5.10375 2.47625,-8.2025 -0.225,-1.525 -0.60125,-3.0825 -1.30625,-4.51375 -0.28875,-0.73375 -0.75125,-1.4575 -1.1725,-2.19125 -0.21625,-0.365 -0.4312499,-0.62625 -0.6487499,-0.94625 l -0.32625,-0.46125 c -0.2,-0.28 -0.29625,-0.3425 -0.45,-0.52375 -2.10875,-2.61375 -5.1425,-4.5175 -8.33625,-5.7075 -0.81,-0.26 -1.62125,-0.5375 -2.4425,-0.78125 -0.82625,-0.19375 -1.65625,-0.385 -2.49625,-0.5525 l -2.5625,-0.36125 -2.47125,-0.1925 c -2.02375,-0.009 -4.0475,-0.0687 -6.0575,-0.0362 1.73,-0.3075 3.4925,-0.6025 5.31375,-0.855 4.55625,-0.705 9.39625,-1.105 14.3925,-1.34125 5.00375,-0.20625 10.1624999,0.05 15.35749992,0.59875 5.16499998,0.63375 10.40999998,1.84875 15.32625008,3.48 2.51875,0.965 5.12625,1.84625 7.42375,3.015 1.1725,0.58 2.39,1.03375 3.52,1.70875 1.1425,0.6425 2.28125,1.28375 3.41625,1.92125 1.16875,0.59 2.1625,1.42125 3.2475,2.11125 l 1.5925,1.07625 c 0.2475,0.17 0.57,0.3775 0.75375,0.51625 l 0.76625,0.6125 c 1.9525,1.575 3.6375,3.3125 5.13,5.24125 2.94375,3.83375 4.94125,8.2 5.70875,12.55 0.38375,2.1725 0.4925,4.33625 0.275,6.40125 -0.1075,0.9325 -0.26,2.16875 -0.50125,3.05 -0.18625,0.95375 -0.52,1.89875 -0.8075,2.8225 -0.6775,1.81875 -1.52875,3.48125 -2.45875,4.99375 -0.98125,1.48375 -1.98125,2.82875 -3.12,3.98125 -2.2175,2.3275 -4.43875,4.11 -6.34625,5.4175 -0.085,0.0612 -0.16625,0.11375 -0.25,0.17 0.8475,-1.31375 1.34375,-2.87625 1.34375,-4.55625 0,-4.66125 -3.7775,-8.4375 -8.4375,-8.4375 -4.65875,0 -8.4375,3.77625 -8.4375,8.4375 0,4.66 3.77875,8.4375 8.4375,8.4375 0.34125,0 0.67375,-0.0275 1.00375,-0.0663 l 10e-4,0.009 c 0,0 0.12,-0.0213 0.295,-0.0537 0.22375,-0.0337 0.445,-0.0763 0.6625,-0.1275 0.2925,-0.0588 0.62625,-0.1275 1.04875,-0.21875 0.60625,-0.2375 1.39625,-0.47 2.25625,-0.86375 0.84375,-0.4175 1.83625,-0.8775 2.84375,-1.54125 2.05625,-1.2675 4.43625,-2.99 6.8875,-5.32375 1.23875,-1.135 2.42125,-2.55875 3.5525,-4.10625 1.0925,-1.58625 2.04875,-3.3825 2.85375,-5.34375 0.34875,-1.0025 0.7375,-2.00375 0.9925,-3.1175 0.1525,-0.5525 0.2875,-1.10125 0.36625,-1.62 0.0875,-0.56 0.21,-0.9925 0.27125,-1.67 0.30875,-2.28125 0.2625,-4.68375 -0.09,-7.09875 -0.71,-4.83375 -2.73875,-9.72125 -5.93125,-13.96125 -1.5725,-2.11 -3.475,-4.125 -5.56125,-5.85625 l -0.7575,-0.62375 c -0.33125,-0.2625 -0.565,-0.405 -0.85375,-0.61375 l -1.66,-1.16125 -1.675,-1.16 -0.8425,-0.57875 -0.88625,-0.50375 c -1.1825,-0.67375 -2.37125,-1.35 -3.5625,-2.02875 -1.1725,-0.705 -2.4825,-1.21375 -3.72375,-1.83 -2.515,-1.275 -5.04375,-2.135 -7.57,-3.12 -5.3575,-1.76625 -10.7075001,-2.945 -16.12250008,-3.595 -5.39625002,-0.57125 -10.73874992,-0.69 -15.87249992,-0.4175 -5.13,0.30125 -10.0675,0.85375 -14.68375,1.6875 -4.6325,0.75125 -8.94375,1.7725 -12.90625,2.74125 -1.97,0.5275 -3.85875,1.0325 -5.655,1.51375 -1.77874,0.53125 -3.46624,1.03625 -5.05124,1.51125 -3.15375,0.99875 -5.89875,1.8775 -8.14375,2.64875 -1.94875,0.63875 -3.48375,1.20625 -4.645,1.62375 1.365,-1.485 2.6575,-3.0525 3.81875,-4.72 2.2,-1.8325 4.77875,-3.6975 7.71125,-5.5075 6.32874,-3.9275 14.26874,-7.56875 23.17749,-10.10625 1.11,-0.28625 2.2625,-0.64125 3.36,-0.87875 0.58375,-0.1325 1.185,-0.28625 1.7575,-0.40375 l 1.69875,-0.31875 c 2.31,-0.39 4.70375,-0.69875 7.13,-0.855 4.85625,-0.35125 9.8624999,-0.25875 14.9074999,-0.15375 2.53625002,0.0512 5.0725,0.1025 7.59875,0.1525 2.5325,0.0375 5.1025,0.004 7.5575001,-0.0125 4.9725,-0.0125 10.07875,-0.0863 14.95,-1.41875 2.4225,-0.67125 4.775,-1.7075 6.7775,-3.20875 1,-0.7475 1.9,-1.61125 2.6825,-2.545 l 0.2875,-0.35375 0.17,-0.21125 0.12125,-0.16875 c 0.16375,-0.2325 0.31625,-0.4275 0.495,-0.7225 0.355,-0.55375 0.63875,-1.07 0.885,-1.63 2.04,-4.45125 1.1375,-9.53625 -1.4375,-12.76625 -2.55125,-3.3475 -6.61,-4.61 -9.79125,-4.395 -3.26875,0.17 -5.955,1.58125 -7.52125,3.3 -0.32125,0.3475 -0.585,0.7 -0.82125,1.0525 -0.8325,1.0025 -1.3825,2.255 -1.4975,3.65125 -0.0462,0.55625 -0.001,1.095 0.0863,1.6225 0.0113,0.2 0.0188,0.33125 0.0188,0.33125 l 0.0537,-0.004 c 0.6025,2.7525 2.91,4.9225 5.86375,5.16875 3.62875,0.30375 6.815,-2.39375 7.11625,-6.02375 0.3025,-3.62625 -2.3925,-6.815 -6.02,-7.11875 -0.33625,-0.0275 -0.66125,-0.004 -0.98625,0.0175 1.1175,-0.40875 2.38,-0.65875 3.74,-0.65125 0.75,0.009 1.43375,0.075 2.23625,0.245 0.7225,0.16625 1.48875,0.41625 2.2025,0.76 1.4425,0.68125 2.76125,1.78125 3.73875,3.2075 1.95375,2.8275 2.505,7.03375 0.69875,10.49875 -0.2075,0.42875 -0.48,0.8625 -0.73375,1.22375 -0.10875,0.17625 -0.30625,0.4125 -0.47125,0.62625 l -0.12875,0.16375 c 0.0125,-0.0213 -0.0688,0.075 -0.1,0.1075 l -0.25375,0.2825 c -0.685,0.74875 -1.46125,1.41875 -2.3125,2.01 -1.7,1.185 -3.71875,2.00625 -5.88375,2.52875 -4.35625,1.06125 -9.17625,0.94625 -14.1425,0.86875 -5.0075001,-0.0288 -9.9600001,-0.23625 -15.0537501,-0.47375 -5.0725,-0.21875 -10.2049999,-0.3275 -15.2987499,-0.0275 -5.09375,0.2975 -10.1575,1.08625 -14.83375,2.50625 -9.3675,2.6775 -17.47749,7.05375 -23.68624,11.6725 -0.835,0.6175 -1.6325,1.235 -2.405,1.85375 0.12875,-0.245 0.2575,-0.49125 0.39,-0.73375 0.45625,-0.83375 0.75125,-1.74125 1.12375,-2.60625 0.34125,-0.87875 0.74375,-1.7325 1.0275,-2.62375 0.27375,-0.8925 0.54875,-1.7825 0.82125,-2.6675 0.27125,-0.885 0.565,-1.7575 0.7225,-2.66 0.1875,-0.8925 0.375,-1.78 0.56125,-2.6625 l 0.27625,-1.31375 0.175,-1.32125 c 0.18875,-1.75875 0.51125,-3.47125 0.575,-5.1675 0.0763,-1.69375 0.1525,-3.35 0.225,-4.9625 -0.10875,-3.22375 -0.0863,-6.26625 -0.43875,-9.05375 -0.14,-1.395 -0.24375,-2.73375 -0.395,-4 -0.20125,-1.26 -0.3925,-2.455 -0.57125,-3.5775 -0.17875,-1.12125 -0.3475,-2.17125 -0.5025,-3.14125 -0.20875,-0.96 -0.40125,-1.8425 -0.575,-2.63875 -0.70375,-3.18 -1.105,-4.99875 -1.105,-4.99875 0,0 0.3175,1.83375 0.87125,5.0425 0.1375,0.80125 0.2875,1.6875 0.4525,2.65375 0.11,0.97375 0.2275,2.02625 0.355,3.1525 0.1275,1.12375 0.26125,2.31875 0.4025,3.57875 0.0925,1.265 0.135,2.59875 0.2075,3.985 0.22625,2.77375 0.0587,5.78375 0.002,8.955 -0.15125,1.57625 -0.3075,3.19625 -0.4675,4.8525 -0.145,1.655 -0.5475,3.31 -0.815,5.00875 l -0.23375,1.27375 -0.33375,1.26 c -0.2225,0.8425 -0.4475,1.69 -0.6725,2.545 -0.19625,0.86125 -0.5075,1.69125 -0.805,2.53125 -0.295,0.8375 -0.5925,1.68 -0.89125,2.52625 -0.69,1.6525 -1.4425,3.29625 -2.23125,4.91875 -0.89875,1.5675 -1.665,3.22 -2.73625,4.68625 -0.5125,0.7475 -0.99,1.5175 -1.525,2.24625 l -1.6825,2.12375 c -0.0838,0.11625 -0.18125,0.22 -0.27125,0.3325 -0.665,0.72625 -1.295,1.43625 -1.85875,2.10375 -0.485,0.5275 -0.9575,1.06625 -1.48125,1.55125 -2.5575,2.49125 -5.345,4.6575 -8.18875,6.5425 -2.895,1.805 -5.79375,3.405 -8.66875,4.6775 -2.87,1.2775 -5.66125,2.33375 -8.3,3.1225 -3.5525,1.095 -6.764999,1.83375 -9.464999,2.34 -3.15,0.32375 -6.26125,0.6575 -9.305,0.9825 -5.9375,0.62125 -11.69375,1.18125 -17.11625,1.4325 -5.475,0.25375 -10.6125,0.2625 -15.38625,0.0987 -2.96125,-0.105 -5.74875,-0.255 -8.37625,-0.4425 0.54625,-0.007 1.09375,-0.02 1.625,-0.0487 0.34375,-0.02 0.6775,-0.0562 1.0125,-0.0875 0.81,0.0675 1.81,0.1425 3.00875,0.21875 1.69625,0.1125 3.75,0.22 6.11375,0.285 2.3625,0.0975 5.03125,0.10125 7.945,0.0412 2.9125,-0.11625 6.07375,-0.2675 9.39625,-0.71125 3.32125,-0.43375 6.81375,-1.0525 10.3575,-2.0225 3.53375,-0.995 7.14875,-2.24625 10.62875,-3.99375 l 1.305,-0.66 0.3275,-0.16625 0.0813,-0.0412 0.11375,-0.0675 0.15375,-0.0913 0.615,-0.3675 c 0.8225,-0.485 1.6475,-0.9675 2.475,-1.575 l 1.247499,-0.86125 c 0.4025,-0.2975 0.78375,-0.61375 1.17625,-0.9225 l 1.1725,-0.9325 1.1075,-1.00875 c 2.94625,-2.7 5.54,-5.83125 7.52375,-9.2975 1.9825,-3.455 3.43125,-7.225 4.00875,-11.07125 0.5975,-3.84125 0.3325,-7.71 -0.64875,-11.16 l -0.1725,-0.6475 -0.0862,-0.3225 -0.0438,-0.16 -0.02,-0.08 -0.0525,-0.155 c -0.14375,-0.3825 -0.285,-0.7625 -0.425,-1.14 -0.34625,-0.82125 -0.7775,-1.715 -1.22875,-2.42625 -0.8975,-1.4875 -1.99,-2.815 -3.2875,-3.8375 -1.2475,-1.0425 -2.715,-1.8375 -4.10375,-2.24375 -1.43125,-0.44375 -2.90625,-0.58 -4.1825,-0.46 -2.624999,0.21 -4.638749,1.4825 -5.789999,2.82 -1.17375,1.36 -1.5375,2.73875 -1.69375,3.625 -0.11,0.44375 -0.0937,0.80125 -0.13,1.03125 -0.0225,0.23375 -0.0337,0.35375 -0.0337,0.35375 0,0 0.0263,-0.1175 0.075,-0.3475 0.065,-0.225 0.0888,-0.575 0.24875,-0.99625 0.255,-0.84625 0.82875,-2.09875 2.0525,-3.15125 1.19375,-1.0525 3.13,-1.81125 5.253749,-1.48875 1.0725,0.14625 2.09625,0.51125 3.09625,1.09125 l 0.43,0.25625 0.2175,0.13 c -0.0738,-0.02 0.08,0.075 0.1075,0.10625 0.2325,0.18 0.46625,0.36125 0.70375,0.545 0.235,0.18375 0.4375,0.425 0.66,0.63375 0.22875,0.20125 0.445,0.42375 0.64125,0.6775 0.84125,0.9375 1.57125,2.06 2.2325,3.27 0.36375,0.62375 0.57125,1.1875 0.87625,1.84 0.13875,0.3775 0.28,0.75875 0.4225,1.1425 0.0875,0.33875 0.175,0.67875 0.265,1.0225 0.80375,2.9325 1.075,6.185 0.65125,9.515 -0.4225,3.32625 -1.4675,6.73625 -3.13,9.945 -1.66,3.205 -3.83875,6.2525 -6.42875,8.92875 l -0.975,1.00375 -1.04,0.935 c -0.684999,0.64375 -1.396249,1.225 -2.128749,1.77 -0.69375,0.57 -1.505,1.09625 -2.31,1.61875 l -0.6,0.39375 -0.15,0.0987 c -0.009,0.006 -0.085,0.055 -0.0375,0.0275 l -0.0775,0.0425 -0.30375,0.17 -1.21625,0.68375 c -3.24875,1.79 -6.6575,3.21625 -10.07375,4.24375 -3.42375,1.01 -6.82625,1.68125 -10.075,2.17125 -3.25,0.49875 -6.3625,0.70875 -9.23375,0.88 -2.87375,0.11625 -5.51625,0.16375 -7.85875,0.11375 -1.36625,-0.0188 -2.6175,-0.07 -3.7675,-0.12875 3.44625,-0.8025 6.75375,-1.9175 9.90625,-3.21875 l 0.7575,-0.31375 0.7725,-0.34875 c 0.4825,-0.21125 0.97125,-0.44 1.49125,-0.71875 1.0375,-0.52625 1.97625,-1.08125 2.91625,-1.6725 1.8725,-1.18125 3.6325,-2.49875 5.25875,-3.95125 3.225,-2.915 6.0325,-6.31625 7.81125,-10.325 0.23875,-0.49125 0.44125,-1 0.62375,-1.52125 0.19125,-0.51375 0.385,-1.02625 0.51875,-1.56625 l 0.2175,-0.8 c 0.0425,-0.16125 0.0625,-0.20375 0.11875,-0.46125 l 0.0662,-0.35875 c 0.0888,-0.465 0.17875,-0.9425 0.24875,-1.52625 0.28375,-2.1775 0.32,-4.24875 0.0688,-6.34 -0.26875,-2.0725 -0.79625,-4.1025 -1.61,-6.00875 -0.825,-1.90125 -1.97,-3.6575 -3.3625,-5.1525 -0.3825,-0.38 -0.67625,-0.6775 -1.1375,-1.1075 -0.36375,-0.2925 -0.6225,-0.54125 -1.085,-0.87375 -0.8575,-0.66375 -1.64875,-1.125 -2.5075,-1.5975 -1.695,-0.91375 -3.4925,-1.51375 -5.29125,-1.89625 -1.80125,-0.37625 -3.6275,-0.505 -5.4125,-0.34125 -0.89125,0.0788 -1.77375,0.215 -2.63125,0.44875 l -0.32125,0.0813 c 0.006,-0.004 -0.18875,0.0487 -0.21875,0.0625 l -0.14125,0.0487 -0.56125,0.19375 c -0.39375,0.15 -0.89,0.36 -1.28375,0.565 -3.2275,1.6875 -5.1975,4.77625 -5.98125,7.79 -0.81375,3.03375 -0.59125,6.18125 0.47125,8.845 1.04375,2.64375 2.99125,4.9575 5.565,5.895 2.53,0.91375 5.15625,0.5975 7.25375,-0.38875 2.1175,-0.9725 3.715,-2.87375 4.115,-4.94 0.2225,-1.03625 0.195,-2.055 -0.0137,-2.9975 -0.025,-0.125 -0.0663,-0.2425 -0.0988,-0.36375 -0.0425,-0.15625 -0.0887,-0.31125 -0.1425,-0.46125 -0.0962,-0.28375 -0.21125,-0.55375 -0.345,-0.81625 -0.0775,-0.155 -0.15875,-0.30625 -0.245,-0.4525 -0.0575,-0.0925 -0.1075,-0.18625 -0.16875,-0.275 -0.02,-0.03 -0.0375,-0.0625 -0.0563,-0.0913 -0.6125,-0.9475 -1.51875,-1.6425 -2.48125,-2.01625 -0.7825,-0.35625 -1.6475,-0.5675 -2.565,-0.5675 -3.435,0 -6.22125,2.785 -6.22125,6.22 0,2.99625 2.12,5.49625 4.94,6.08625 -1.12,0.08 -2.28375,-0.065 -3.3675,-0.5 -1.975,-0.785 -3.54875,-2.72 -4.3675,-5.01375 -0.83375,-2.29875 -0.94375,-4.9925 -0.10375,-7.52875 0.7725,-2.5275 2.56625,-4.8375 5.03375,-5.89 0.3125,-0.1275 0.54875,-0.21375 0.8975,-0.32625 l 0.575,-0.1475 0.14375,-0.0375 c 0.065,-0.0188 -0.0337,0.0125 0.07,-0.009 l 0.2625,-0.0412 c 0.695,-0.12875 1.4175,-0.17875 2.14375,-0.18 1.4525,-0.0112 2.94,0.2225 4.3875,0.6575 1.4475,0.435 2.8625,1.0625 4.16125,1.8775 0.63,0.40375 1.31125,0.88125 1.81125,1.335 0.24625,0.18625 0.60875,0.565 0.915,0.85 l 0.71,0.80625 c 1.8925,2.3775 3.02,5.48 3.33375,8.80125 0.17,1.645 0.12375,3.41 -0.10875,5.04875 -0.0425,0.375 -0.1325,0.84625 -0.23125,1.3325 l -0.07,0.35625 c 10e-4,-0.02 -0.045,0.16875 -0.0637,0.24375 l -0.15625,0.6125 c -0.0863,0.41125 -0.235,0.81625 -0.3775,1.22375 -0.13125,0.41 -0.2825,0.81875 -0.47125,1.21875 -1.38125,3.24375 -3.62,6.35125 -6.29625,9.1675 -1.33375,1.42125 -2.81375,2.74625 -4.405,3.9575 -0.79,0.60125 -1.62875,1.19875 -2.44625,1.7075 -0.39375,0.265 -0.8475,0.52875 -1.32375,0.7925 l -0.65875,0.3725 -0.69875,0.3675 c -3.74125,1.91375 -7.67125,3.7125 -11.89125,4.66 -1.04875,0.2325 -2.125,0.42 -3.17,0.54875 -1.12,0.12625 -2.19125,0.1225 -3.32875,0.1675 -2.23875,0.10875 -4.5025,0.0675 -6.78,0.0125 -4.55375,-0.215 -9.17375,-0.6175 -13.8125,-1.35375 -9.2575,-1.47875 -18.62375,-4.0675 -27.73,-7.7425 -9.1225,-3.66375 -18.03624,-8.3325 -26.68374,-13.75875 -13.40625,-8.3325 -25.95375,-18.675 -38.185,-29.79 1.7475,1.25375 3.5325,2.53625 5.435,3.7625 2.19375,1.43875 4.40625,2.985 6.7725,4.40125 2.35125,1.4375 4.71375,2.97625 7.22875,4.3525 2.48875,1.38875 4.98625,2.9325 7.73625,4.20375 2.7975,1.305 5.6375,2.36 8.59,3.25625 5.88625,1.79625 12.07,2.8075 18.29124,3.17875 6.22,0.36 12.515,0.0625 18.59125,-1.18875 6.0625,-1.23625 11.9575,-3.3475 17.03,-6.65 2.535,-1.64 4.85375,-3.56 6.855,-5.71125 1.02625,-1.0825 1.87375,-2.1825 2.78625,-3.41625 0.71,-1.04375 1.53875,-2.405 2.15125,-3.60375 2.555,-4.925 3.875,-10.01875 4.2575,-14.80125 0.39,-4.77625 -0.25375,-9.29375 -1.79875,-12.95 -0.7825,-1.81875 -1.75125,-3.43 -2.86625,-4.73375 -1.13,-1.29375 -2.33625,-2.30375 -3.5025,-3.07125 -1.17625,-0.75625 -2.31,-1.26375 -3.3075,-1.62375 -0.50875,-0.1625 -0.9675,-0.32875 -1.39875,-0.4475 -0.27875,-0.0613 -0.51625,-0.1125 -0.7625,-0.16625 -1.01375,-0.3175 -2.0925,-0.48875 -3.21,-0.48875 -5.9325,0 -10.74375,4.81 -10.74375,10.7425 0,5.93375 4.81125,10.74375 10.74375,10.74375 5.9325,0 10.7425,-4.81 10.7425,-10.74375 0,-1.65625 -0.385,-3.21875 -1.055,-4.61875 1.11,1.45875 2.0825,3.25 2.69125,5.38 0.99625,3.2975 1.1925,7.29125 0.59375,11.55375 -0.29125,2.1325 -0.81,4.33375 -1.545,6.5375 -0.71375,2.20625 -1.60625,4.4475 -2.78875,6.58375 -0.60875,1.10625 -1.16875,1.9975 -1.9825,3.15125 -0.69375,0.90625 -1.48875,1.9625 -2.355,2.86125 -1.72875,1.85375 -3.74625,3.5275 -5.9875,4.97375 -4.47875,2.91625 -9.8425,4.85625 -15.4625,5.995 -5.63,1.14625 -11.54875,1.54625 -17.43875,1.2475 -5.89249,-0.2725 -11.76374,-1.23125 -17.34374,-2.7925 -2.77875,-0.77875 -5.52375,-1.74125 -8.05625,-2.8575 -2.595,-1.12875 -5.0575,-2.58 -7.56125,-3.91 -4.945,-2.72125 -9.6775,-5.45625 -14.0525,-8.22625 -2.22125,-1.335 -4.3025,-2.7525 -6.3275,-4.10875 -1.01875,-0.67125 -2.01875,-1.33125 -3,-1.9775 -0.97375,-0.6625 -1.90125,-1.34625 -2.82375,-1.99875 -1.82875,-1.32875 -3.635,-2.53625 -5.2575,-3.805 -1.6275,-1.26625 -3.17,-2.46625 -4.6225,-3.595 -2.60125,-2.05625 -4.75,-3.99625 -6.6475,-5.59125 -0.39375,-0.3775 -0.78625,-0.75125 -1.18125,-1.1275 -3.95125,-3.74875 -7.87625,-7.575 -12.05875,-11.21 -5.22875,-4.5375 -10.75,-8.805 -16.58375,-12.6175 1.9425,0.595 3.92875,1.1975 6.01375,1.7575 1.53,0.4175 3.09125,0.845 4.6825,1.27875 1.60125,0.40125 3.23,0.81 4.8875,1.225 3.32125,0.83625 6.76125,1.61875 10.35,2.3325 7.14625,1.42375 14.7475,2.6875 22.70375,3.46875 7.9525,0.81125 16.26375,1.14125 24.7675,0.67375 4.25125,-0.275 8.53875,-0.785 12.83875,-1.55125 4.295,-0.80625 8.56875,-1.9975 12.76625,-3.545 4.21,-1.5175 8.25499,-3.665 12.01999,-6.24625 3.74,-2.60625 7.26625,-5.68 10.02875,-9.3625 2.79875,-3.6375 5.03,-7.65 6.655,-11.805 0.3775,-1.045 0.6775,-2.11 1.0125,-3.16 0.1625,-0.52625 0.33375,-1.05 0.465,-1.58 l 0.32,-1.6 0.31125,-1.59375 0.14125,-0.795 0.07,-0.3975 0.035,-0.1975 c 0.001,-0.006 0.05,-0.30625 0.035,-0.22375 l 0.009,-0.0925 c 0.10375,-0.98875 0.1975,-1.975 0.2725,-2.96125 0.045,-1.085 0.0788,-2.185 0.08,-3.26375 -0.007,-1.07125 -0.0925,-2.09 -0.13875,-3.12375 -0.0275,-1.0275 -0.18625,-2.04375 -0.30625,-3.05125 -0.1075,-1.0075 -0.285,-2.0025 -0.4775,-2.985 -0.725,-3.93375 -1.79375,-7.67875 -3.165,-11.1725 -1.375,-3.4875 -2.88375,-6.7825 -4.7075,-9.76875 -1.86125,-2.954996 -3.83125,-5.714996 -6.15875,-8.003746 -2.325,-2.2425 -4.885,-4.2075 -7.44125,-5.59375 -2.65625,-1.4525 -5.27374,-2.51125 -7.84999,-3.27375 -5.145,-1.53625 -9.99375,-1.8075 -14,-1.4175 -2.015,0.14875 -3.81,0.54375 -5.37,0.94875 -1.55625,0.425 -2.88625,0.86875 -3.9275,1.335 -0.49125,0.17625 -0.91,0.3625 -1.28125,0.54 -5.02125,1.87375 -8.605,6.7 -8.605,12.375 0,7.301246 5.9175,13.219996 13.21875,13.219996 7.30125,0 13.22,-5.91875 13.22,-13.219996 0,-4.27125 -2.03625,-8.06 -5.18125,-10.47625 3.05,-0.79375 6.91625,-1.10875 11.2125,-0.32625 2.40375,0.42625 4.96499,1.19375 7.42624,2.36375 0.62625,0.3225 1.26,0.65 1.9025,0.98125 0.595,0.38375 1.19625,0.77375 1.805,1.1675 0.63,0.3675 1.1925,0.84375 1.76375,1.3225 0.56125,0.4875 1.1875,0.91875 1.7025,1.485 2.2,2.11625 4.10875,4.72375 5.65375,7.642496 1.54375,2.92875 2.59125,6.23 3.2675,9.66125 0.69375,3.43375 0.85,7.05375 0.7475,10.67375 -0.0188,0.90625 -0.0525,1.8125 -0.15375,2.72375 -0.105,0.90875 -0.1075,1.8175 -0.255,2.725 -0.12875,0.9 -0.21625,1.83 -0.37375,2.705 -0.18,0.86625 -0.3175,1.7225 -0.46625,2.5975 -0.22375,0.9625 -0.43,1.9325 -0.6275,2.90625 l -0.3575,1.2075 -0.36,1.3275 -0.35375,1.33125 -0.45375,1.29375 c -0.30375,0.86125 -0.57375,1.74 -0.89875,2.59375 -1.32875,3.40625 -3.1175,6.6275 -5.35,9.5625 -4.49625,5.8575 -10.92624,10.3275 -18.16124,13.40375 -3.62375,1.54 -7.43875,2.725 -11.32,3.7275 -3.90375,0.94125 -7.8775,1.6325 -11.86625,2.16125 -7.99125,0.98625 -16.0175,1.2225 -23.79125,0.95625 -3.88625,-0.13375 -7.71375,-0.3825 -11.4525,-0.7425 -3.7425,-0.33375 -7.39625,-0.7875 -10.93875,-1.325 -7.06125,-1.04625 -13.77375,-2.39625 -19.85625,-3.86875 -3.06,-0.69375 -5.955,-1.50125 -8.725,-2.215 -2.405,-0.71375 -4.72,-1.3275 -6.8875,-2.01 -0.62375,-0.33625 -1.24,-0.68375 -1.87,-1.0075 -4.95625,-2.55625 -10.08125,-4.73375 -15.415,-6.465 -5.245,-1.715 -10.76375,-2.965 -16.2525,-3.66875 -11.025,-1.4325 -22.11625,-0.97875 -32.9175,0.335 -1.155,0.14125 -2.305,0.2975 -3.45375,0.45875 1.12375,-0.32375 2.27375,-0.66 3.45625,-1.01 0.27625,-0.0388 0.54375,-0.0763 0.82375,-0.115 1.8925,-0.18125 3.8475,-0.36875 5.8575,-0.56125 4.0125,-0.29 8.33625,-0.57875 12.67625,-0.58875 4.4525,0.015 9.06875,-0.0787 13.68125,0.1725 4.6675,0.15 9.41,0.30375 14.1525,0.455 2.38,0.075 4.79625,-0.0187 7.18375,-0.02 2.38375,-0.0225 4.7925,-0.0138 7.1175,-0.19375 4.73,-0.3125 9.3725,-0.7325 13.84625,-1.54125 4.46375,-0.81875 8.76375,-1.88125 12.6775,-3.4375 3.905,-1.5525 7.4575,-3.4775 10.3525,-5.7875 2.85125,-2.29 5.05625,-5.02875 6.66375,-7.465 0.3925,-0.62625 0.77125,-1.23375 1.13625,-1.81875 0.355,-0.59 0.63375,-1.1975 0.93625,-1.75875 0.6225,-1.1125 1.02625,-2.2175 1.4225,-3.19375 0.43125,-0.96 0.63875,-1.89125 0.87875,-2.66875 0.1075,-0.39375 0.225,-0.7525 0.3,-1.09 0.0562,-0.34125 0.1075,-0.6525 0.15375,-0.93 0.18,-1.10375 0.27625,-1.69375 0.27625,-1.69375 l -0.0875,-0.0137 c 0,0 -0.17375,0.5675 -0.49625,1.63125 -0.0813,0.26375 -0.17125,0.55875 -0.27,0.8825 -0.115,0.31875 -0.27875,0.65625 -0.43375,1.025 -0.33625,0.7275 -0.61875,1.59875 -1.14875,2.4875 -0.4875,0.905 -1.00375,1.91125 -1.7075,2.93 -0.34125,0.5125 -0.65875,1.0675 -1.055,1.60125 -0.40125,0.5275 -0.8175,1.075 -1.24875,1.63875 -1.82375,2.2025 -3.88875,4.50625 -6.76625,6.48 -2.8375,1.9275 -6.21,3.575 -9.97125,4.8175 -3.7475,1.275 -7.86875,2.17625 -12.19,2.7925 -4.315,0.64375 -8.85375,1.02 -13.4575,1.23 -2.3425,0.12375 -4.6475,0.12 -6.995,0.1425 -2.3425,0 -4.6775,0.0925 -7.04375,0.0162 -4.7525,-0.1275 -9.505,-0.255 -14.18375,-0.38 -4.7325,-0.17625 -9.31875,-0.0525 -13.7725,0.0438 -1.61875,0.05 -3.18875,0.14125 -4.7375,0.2475 6.4025,-2.1825 13.25125,-4.68 20.3175,-7.5225 5.6175,-2.22875 11.34625,-4.72625 17.11375,-7.39625 5.76375,-2.67875 11.57375,-5.52 17.2375,-8.655 5.675,-3.11375 11.25375,-6.4225 16.60875,-9.92 5.35875,-3.49125 10.4125,-7.28875 15.13125,-11.18625 4.71125,-3.912496 8.97375,-8.069996 12.73875,-12.278746 3.73375,-4.24125 6.875,-8.61375 9.39875,-12.87875 2.475,-4.29625 4.31625,-8.48625 5.52,-12.3325 1.2225,-3.8425 1.82625,-7.31875 2.07625,-10.1825 0.06,-0.71625 0.11625,-1.3925 0.16875,-2.03 0.03,-0.63875 0.0263,-1.23875 0.0362,-1.795 0.0125,-1.11375 0.0125,-2.05625 -0.0663,-2.82125 -0.1025,-1.5225 -0.1575,-2.33375 -0.1575,-2.33375 l -1.25,0.04 c 0,0 -0.0588,0.79 -0.1675,2.27 -0.0312,0.73875 -0.155,1.64375 -0.3175,2.70125 -0.0788,0.53 -0.13625,1.09875 -0.2375,1.70125 -0.12125,0.59875 -0.25,1.235 -0.38625,1.9075 -0.5825,2.67125 -1.43,5.8875 -2.93125,9.37 -1.46125,3.49125 -3.4375,7.29 -6.07125,11.135 -2.57375,3.8825 -5.79625,7.8025 -9.49875,11.68375 -3.68625,3.90125 -7.95125,7.6675 -12.52125,11.38125 -9.1625,7.408746 -19.80375,14.318746 -30.87125,20.504996 -5.545,3.075 -11.16875,6.03375 -16.7925,8.78125 -5.62,2.755 -11.23875,5.3025 -16.69375,7.7325 -5.4625,2.41625 -10.80875,4.61125 -15.89375,6.66125 -5.0825,2.05625 -9.925,3.92 -14.41875,5.57875 -1.8375,0.6975 -3.59875,1.3525 -5.3125,1.98125 -0.83125,0.1525 -1.65375,0.30375 -2.45625,0.45125 -3.5225,0.79 -6.73125,1.59125 -9.515,2.52875 -1.4025,0.42125 -2.705,0.85125 -3.88625,1.35625 -1.185,0.47125 -2.27375,0.905 -3.25625,1.29625 -1.9275,0.8275 -3.34125,1.63125 -4.3525,2.1075 -0.3,0.14875 -0.54125,0.27 -0.755,0.37625 -1.54625,0.425 -3.085,0.8725 -4.60375,1.3625 0.30125,-0.16125 0.5975,-0.32 0.90875,-0.48625 2.03625,-1.12 4.2925,-2.36125 6.74875,-3.71125 2.435,-1.38875 5.0675,-2.89 7.88125,-4.49375 5.6175,-3.22875 11.90625,-6.965 18.6075,-11.305 6.6825,-4.36875 13.76625,-9.3475 21.01375,-14.96625 7.2225,-5.64375 14.53875,-12.03875 21.42,-19.37375 1.67875,-1.87375 3.3725,-3.76125 5.0775,-5.663746 1.64375,-1.9575 3.21375,-4.0025 4.87625,-5.99625 0.11875,-0.15125 0.17,-0.19375 0.34625,-0.4325 l 0.28125,-0.39 0.565,-0.77875 1.13375,-1.56375 c 0.75875,-1.035 1.445,-2.27125 2.1725,-3.41 1.395,-2.33 2.66,-4.70625 3.74125,-7.215 4.45125,-9.94375 6.37,-21.4 5.1275,-32.64875 -0.63625,-5.615 -2.01,-11.165 -4.11875,-16.40625 l -0.38375,-0.98625 -0.1925,-0.49375 -0.0487,-0.12375 -0.12125,-0.265 -0.105,-0.22375 -0.8475,-1.79 c -0.71875,-1.30375 -1.5275,-2.785 -2.3475,-3.9375 -1.6275,-2.45375 -3.4775,-4.72125 -5.5275,-6.74375 -2.03625,-2.0375 -4.2325,-3.87625 -6.5575,-5.4924998 -2.3,-1.65375 -4.76,-3.0375 -7.2875,-4.2275 -1.25,-0.6225 -2.55375,-1.12625 -3.84,-1.645 -1.32125,-0.44125 -2.6175,-0.92625 -3.9675,-1.255 -2.66,-0.74875 -5.3925,-1.225 -8.135,-1.41874996 -2.735,-0.2275 -5.4975,-0.11375 -8.19375,0.29874996 -2.7,0.38 -5.34125,1.15 -7.80125,2.24 -4.9775,2.10375 -9.07375,5.705 -12.00125,9.7249998 -1.40375,2.05625 -2.64625,4.16375 -3.56375,6.34625 -0.23125,0.54375 -0.4625,1.085 -0.69125,1.625 l -0.0875,0.20125 -0.0763,0.19875 -0.0325,0.0987 -0.1275,0.39 -0.255,0.78125 c -0.32875,1.09875 -0.66875,2.43 -0.825,3.53 -0.7475,4.59625 -0.46625,9.08875 0.68,13.2425 1.15625,4.11375 3.405,8.01 6.84375,10.37125 0.3975,0.3275 0.8525,0.565 1.305,0.7975 0.4775,0.23625 0.835,0.47375 1.40125,0.695 0.43625,0.15 0.78125,0.31125 1.28125,0.45 0.4975,0.125 1.0075,0.295 1.48375,0.36375 1.9025,0.35625 3.8075,0.29 5.5525,-0.0825 3.50875,-0.76125 6.36375,-2.6025 8.4625,-4.715 2.1125,-2.12125 3.5325,-4.5375 4.31875,-6.8875 0.7825,-2.35625 0.92625,-4.63625 0.60625,-6.545 -0.225,-1.45625 -0.68375,-2.68 -1.18375,-3.67875 -1.28125,-3.46375 -4.605,-5.93875 -8.51375,-5.93875 -5.01625,0 -9.085,4.0675 -9.085,9.085 0,5.0175 4.06875,9.085 9.085,9.085 3.27125,0 6.13,-1.735 7.73,-4.32875 -0.13375,0.54125 -0.3,1.09 -0.51625,1.645 -0.79,2.01625 -2.1525,4.08125 -4.09,5.835 -1.92,1.75375 -4.47125,3.1775 -7.33875,3.64125 -1.42875,0.22875 -2.92625,0.1975 -4.38875,-0.15625 -0.37375,-0.07 -0.67875,-0.20875 -1.02625,-0.3 -0.33625,-0.1 -0.785,-0.325 -1.17875,-0.4825 -0.25125,-0.1125 -0.6375,-0.37625 -0.95375,-0.55375 -0.33625,-0.1925 -0.67625,-0.38375 -0.96375,-0.65875 -2.50625,-1.90875 -4.19,-5.075 -4.99625,-8.63125 -0.79625,-3.5625 -0.84,-7.55375 0,-11.39375 0.21,-1.01625 0.445,-1.77875 0.78625,-2.7525 l 0.30625,-0.76125 0.1525,-0.38125 0.0387,-0.0962 c 0.0213,-0.055 -0.0462,0.12625 0,0.01 l 0.0875,-0.1725 0.70375,-1.37875 c 0.9225,-1.85375 2.10875,-3.56 3.38125,-5.19375 2.66875,-3.14375 6.04375,-5.7625 10.05125,-7.0824998 1.98125,-0.69375 4.08125,-1.1325 6.24375,-1.255 2.15625,-0.15125 4.36375,-0.0738 6.57125,0.29625 8.83375,1.37625 17.55625,6.1862498 24.0625,12.9262498 1.63625,1.68 3.13125,3.49125 4.395,5.435 0.69875,0.9975 1.13125,1.85 1.70375,2.8425 l 0.87375,1.7775 0.11125,0.22125 c 0,-0.006 0,0.005 0.0125,0.0138 l 0.02,0.0512 0.17875,0.42625 0.355,0.85125 c 1.9025,4.5425 3.39375,9.29375 4.335,14.1775 0.96875,4.875 1.41,9.89 1.21625,14.8975 -0.20875,5.0025 -1.045,10.0025 -2.5975,14.77 -0.7825,2.37375 -1.75375,4.7125 -2.8475,6.92 -0.60875,1.0775 -1.09875,2.1525 -1.8,3.24 l -1.03875,1.62625 -0.51875,0.8125 -0.25875,0.405 -0.23875,0.33 c -1.4975,2.03625 -3,4.055 -4.53,6.03 -1.605,1.91875 -3.1975,3.8225 -4.77875,5.712496 -6.5,7.41875 -13.50125,13.975 -20.46,19.805 -6.94875,5.85375 -13.9425,10.8825 -20.51,15.34875 -6.595,4.4325 -12.7975,8.26375 -18.3425,11.58125 -5.5825,3.25625 -10.51375,5.98625 -14.5875,8.21 -3.2025,1.73125 -5.86375,3.15625 -7.9375,4.23625 -0.6025,0.24 -1.19625,0.49625 -1.79375,0.74375 1.34,-0.8525 2.72,-1.73125 4.17625,-2.6575 1.885,-1.31375 3.8525,-2.6425 5.8925,-4.17875 4.14,-2.98375 8.41625,-6.42625 12.815,-10.275 4.3875,-3.85875 8.7525,-8.24375 13.0025,-13.03875 1.04,-1.21875 2.08875,-2.44875 3.14375,-3.6875 l 0.0987,-0.11625 0.05,-0.0575 0.1175,-0.15125 0.17875,-0.24 0.35625,-0.48125 0.71375,-0.965 c 0.47625,-0.60375 0.95875,-1.37125 1.43875,-2.1225 1.0125,-1.50125 1.78375,-3.00375 2.62625,-4.5175 0.7425,-1.55125 1.52375,-3.1 2.1275,-4.7225 2.64375,-6.4 4.09625,-13.35375 4.3975,-20.406246 0.115,-3.535 -0.1875,-7.1 -0.88,-10.6 -0.45375,-1.7375 -0.84875,-3.4775 -1.55,-5.14375 l -0.475,-1.255 c -0.17,-0.41375 -0.39875,-0.80875 -0.595,-1.21375 l -0.61375,-1.2 -0.3075,-0.59625 -0.0775,-0.14875 c -0.0425,-0.0737 0.04,0.0588 -0.105,-0.18375 l -0.0425,-0.0637 -0.17375,-0.25625 -1.38875,-2.05 -1.74125,-2.12625 c -1.2175,-1.2875 -2.4125,-2.5225 -3.775,-3.58125 -2.675,-2.1425 -5.56125,-3.99 -8.76375,-5.11625 -0.77125,-0.33375 -1.62625,-0.48875 -2.42625,-0.73375 l -0.60875,-0.16625 -0.15375,-0.04 -0.075,-0.0213 c -0.0613,-0.0137 0.03,10e-4 -0.1575,-0.0362 l -0.2875,-0.045 -1.14375,-0.18 c -1.82375,-0.19375 -3.4475,-0.1175 -5.09125,0.115 -1.6275,0.26625 -3.1925,0.73375 -4.68,1.34875 -1.46375,0.67125 -2.8575,1.465 -4.08625,2.47 -2.44,1.9975 -4.275,4.725 -4.9725,7.63375 -0.78,2.89375 -0.46125,5.995 0.75875,8.495 0.155,0.31375 0.3025,0.62875 0.465,0.9325 l 0.59,0.85875 c 0.355,0.59375 0.9,1.04625 1.36,1.54125 0.22125,0.26 0.535,0.42125 0.80125,0.6275 l 0.415,0.29125 0.20625,0.1425 0.10375,0.0725 0.0512,0.035 c 0.0537,0.03 -0.0475,-0.0188 0.13375,0.0775 0.54875,0.23625 1.02375,0.4975 1.615,0.7075 0.6325,0.17125 1.27625,0.40875 1.88,0.485 0.605,0.0575 1.1975,0.1925 1.78875,0.1725 1.18,0.0263 2.32,-0.12125 3.39625,-0.38375 0.52875,-0.175 1.05875,-0.31625 1.5575,-0.51875 0.48125,-0.24375 0.95625,-0.48375 1.4225,-0.71875 0.4225,-0.31375 0.83625,-0.6225 1.24375,-0.92375 l 0.15,-0.115 c 0.1475,-0.13125 0.10875,-0.1075 0.17125,-0.16875 l 0.23375,-0.24625 c 0.15625,-0.17625 0.305,-0.29625 0.4625,-0.51375 1.29,-1.6675 1.71,-3.51625 1.49125,-5.1625 -0.1475,-3.7375 -3.21625,-6.72375 -6.98875,-6.72375 -3.865,0 -7.00125,3.135 -7.00125,7.00125 0,2.87375 1.73375,5.34 4.21,6.41875 -0.09,-0.002 -0.17625,0.01 -0.26625,0.004 -0.49375,0.006 -0.98,-0.1375 -1.47875,-0.195 -0.49875,-0.0787 -0.9125,-0.275 -1.385,-0.39125 -0.45875,-0.17125 -0.97375,-0.465 -1.47,-0.705 0,0.001 -0.0387,-0.025 -0.0238,-0.0175 l -0.0375,-0.03 -0.075,-0.0588 -0.15,-0.115 -0.3025,-0.23125 c -0.19375,-0.165 -0.43125,-0.275 -0.58875,-0.49125 -0.33125,-0.4025 -0.74375,-0.73375 -0.9975,-1.22125 l -0.43875,-0.67875 -0.33875,-0.75625 c -0.90625,-2.045 -1.0725,-4.4625 -0.36625,-6.77625 0.6475,-2.34125 2.1825,-4.43875 4.2225,-6.005 1.02875,-0.78375 2.2075,-1.39625 3.43875,-1.915 1.25875,-0.46375 2.5775,-0.81 3.93875,-0.98625 1.35,-0.14875 2.79125,-0.135 4.03,0.025 l 1.13625,0.22 0.285,0.055 c -0.14125,-0.0275 0,0.005 -0.0175,0.004 l 0.0625,0.0213 0.12625,0.0425 0.5075,0.1675 c 0.67,0.2475 1.36625,0.38875 2.02,0.715 2.68625,1.0775 5.17375,2.84375 7.425,4.83 1.15,0.9725 2.16,2.13625 3.13375,3.2575 l 1.30125,1.7225 c 0.4275,0.6675 0.84,1.40125 1.2625,2.10125 l 0.1575,0.265 0.0387,0.0675 c -0.1175,-0.19875 -0.0175,-0.0188 -0.035,-0.0462 l 0.0563,0.13 0.225,0.51875 0.455,1.03375 c 0.14375,0.34625 0.32,0.67875 0.44125,1.0375 l 0.33625,1.0925 c 0.5175,1.42625 0.76,2.95875 1.07125,4.4625 0.41375,3.07125 0.50125,6.21 0.2925,9.35875 -0.50875,6.298746 -2.1825,12.537496 -4.585,18.293746 -0.5575,1.4625 -1.3075,2.82 -1.94625,4.22375 -0.74,1.33875 -1.4475,2.73125 -2.23875,3.90875 -0.38375,0.61125 -0.74,1.2175 -1.2525,1.87875 l -0.70875,0.9675 -0.35375,0.48375 -0.16,0.2175 -0.0375,0.0462 -0.0913,0.1125 c -0.98,1.21 -1.95375,2.41125 -2.9175,3.60125 -3.94875,4.695 -8.06625,8.99 -12.1025,12.95375 -2.0675,1.93 -4.04,3.855 -6.0675,5.59625 -1.9725,1.80625 -3.92625,3.4825 -5.8175,5.075 -1.8675,1.61125 -3.79875,3.09875 -5.53625,4.57125 -1.78375,1.36375 -3.475,2.655 -5.06625,3.87 -3.28,2.38 -6.17,4.45375 -8.55125,6.26 -2.40875,1.74375 -4.10375,3.28125 -5.3025,4.30375 -0.4775,0.41 -0.83875,0.72125 -1.13125,0.97375 -0.33875,0.2075 -0.68125,0.4075 -1.0175,0.6175 -8.7975,5.5175 -16.81875,11.98375 -23.64625,19.31375 -1.60125,1.71875 -3.1275,3.495 -4.58125,5.31625 0.12875,-0.17375 0.25,-0.34125 0.38,-0.51875 2.72125,-3.7375 6.19875,-8.14625 10.28625,-13.12875 4.075,-4.99125 8.78125,-10.5425 13.705,-16.79 4.895,-6.26125 10.07625,-13.20875 14.56875,-21.20875 4.53125,-7.98 8.24375,-17.01 10.365,-26.88 2.1575,-9.8125 2.91125,-20.193746 3.08875,-30.644996 0.19125,-10.46125 -0.0713,-21.04375 0.31375,-31.54375 0.37125,-10.48375 1.44125,-20.945 4.21375,-30.7375 0.7025,-2.545 1.48375,-4.9025 2.32125,-7.2725 0.4475,-1.17875 0.895,-2.355 1.34,-3.5275 0.4925,-1.1525 0.9825,-2.30125 1.47125,-3.44625 2.0675,-4.5262498 4.48875,-8.8024998 7.23875,-12.7087498 2.74625,-3.905 5.78375,-7.48125 9.16375,-10.5075002 3.40125,-2.99625 7.045,-5.5075 10.85875,-7.45125 3.8025,-2.01875 7.765,-3.2125 11.8525,-4.135 0.96625,-0.1775 1.925,-0.35375 2.875,-0.52875 0.97375,-0.12125 1.96625,-0.17875 2.935,-0.2725 0.4875,-0.0425 0.9725,-0.0862 1.45375,-0.12875 0.48375,0.005 0.96625,0.01 1.445,0.015 0.95875,0.006 1.91,0.0138 2.85125,0.02 7.5225,0.48375 14.30625,2.665 19.87125,5.49 5.56625,2.86125 10.02375,6.1825 13.43625,9.20125 0.9,0.7087502 1.62625,1.5112502 2.38125,2.1975002 0.7275,0.7125 1.45625,1.34125 2.04,2.01375 1.195,1.31625 2.27,2.39875 3.05,3.3525 1.59,1.89375004 2.43875,2.90500004 2.43875,2.90500004 l 0.46375,-0.32125 c 0,0 -0.72,-1.12125004 -2.06875,-3.22250004 -1.405,-2.0675 -3.605,-5.02125 -6.7975,-8.4825002 -0.8225,-0.84375 -1.68875,-1.735 -2.5975,-2.6675 -0.98,-0.86375 -2.005,-1.7675 -3.075,-2.70875 -1.09625,-0.91375 -2.305,-1.78375 -3.52875,-2.7325 -1.25,-0.91 -2.63125,-1.735 -4.02375,-2.64625 -5.68875,-3.42125 -12.9075,-6.23 -21.2225,-7.15125 -1.03875,-0.0838 -2.09375,-0.12 -3.15875,-0.16875 -0.5325,-0.0225 -1.06875,-0.0437 -1.6075,-0.0663 -0.53625,0.0275 -1.0775,0.055 -1.62125,0.0813 -1.0875,0.065 -2.18,0.095 -3.29375,0.19625 -1.125,0.16875 -2.25875,0.33875 -3.4025,0.51125 -1.19,0.1425 -2.2,0.43125 -3.2575,0.68875 -0.52875,0.13125 -1.05875,0.26125 -1.59125,0.3925 l -0.79875,0.1975 -0.10125,0.0263 -0.22375,0.0638 -0.205,0.0725 -0.4125,0.14625 c -1.1,0.39375 -2.20875,0.79 -3.32625,1.18875 -1.10125,0.43375 -2.1675,0.98 -3.265,1.47375 -4.31125,2.13 -8.4475,4.9225 -12.13375,8.3325 -3.66125,3.435 -6.92875,7.3825002 -9.7475,11.6812502 -5.6225,8.62 -9.595,18.5074998 -12.17125,28.7662498 -2.68625,10.35 -3.5675,21.12125 -3.73375,31.76875 -0.18125,10.66125 0.29,21.245 0.305,31.61625 0.0263,10.36375 -0.51875,20.553746 -2.43875,30.174996 -1.85625,9.58125 -5.3225,18.5575 -9.62,26.4675 -4.265,7.95875 -9.2625,14.95 -14.0125,21.27625 -4.78,6.315 -9.37625,11.9575 -13.35625,17.03625 -3.995,5.06625 -7.395,9.5575 -10.05125,13.35875 -0.665,0.94875 -1.29625,1.84625 -1.89,2.69125 -0.56875,0.86375 -1.1025,1.67125 -1.5975,2.425 -0.89875,1.34125 -1.65,2.505 -2.24875,3.5025 1.405,-2.8 3.12,-5.6875 5.1825,-8.7775 2.36,-3.59 4.995,-7.38875 7.61625,-11.645 5.36375,-8.40375 11.07125,-18.09125 16.51625,-29.0975 5.44125,-10.99125 10.63375,-23.30875 14.465,-36.8825 3.8175,-13.55625 6.17125,-28.406246 5.955,-43.813746 l 0.0137,-1.445 c -0.0125,-0.4575 -0.0525,-0.91375 -0.08,-1.37125 0.0537,-0.50875 0.10625,-1.03875 0.15625,-1.59875 0.25,-2.68875 0.44375,-5.96875 0.39125,-9.73375 -0.0125,-3.765 -0.26125,-8.01625 -0.8675,-12.6175 -0.13875,-1.1475 -0.3075,-2.31625 -0.50125,-3.5025 -0.0125,-0.15375 -0.0187,-0.29 -0.0263,-0.4475 -0.18875,-2.555 -0.2725,-5.6725 -0.325,-9.23875 0,-3.57 0.0675,-7.59 0.305,-11.9625 0.15375,-2.185 0.2575,-4.46125 0.53625,-6.80375 0.1125,-1.1725 0.22875,-2.36375 0.3475,-3.57375 0.1625,-1.205 0.32625,-2.4274998 0.4925,-3.6674998 0.2825,-2.485 0.83125,-4.9975 1.25,-7.58249996 0.57625,-2.55500004 1.02375,-5.19750004 1.76125,-7.81250004 1.29,-5.2775002 3.08375,-10.5975002 5.23625,-15.8375002 0.575,-1.29375 1.05375,-2.64125 1.71125,-3.90375 0.63,-1.27625 1.26375,-2.55625 1.8975,-3.83875 l 2.1325,-3.72 0.53625,-0.93 c 0.12375,-0.2225 0.3775,-0.59375 0.56125,-0.8825 l 1.1975,-1.85 c 3.18875,-4.59625 7.0275,-8.9975 11.16125,-12.77 4.1625,-3.765 8.67125,-7.018754 13.41125,-9.332504 l 0.88125,-0.44625 0.90375,-0.37 c 0.60125,-0.24625 1.20125,-0.49125 1.7975,-0.73375 1.20125,-0.45125 2.4225,-0.79625 3.62125,-1.165 2.43125,-0.5475 4.855,-0.95 7.20875,-0.86625 0.58875,0.0163 1.175,0.0338 1.755,0.05 l 0.2175,0.006 c 0.0663,0.007 0.0175,0 -0.0163,-0.006 l 0.0337,0.005 0.115,0.0175 0.46,0.07 0.91375,0.13875 c 0.505,0.14125 0.97625,0.24875 1.48,0.40125 0.50125,0.20125 1.025,0.34 1.505,0.58 1.955,0.87625 3.675,2.135 5.03125,3.5975 2.745,2.931254 3.87625,6.670004 3.33625,9.843754 -0.095,0.39125 -0.18875,0.77625 -0.27875,1.15625 l -0.0687,0.285 c 0.0275,-0.0288 -0.0588,0.16375 -0.0825,0.235 -0.0775,0.19 -0.15125,0.4125 -0.23,0.57375 -0.0325,0.0675 -0.08,0.14375 -0.1175,0.21375 0.4175,-2.995 -0.645,-6.13125 -3.11375,-8.24125 -3.84875,-3.290004 -9.635,-2.8375 -12.925,1.01125 -3.28875,3.8475 -2.83625,9.63375 1.0125,12.925 1.20375,1.0275 2.59625,1.69125 4.0425,1.9975 0.0725,0.0188 0.255,0.0675 0.5475,0.145 0.38125,0.11625 0.97125,0.19 1.73125,0.18625 1.51625,-0.0175 3.71875,-0.56875 5.98375,-2.10375 1.135,-0.7575 2.30125,-1.72875 3.385,-2.99875 0.54875,-0.6375 1.04625,-1.325 1.53625,-2.2325 0.1125,-0.21 0.1825,-0.3875 0.27625,-0.58625 0.0525,-0.1275 0.0713,-0.125 0.1525,-0.36125 l 0.105,-0.3375 c 0.1375,-0.45625 0.27875,-0.92 0.42125,-1.3925 0.42375,-1.9325 0.4225,-4.11375 -0.15625,-6.26625 -0.56125,-2.16 -1.70875,-4.247504 -3.26875,-6.080004 -1.565,-1.8325 -3.55625,-3.42375 -5.89375,-4.59 -0.57375,-0.3125 -1.205,-0.5225 -1.81625,-0.7875 -0.64,-0.23125 -1.355,-0.415 -2.02875,-0.6 l -0.91,-0.16375 -0.45625,-0.0825 -0.115,-0.02 -0.0575,-0.0112 c 0,10e-4 -0.22125,-0.0288 -0.15625,-0.0188 l -0.2475,-0.015 c -0.6625,-0.04 -1.33,-0.08 -2.00375,-0.11875 -5.39625,-0.24875 -11.0475,1.0825 -16.21375,3.58125 -5.2,2.46125 -10.07625,5.85 -14.515,9.812504 -4.40625,4.03625 -8.3575,8.53 -11.86625,13.59375 l -1.19875,1.85 c -0.20875,0.33125 -0.3775,0.5625 -0.61875,0.9775 l -0.55,0.985 c -0.73,1.31625 -1.45875,2.63 -2.18625,3.9425 -0.645,1.35 -1.28875,2.69875 -1.92875,4.04375 -0.6675,1.33125 -1.14875,2.7375 -1.72875,4.09375 -2.19875,5.47625 -3.8675,11.04375 -5.03875,16.5087502 -0.67625,2.71375 -1.0675,5.43375 -1.56875,8.07125004 -0.3175,2.66499996 -0.76375,5.25374996 -0.9425,7.80124996 -0.54375,5.0749998 -0.67375,9.8987498 -0.6825,14.3374998 -0.03,2.21875 0.0875,4.34625 0.12625,6.36625 0.0937,2.01875 0.26375,3.93 0.38,5.725 0.0537,0.585 0.10875,1.1375 0.1625,1.6975 -0.275,-1.07625 -0.56,-2.15875 -0.87875,-3.2525 -0.4,-1.27125 -0.71125,-2.5925 -1.20125,-3.87125 -0.46625,-1.28875 -0.9375,-2.5925 -1.41375,-3.91125 -0.96375,-2.56125 -1.94,-5.20875 -2.8825,-7.9075 -1.8975,-5.3975 -3.7325,-11.0199998 -5.4,-16.77499976 -1.65625,-5.75250004 -3.16375,-11.65625024 -4.135,-17.57250024 -0.1925,-1.4725 -0.45,-2.95625 -0.54625,-4.415 l -0.14625,-2.185 -0.0525,-2.2725 c -0.04,-1.53125 -0.0525,-3.04125 -0.05,-4.535 -0.0213,-1.5 0.0138,-2.99125 0.0587,-4.475 0.11625,-5.9275 0.64625,-11.7225 2.0725,-17.0625 0.29,-1.35875 0.77,-2.6325 1.22625,-3.9025 0.22375,-0.60375 0.45125,-1.34125 0.66875,-1.828754 0.29,-0.61875 0.565,-1.30875 0.865,-1.86 1.10875,-2.1625 2.6675,-4.33375 4.35375,-6.125 3.39125,-3.65375 7.4,-6.415 11.45625,-8.03125 2.0125,-0.86375 4.0575,-1.36875 6.01875,-1.65 0.4925,-0.0562 0.98,-0.11375 1.46125,-0.16875 0.4825,-0.0138 0.9575,-0.0288 1.4275,-0.0425 0.215,-0.002 0.51625,-0.0275 0.6575,-0.0112 l 0.72625,0.0525 c 0.47875,0.0375 0.8475,0.12875 1.2725,0.18625 3.435,0.7675 6.29,2.3775 8.34375,3.97 2.0875,1.5975 3.36375,3.27125 4.09375,4.48375 0.35375,0.61625 0.59875,1.1075 0.7175,1.4575 0.13875,0.345 0.21125,0.52375 0.21125,0.52375 0,0 -0.0462,-0.18625 -0.1375,-0.5475 -0.07,-0.37 -0.245,-0.89375 -0.51875,-1.5725 -0.54375,-1.35125 -1.70875,-3.21125 -3.69375,-5.12 -1.98,-1.8875 -4.72625,-3.955 -8.535,-5.115 -0.48875,-0.1175 -1.04125,-0.275 -1.51875,-0.35125 l -0.72,-0.1125 c -0.34125,-0.055 -0.5375,-0.04 -0.81625,-0.0625 -0.5225,-0.0262 -1.0525,-0.0525 -1.59,-0.08 -0.535,0.0125 -1.0775,0.0525 -1.6275,0.08 -2.19375,0.1675 -4.49625,0.585 -6.77,1.3875 -4.5675,1.55 -9.1225,4.34 -13.02375,8.2825 -0.5975,0.61 -1.16625,1.2475 -1.71875,1.9025 0.0125,-0.0163 0.0213,-0.0337 0.0337,-0.05 0.585,-0.845 1.19375,-1.725 1.82375,-2.63625 0.60125,-0.85125 1.43125,-1.76125 2.17,-2.67875 1.53625,-1.87375 3.2075,-3.60875 4.94875,-5.62625 1.7675,-1.94 3.4925,-4.11875 5.08875,-6.465 0.7575,-1.10625 1.4775,-2.41875 2.17,-3.68625 l 0.95,-1.93625 c 0.305,-0.65125 0.55125,-1.33125 0.83,-1.9975 1.0325,-2.69375 1.84625,-5.48875 2.25625,-8.34625 0.40375,-2.88625 0.3325,-5.6975 -0.20375,-8.49625 -0.50125,-2.73375 -1.535,-5.25 -2.785,-7.44625 -1.24,-2.21375 -2.8675,-4.0025 -4.45,-5.4975 -1.595,-1.49875 -3.30125,-2.56375 -4.83,-3.41 -1.5675,-0.79 -2.97875,-1.355 -4.1775,-1.69125 -0.5975,-0.16 -1.13125,-0.3025 -1.59625,-0.42625 -0.475,-0.0775 -0.87875,-0.14125 -1.20625,-0.19375 -0.64875,-0.1025 -0.995,-0.1575 -0.995,-0.1575 0,0 0.32625,0.12875 0.9375,0.37125 0.3025,0.12 0.67625,0.2675 1.115,0.4425 0.425,0.2025 0.9125,0.435 1.45875,0.695 1.07125,0.54875 2.345,1.25625 3.68625,2.22375 1.32625,0.97875 2.7725,2.14875 4.08125,3.6675 1.3425,1.47625 2.60375,3.24125 3.6225,5.26125 1.02875,2.01625 1.75875,4.29625 2.1975,6.7025 0.43,2.34 0.42375,4.985 0.1175,7.54 -0.34375,2.585 -1.0675,5.18 -2.0025,7.69625 -0.4675,1.26125 -1.015,2.48875 -1.57875,3.70875 -0.605,1.18375 -1.1675,2.3275 -1.92375,3.51125 l -0.5325,0.8775 -0.555,0.7775 c -0.3875,0.5375 -0.7725,1.0725 -1.155,1.60375 -0.7325,1.08 -1.5775,2.10125 -2.38125,3.11625 -1.56125,2.03125 -3.3225,4.01625 -4.68,5.9625 -0.6925,1.00125 -1.38625,1.865 -2.02,2.8975 -0.58125,0.99 -1.14375,1.945 -1.68375,2.8625 -0.55125,0.9075 -0.9075,1.86875 -1.33625,2.73125 -0.39,0.8825 -0.83125,1.68125 -1.1125,2.49625 -0.58625,1.6175 -1.14625,3.0025 -1.505,4.16875 -0.36875,1.260004 -0.65,2.218754 -0.8325,2.846254 -0.195,0.60125 -0.375,1.20875 -0.51375,1.82875 -1.5725,5.75875 -2.17875,11.86875 -2.31375,17.985 -0.0213,1.5325 -0.0325,3.06875 0.0125,4.60375 0.0213,1.54375 0.0588,3.0775 0.1225,4.59625 l 0.09,2.305 0.195,2.39125 c 0.13375,1.5925 0.4225,3.13 0.65375,4.69 1.1525,6.155 2.85625,12.1012502 4.67875,17.89250024 1.8375,5.78624996 3.83125,11.40499976 5.88125,16.79499976 1.02125,2.6975 2.0675,5.32375 3.11625,7.91125 0.49125,1.27125 0.9775,2.5275 1.4575,3.77 0.50625,1.23375 0.83625,2.5125 1.255,3.74125 1.56875,4.95375 2.655,9.7725 3.30625,14.2725 0.49125,3.1725 0.79875,6.17125 0.97375,8.96875 -0.29625,-1.9225 -0.495,-3.86875 -0.88,-5.7875 -0.42875,-1.9325 -0.85875,-3.87 -1.29,-5.815 l -0.275,-1.2425 0.0613,-0.0125 c 0,0 -0.13375,-0.5775 -0.3825,-1.66125 -0.26125,-1.0475 -0.65375,-2.555 -1.27875,-4.40875 -0.9925,-3.31125 -1.90375,-6.64875 -3.2325,-9.93375 -5.5325,-15.22 -13.32375,-29.6412498 -21.71875,-43.605 -2.15125,-3.60875 -4.33625,-7.19625 -6.52125,-10.77625 -0.735,-1.36125 -1.5525,-2.91625 -2.44875,-4.6375 -1.19125,-2.34375 -2.4975,-5.00125 -3.89,-7.90875 -1.34,-2.93 -2.77375,-6.11125 -4.10625,-9.54 -1.355,-3.40875 -2.66875,-7.12125 -3.9275,-10.915004 -1.26125,-3.81125 -2.33875,-7.8025 -3.19,-11.885 -0.8175,-4.08625 -1.30875,-8.29 -1.235,-12.47 0.0562,-4.27125 0.4,-8.48375 1.1375,-12.58625 0.77125,-4.075 1.8475,-8.03 3.52875,-11.56 0.82625,-1.76875 1.78375,-3.43375 2.87375,-4.94875 1.065,-1.5175 2.27625,-2.96125 3.57375,-4.03875 2.66,-2.21 5.91,-3.5275 8.84125,-3.01125 1.31,0.24625 2.60875,1.01625 3.5075,1.98625 0.9225,0.9775 1.54125,2.16375 1.8125,3.35625 0.275,1.18375 0.29625,2.40625 -0.0412,3.37125 -0.07,0.19125 -0.15875,0.3675 -0.25,0.54375 0.085,-0.33125 0.14375,-0.67375 0.14375,-1.03125 0,-2.31375 -1.87625,-4.18875 -4.18875,-4.18875 -2.31375,0 -4.19,1.875 -4.19,4.18875 0,1.3975 0.69125,2.62625 1.74375,3.3875 -0.20875,-0.13875 -0.32,-0.2125 -0.32,-0.2125 0,0 0.10375,0.0863 0.30625,0.255 0.21,0.1575 0.5375,0.3825 1.025,0.56625 0.94375,0.38375 2.6825,0.44 4.35375,-0.695 0.8225,-0.55125 1.64375,-1.35375 2.1675,-2.49 0.51125,-1.165 0.5825,-2.51875 0.3825,-3.91375 -0.39,-2.76375 -2.42875,-5.92375 -6.1525,-6.875 -1.70625,-0.40875 -3.66375,-0.2875 -5.46375,0.26 -1.82,0.5425 -3.5525,1.47125 -5.13125,2.67375 -1.62125,1.2375 -2.9475,2.70375 -4.20625,4.3175 -1.27625,1.59625 -2.34875,3.39 -3.3075,5.265 -1.91125,3.7625 -3.25,7.9175 -4.1025,12.205 -0.8425,4.27875 -1.27625,8.72 -1.40125,13.1075 -0.085,4.48625 0.4325,8.93125 1.28,13.20375 0.86,4.2725 2.09125,8.36375 3.41375,12.25 0.82,2.410004 1.68375,4.713754 2.5725,6.948754 -1.115,-1.9875 -2.2125,-3.98 -3.27875,-5.9825 -6.05625,-11.313754 -11.27875,-22.941254 -14.93875,-34.722504 -0.0225,-0.34875 -0.0488,-0.75 -0.075,-1.2 -0.0362,-0.90625 -0.11375,-2 -0.13125,-3.26 -0.06,-1.255 -0.0463,-2.67375 -0.0563,-4.215 0.0263,-3.085 0.17125,-6.67375 0.60625,-10.48 0.22875,-1.90125 0.5225,-3.85625 0.9125,-5.825 0.18625,-0.98625 0.4475,-1.9625 0.67375,-2.95125 0.29375,-0.97 0.525,-1.965 0.8675,-2.9225 0.3175,-0.965 0.625,-1.93625 1.01375,-2.87125 0.34625,-0.95375 0.7625,-1.8725 1.18375,-2.78 0.84,-1.81875 1.81625,-3.53125 2.82,-5.15875 0.525,-0.7975 1.07875,-1.5575 1.60125,-2.31875 0.57375,-0.72125 1.135,-1.42875 1.68125,-2.11625 0.59375,-0.6525 1.17,-1.28625 1.7275,-1.9 0.5625,-0.6125 1.1825,-1.12375 1.7275,-1.675 0.54125,-0.5575 1.1175,-1.0225 1.6625,-1.47375 0.54875,-0.44375 1.0475,-0.90125 1.56125,-1.27 1.035,-0.72125 1.9125,-1.40375 2.68875,-1.88125 1.55125,-0.975 2.4375,-1.5325 2.4375,-1.5325 0,0 -0.96125,0.425 -2.6425,1.17 -0.83625,0.39 -1.79125,0.9725 -2.92625,1.5875 -0.565,0.31375 -1.11875,0.71875 -1.73,1.1075 -0.60875,0.39625 -1.25375,0.8075 -1.8725,1.31125 -0.62625,0.4925 -1.30125,0.98625 -1.9425,1.5625 -0.635,0.58625 -1.29,1.1925 -1.96375,1.81625 -0.62875,0.6725 -1.27375,1.36375 -1.9325,2.07125 -0.60125,0.75625 -1.23625,1.51625 -1.84625,2.31875 -1.1775,1.63125 -2.3275,3.3775 -3.295,5.2625 -0.49375,0.9375 -0.98,1.88875 -1.395,2.87625 -0.455,0.9725 -0.83875,1.97625 -1.21125,2.985 -0.39125,1.00375 -0.6675,2.0425 -1.00375,3.06 -0.27125,1.03375 -0.57375,2.0575 -0.79875,3.09 -0.48375,2.05625 -0.8375,4.10625 -1.06,6.10125 -0.125,0.99625 -0.19625,1.98 -0.28125,2.94125 -0.0312,0.96375 -0.0987,1.90625 -0.0963,2.82375 -0.0213,0.675 0,1.31875 0.0125,1.96375 -0.17,-0.79875 -0.32875,-1.595 -0.43875,-2.38375 -0.15125,-0.91875 -0.30375,-1.83625 -0.455,-2.7525 -0.10875,-0.925 -0.21625,-1.8475 -0.325,-2.76875 -0.25125,-1.83875 -0.31875,-3.68375 -0.42875,-5.515 -0.075,-1.8325 -0.0163,-3.65875 0,-5.47 0.31,-7.2475 2.08625,-14.175 4.59625,-20.54125 1.24125,-3.195 2.69375,-6.24125 4.32875,-9.09 1.5925,-2.86875 3.40625,-5.52625 5.38625,-7.91 0.98875,-1.1975 2.08,-2.26125 3.1675,-3.29125 l 0.85375,-0.715 0.4275,-0.355 0.2125,-0.17875 c 0.0375,-0.0288 0.0425,-0.0337 0.0388,-0.0325 l 0.11,-0.0762 c 0.65875,-0.455 1.31625,-0.9075 1.9675,-1.36 2.39375,-1.46875 5.115,-2.61125 7.83,-3.25125 2.72125,-0.7 5.47875,-0.66125 8.04625,-0.25875 0.62125,0.13875 1.32125,0.21 1.87375,0.39 0.33375,0.1075 0.71,0.21 1.0075,0.32125 l 0.83125,0.32875 c 1.14625,0.495 2.25125,1.12125 3.24625,1.84 1.96625,1.4725 3.51375,3.355 4.37375,5.4425 0.88,2.0975 1.085,4.27875 0.67375,6.50625 -0.18,0.87625 -0.58,1.925 -1.085,2.76625 -0.51625,0.86 -1.14875,1.645 -1.9075,2.2625 -1.495,1.26125 -3.34375,1.96625 -5.17875,2.08 -0.45875,0.0225 -0.91625,0.035 -1.36875,-0.0163 l -0.34,-0.0213 c 0.0125,0.009 -0.22,-0.0337 -0.3175,-0.0487 -0.2425,-0.0462 -0.5425,-0.0775 -0.73375,-0.135 -0.79375,-0.165 -1.67875,-0.505 -2.42375,-0.87125 -0.73875,-0.39875 -1.3875,-0.87375 -1.87875,-1.4125 -0.2075,-0.2875 -0.4525,-0.54375 -0.6,-0.8525 -0.25,-0.455 -0.32125,-0.6975 -0.44125,-1.02375 -0.44,-1.39125 -0.31375,-2.88625 0.1575,-4.15 0,-0.0175 0.0175,-0.0325 0.0238,-0.05 0.19625,2.71375 2.4375,4.8625 5.20125,4.8625 2.765,0 5.0075,-2.15125 5.20125,-4.8675 0.015,-0.0937 0.0225,-0.195 0.0312,-0.2975 0,-0.025 0.0125,-0.0487 0.0125,-0.0738 0,-0.006 -0.001,-0.0112 -0.001,-0.0175 0.0225,-0.41625 0,-0.88375 -0.12125,-1.39875 -0.1925,-0.85625 -0.7425,-1.76375 -1.58625,-2.4975 -0.8475,-0.72875 -2.00375,-1.2925 -3.36625,-1.4375 -0.34125,-0.0225 -0.6925,-0.07 -1.05375,-0.0288 -0.35125,0.005 -0.7375,0.0613 -1.14875,0.16875 -0.45375,0.0888 -0.65625,0.21625 -1,0.32625 -0.30625,0.1375 -0.375,0.19125 -0.5775,0.29375 -0.17125,0.09 -0.34625,0.18 -0.50625,0.2975 -1.335,0.84875 -2.51375,2.16375 -3.25625,3.82625 -0.7275,1.655 -1.03875,3.685 -0.5225,5.74125 0.13875,0.5225 0.36,1.13875 0.5375,1.49375 0.225,0.52375 0.57375,1.00125 0.9125,1.465 0.74125,0.8825 1.64375,1.575 2.61625,2.14375 1.00125,0.5325 1.98875,0.96875 3.20125,1.27 0.3025,0.0863 0.52,0.1125 0.78625,0.1725 0.15875,0.0288 0.18625,0.0437 0.45375,0.085 l 0.4425,0.0475 c 0.5925,0.0825 1.19625,0.0937 1.81,0.0838 2.45125,-0.0613 5.01625,-0.91875 7.12875,-2.57875 1.06875,-0.815 1.98625,-1.85625 2.7425,-3.0225 0.75375,-1.19625 1.31875,-2.42375 1.68125,-3.9675 l 0.17875,-0.9325 0.0425,-0.23125 c 0.0338,-0.215 0.015,-0.13625 0.0263,-0.2175 l 0.0125,-0.13375 0.0438,-0.5325 c 0.0837,-0.7125 0.0525,-1.4375 0.0275,-2.16875 -0.12625,-1.4525 -0.38875,-2.94125 -0.96375,-4.34 -1.09875,-2.82 -3.07375,-5.295 -5.52,-7.2 -4.93625,-3.86 -11.91375,-5.06125 -18.34625,-3.60125 -3.2275,0.7375 -6.3375,1.9775 -9.36125,3.825 -0.6575,0.4475 -1.3175,0.89375 -1.98,1.34375 l -0.125,0.085 c -0.0225,0.0113 -0.25125,0.17875 -0.21375,0.15625 l -0.2525,0.205 -0.50375,0.41125 -1.00625,0.83125 c -1.17625,1.0675 -2.275,2.2275 -3.3,3.4475 1.76125,-3 3.67,-6.08 5.67625,-9.245 1.89,-2.9625 3.83875,-6.0225 5.75625,-9.1625 0.1225,0.005 0.27875,0.01 0.48625,0.0175 0.48875,0.0113 1.1975,0.0188 2.09875,0 1.79875,-0.03 4.36125,-0.1725 7.4075,-0.60375 1.5225,-0.215 3.1625,-0.515 4.87875,-0.9275 1.71875,-0.39875 3.5025,-0.9525 5.315,-1.61625 1.79,-0.72375 3.635,-1.50625 5.36375,-2.59125 1.73375,-1.06125 3.425,-2.28625 4.865,-3.78375 0.76625,-0.69875 1.37875,-1.54375 2.0425,-2.33125 0.305,-0.415 0.5725,-0.8575 0.85625,-1.2825 0.29,-0.42375 0.5625,-0.85375 0.775,-1.3175 0.23,-0.4525 0.45875,-0.90375 0.685,-1.3525 0.2075,-0.4575 0.36,-0.935 0.54,-1.3975 0.38875,-0.915 0.59125,-1.875 0.8275,-2.805 0.4225,-1.87125 0.6,-3.71625 0.62375,-5.46125 0.0687,-0.87125 -0.0337,-1.7175 -0.0675,-2.535 -0.0375,-0.8175 -0.0837,-1.605 -0.2175,-2.35375 -0.1075,-0.75 -0.21,-1.4675 -0.3075,-2.15 -0.11375,-0.68 -0.2825,-1.3125 -0.40875,-1.91375 -0.255,-1.20125 -0.49625,-2.24125 -0.775,-3.07875 -0.5,-1.685 -0.7875,-2.64875 -0.7875,-2.64875 0,0 0.245,0.97375 0.67375,2.67875 0.24125,0.845 0.4375,1.8925 0.64,3.0975 0.1,0.60375 0.23875,1.2375 0.325,1.91625 0.0662,0.68125 0.13875,1.3975 0.21375,2.1425 0.1,0.74375 0.11,1.52375 0.1125,2.33 0,0.80625 0.065,1.64 -0.04,2.49125 -0.095,1.705 -0.34625,3.4925 -0.83125,5.275 -0.265,0.88625 -0.49625,1.7975 -0.90625,2.65375 -0.1925,0.4325 -0.355,0.88125 -0.57,1.30625 l -0.705,1.255 c -0.2175,0.43 -0.49375,0.825 -0.785,1.2125 -0.28625,0.38875 -0.55375,0.79375 -0.85625,1.17125 -0.66,0.715 -1.26,1.48125 -2.01375,2.10625 -1.40625,1.34625 -3.0475,2.42875 -4.7225,3.36 -1.66875,0.95125 -3.45625,1.61875 -5.18125,2.23375 -1.75125,0.555 -3.47125,1.01125 -5.1325,1.3225 -1.6575,0.3225 -3.2425,0.545 -4.7125,0.68625 -2.93875,0.29 -5.40625,0.32125 -7.12125,0.27625 -0.36125,-0.009 -0.68125,-0.02 -0.97375,-0.0325 2.2525,-3.77875 4.46,-7.71 6.48125,-11.77 2.12375,-4.21375 3.86625,-8.65625 5.17875,-13.1675 0.6675,-2.235 1.18625,-4.50625 1.545,-6.785 0.035,-0.16 0.0712,-0.3275 0.10875,-0.5075 0.14125,-0.755 0.24,-1.71375 0.38875,-2.79 0.045,-0.54 0.0638,-1.11375 0.0987,-1.7175 0.0425,-0.60625 0.0638,-1.24125 0.03,-1.90625 0,-0.81 -0.0537,-1.67125 -0.13,-2.5525 -0.0912,-1.37375 -0.2525,-2.73125 -0.5075,-4.055 -0.1425,-0.75625 -0.34125,-1.49375 -0.56375,-2.21875 -0.0125,-0.0412 -0.0163,-0.08 -0.0263,-0.12 -0.205,-0.8 -0.47,-1.59625 -0.7075,-2.4125 -0.2575,-0.80875 -0.575,-1.60875 -0.86375,-2.42375 -0.31,-0.8075 -0.67125,-1.60125 -1.0075,-2.40875 -0.36,-0.7975 -0.7575,-1.57875 -1.135,-2.37125 l -1.24375,-2.31375 c -0.445,-0.75 -0.88875,-1.4975 -1.32875,-2.23875 -0.92125,-1.45875 -1.86875,-2.86375 -2.82625,-4.19375 -1.92875,-2.65875 -3.91625,-4.97375 -5.38875,-7.11875 -0.74625,-1.0625 -1.36625,-2.0825 -1.8575,-3.0125 -0.23375,-0.4725 -0.45125,-0.91375 -0.65375,-1.32125 -0.1625,-0.42625 -0.3125,-0.8175 -0.4475,-1.16875 -0.3025,-0.6975 -0.36625,-1.29625 -0.4925,-1.68125 -0.10125,-0.39125 -0.155,-0.60125 -0.155,-0.60125 l -0.26125,0.0488 c 0,0 0.0512,0.21375 0.14625,0.61375 0.12,0.39375 0.17625,1.0075 0.47125,1.72 0.13125,0.36125 0.27625,0.76125 0.43375,1.1975 0.19875,0.41875 0.4125,0.8725 0.64125,1.35625 0.4825,0.95375 1.0925,1.99875 1.82875,3.08625 1.44875,2.19375 3.4025,4.54875 5.26375,7.215 0.9275,1.3375 1.8425,2.7475 2.7275,4.20625 0.4225,0.74125 0.84875,1.48875 1.27625,2.23875 l 1.1875,2.305 c 0.35875,0.7875 0.7375,1.56625 1.0775,2.3575 0.11,0.27875 0.22375,0.55375 0.3375,0.83125 -0.68375,-0.9725 -1.44375,-1.87875 -2.325,-2.66625 l -0.59625,-0.4925 -0.61125,-0.43 c -0.35125,-0.26125 -0.80125,-0.5225 -1.2475,-0.7725 -0.87875,-0.49375 -1.7675,-0.8425 -2.6875,-1.10125 -3.70625,-1.04625 -7.4475,0.145 -9.615,2.245 -1.105,1.04 -1.88875,2.26875 -2.30625,3.5125 -0.31875,0.99 -0.39375,1.98 -0.27,2.8675 0,0.07 -0.02,0.13625 -0.02,0.205 0,2.89625 2.34625,5.24 5.23875,5.24 2.89375,0 5.24,-2.34375 5.24,-5.24 0,-2.8925 -2.34625,-5.23625 -5.24,-5.23625 -1.21125,0 -2.31125,0.4275 -3.19875,1.11625 0.39375,-0.5275 0.865,-1.0275 1.4175,-1.4675 2.0425,-1.62 5.185,-2.44625 8.1925,-1.3825 0.73875,0.25625 1.49125,0.60875 2.16625,1.04375 0.32875,0.2125 0.6625,0.42125 1.035,0.7325 l 0.50125,0.3975 0.46125,0.4225 c 1.2025,1.18875 2.19375,2.73875 2.9775,4.4325 0.78125,1.71375 1.36125,3.53875 1.62125,5.47625 0.2775,1.97125 0.3525,4.01625 0.23125,6.0925 -0.225,4.15875 -1.21125,8.42 -2.585,12.6375 -1.33625,4.225 -3.235,8.34 -5.2525,12.4175 -2.035,4.07125 -4.35875,8.02125 -6.645,11.96125 -2.295,3.9275 -4.4725,7.8725 -6.48125,11.75 -2.04375,3.8575 -3.86375,7.68625 -5.53625,11.3325 -0.82625,1.83125 -1.61375,3.64 -2.35625,5.36375 -0.71,1.74375 -1.39625,3.425 -2.05375,5.04125 -2.58625,6.48875 -4.16125,12.18 -4.66125,16.27 -0.125,0.9 -0.2,1.70375 -0.25125,2.435 -0.5775,3.65125 -0.8975,7.38125 -0.9575,11.14625 0,3.7175 0.12,7.47375 0.56125,11.23375 0.11,0.94 0.22125,1.88125 0.33125,2.82625 0.15625,0.94125 0.3125,1.88625 0.46875,2.83125 0.27125,1.915 0.75625,3.72625 1.13125,5.605 3.5925,14.99875 9.93375,29.63375 17.50875,43.793754 1.84625,3.57 3.9175,7.02625 5.8775,10.56375 2.05375,3.47625 4.09625,6.9775 6.195,10.4475 0.9725,1.6175 1.9525,3.23625 2.93125,4.85375 0.13375,0.23125 0.27375,0.47375 0.405,0.69875 0.83125,1.37875 1.59125,2.6325 2.29625,3.77625 2.32,3.84625 4.635,7.69875 6.90875,11.57125 5.78875,9.7575002 11.25,19.7462502 15.8475,29.98 -1.61,-2.25875 -3.565,-4.57375 -5.89125,-6.7874998 -0.56875,-0.585 -1.2175,-1.1 -1.84875,-1.6525 l -0.4775,-0.41 c -0.10625,-0.0875 -0.10375,-0.0975 -0.29875,-0.2475 l -0.24625,-0.18125 -0.99375,-0.73375 c -0.68375,-0.48375 -1.30375,-1.00625 -2.05625,-1.47375 -0.76375,-0.46375 -1.53375,-0.9325 -2.30875,-1.405 -3.11625,-1.75749996 -6.4025,-3.365 -9.8025,-4.695 -3.38125,-1.3725 -6.84875,-2.5725 -10.195,-3.84875 -3.3925,-1.27375 -6.67375,-2.6625 -9.82375,-4.2625002 -3.13,-1.60625 -6.125,-3.34625 -8.78625,-5.3275 -2.65375,-1.98125 -5.00625,-4.16125 -6.815,-6.54 -1.8075,-2.37625 -3.045,-4.9425 -3.67125,-7.46875 -0.12625,-0.6275 -0.25,-1.24125 -0.37,-1.84125 -0.0562,-0.6575 -0.11,-1.29875 -0.16375,-1.92375 -0.03,-1.18875 -0.0337,-2.32625 0.0825,-3.42125 0.21625,-2.17 0.61625,-4.06625 1.12,-5.5725 0.21625,-0.76625 0.47625,-1.4275 0.695,-2.0075 0.20625,-0.5875 0.41125,-1.075 0.60125,-1.46125 0.3575,-0.7825 0.5475,-1.20125 0.5475,-1.20125 0,0 -0.245,0.39 -0.70625,1.11875 -0.2425,0.36 -0.51125,0.82 -0.79875,1.38 -0.305,0.55 -0.64375,1.19125 -0.9475,1.945 -0.6775,1.47875 -1.305,3.36875 -1.77875,5.6125 -0.2425,1.115 -0.38125,2.3525 -0.4825,3.67125 0,0.6275 -0.0125,1.2725 -0.0162,1.93125 0.075,0.70125 0.15125,1.42 0.23,2.1525" />
  </g>
</svg>
