<?xml version="1.0" encoding="UTF-8" standalone="no"?>
<!-- Created with Inkscape (http://www.inkscape.org/) -->

<svg
   xmlns:dc="http://purl.org/dc/elements/1.1/"
   xmlns:cc="http://creativecommons.org/ns#"
   xmlns:rdf="http://www.w3.org/1999/02/22-rdf-syntax-ns#"
   xmlns:svg="http://www.w3.org/2000/svg"
   xmlns="http://www.w3.org/2000/svg"
   xmlns:sodipodi="http://sodipodi.sourceforge.net/DTD/sodipodi-0.dtd"
   xmlns:inkscape="http://www.inkscape.org/namespaces/inkscape"
   width="455.55746"
   height="363.11188"
   viewBox="0 0 455.55747 363.11188"
   id="svg4771"
   version="1.1"
   inkscape:version="0.91 r"
   sodipodi:docname="border_bottom_left4.svg">
  <defs
     id="defs4773" />
  <sodipodi:namedview
     id="base"
     pagecolor="#ffffff"
     bordercolor="#666666"
     borderopacity="1.0"
     inkscape:pageopacity="0.0"
     inkscape:pageshadow="2"
     inkscape:zoom="1.7365222"
     inkscape:cx="383.39704"
     inkscape:cy="152.95855"
     inkscape:document-units="px"
     inkscape:current-layer="layer1"
     showgrid="false"
     units="px"
     fit-margin-top="0"
     fit-margin-left="0"
     fit-margin-right="0"
     fit-margin-bottom="0"
     inkscape:window-width="1855"
     inkscape:window-height="1056"
     inkscape:window-x="65"
     inkscape:window-y="24"
     inkscape:window-maximized="1" />
  <metadata
     id="metadata4776">
    <rdf:RDF>
      <cc:Work
         rdf:about="">
        <dc:format>image/svg+xml</dc:format>
        <dc:type
           rdf:resource="http://purl.org/dc/dcmitype/StillImage" />
        <dc:title></dc:title>
      </cc:Work>
    </rdf:RDF>
  </metadata>
  <g
     inkscape:label="Capa 1"
     inkscape:groupmode="layer"
     id="layer1"
     transform="translate(99.645258,-137.0896)">
    <g
       id="g4791"
       transform="matrix(1,0,0,-1,-3.7837346e-6,637.29107)">
      <path
         d="m 67.680149,265.5646 c 0.0863,-0.2875 0.17,-0.5775 0.2525,-0.86875 0.31,-1.21625 0.50625,-2.45875 0.6175,-3.70875 0.9775,1.73625 2.1875,3.375 3.38,4.98625 2.785,3.76375 5.41375,7.315 5.09,11.82375 -0.0937,1.2875 -0.79375,2.27625 -1.92,2.71125 -1.24625,0.4825 -2.7225,0.15 -3.7575,-0.84125 -2.28125,-2.17875 -3.01,-8.48375 -3.49375,-12.6575 -0.0588,-0.515 -0.11375,-0.9975 -0.16875,-1.445 z m -6.215,-77.3875 c -0.6425,2.8 -1.57,5.385 -2.68875,7.48 -2.165,4.055 -4.58375,6.51875 -6.46875,6.59125 -0.8625,0.04 -1.45125,-0.2075 -1.81875,-0.73875 -0.7975,-1.1525 -0.52,-3.45875 0.14625,-5.04625 1.53,-3.6475 6.14375,-6.545 10.83,-8.28625 z m -50.14762,27.0275 c -0.0269,0.1775 -0.082,0.3425 -0.1225,0.5125 l -0.0776,0.24375 -0.065,0.19875 -0.12162,0.29875 -0.06,0.14875 -0.0489,0.0937 c -0.0551,0.11875 -0.125,0.24375 -0.20312,0.37125 -0.14938,0.2375 -0.31388,0.415 -0.41213,0.48 l -0.0835,0.0337 c 0,0 -0.11662,-0.0362 -0.2753701,-0.165 -0.15725,-0.125 -0.33975,-0.325 -0.50875,-0.56625 -0.33888,-0.49 -0.59963,-1.12625 -0.78563,-1.78875 -0.18162,-0.6675 -0.28125,-1.375 -0.3125,-2.08625 -0.0146,-0.35375 -0.008,-0.7125 0.0117,-1.0675 0.0277,-0.26875 0.0634,-0.84125 0.1225,-1.10125 0.25688,-1.63125 0.85888,-3.24875 1.6903801,-4.70875 0.53037,1.4925 0.94875,3.00375 1.20312,4.51375 0.26763,1.59 0.3345,3.18875 0.0489,4.58875 z M 1.1802789,210.90335 c 0.85937,4.365 2.57087,15.1625 0.419,23.34 -1.90825403,1.17375 -3.717754,2.50125 -5.427754,3.94875 0.36475,-0.78375 0.69675,-1.575 0.98875,-2.37375 1.07375,-2.86 1.649875,-5.77625 1.798375,-8.5625 0.14937497,-2.78875 -0.1265,-5.44 -0.659125,-7.85 -1.49175,-6.7625 -4.9405,-14.66625 -10.3692499,-19.15 -3.533125,-2.92125 -7.643,-5.2425 -11.952625,-6.80625 -1.9135,-0.69375 -18.481875,-4.06375 -18.59325,-4.7425 0.695375,4.22625 3.34675,7.8225 6.19775,10.85875 3.035625,3.235 6.30175,5.9525 10.725125,6.9025 4.796375,1.03 10.0005,0.5025 14.723125,1.9725 4.9984999,1.55625 5.9423749,6.92625 6.8472499,11.47 0.185,0.90375 0.324125,1.84125 0.4145,2.80625 -6.149375,-6.12 -15.3334999,2.17875 -19.8408749,6.0975 3.32525,1.49625 7.424875,2.3625 10.792,0.54625 0.452625,-0.2425 9.1977499,-5.24125 9.1572499,-3.505 -0.07075,2.905 -0.61175,5.96375 -1.792,9 -1.9805,5.23 -5.7709999,10.225 -10.5932499,14.6075 -0.609875,0.54375 -1.21675,1.0975 -1.860375,1.6225 -0.3135,0.2575 -0.643,0.54875 -0.94525,0.78375 -0.3345,0.26 -0.67825,0.54375 -0.9985,0.77 -1.296875,0.96625 -2.71975,1.89 -4.1915,2.71375 -2.952625,1.6525 -6.182625,2.98125 -9.5825,3.94625 -6.794375,1.9125 -14.292,2.3975 -21.57475,1.04875 -3.636125,-0.66875 -7.212375,-1.81375 -10.5385,-3.4625 -3.328625,-1.6425 -6.393625,-3.82125 -8.997125,-6.45 -2.606875,-2.625 -4.724625,-5.7225 -6.251,-9.08875 -0.200625,-0.41625 -0.36325,-0.85 -0.54775,-1.275 -0.15,-0.36125 -0.348625,-0.895 -0.48975,-1.3025 -0.28325,-0.81875 -0.535625,-1.72 -0.7495,-2.60375 -0.415625,-1.7825 -0.674375,-3.60625 -0.790625,-5.435 -0.220625,-3.65875 0.11825,-7.3375 0.99225,-10.81375 0.88325,-3.47 2.32125,-6.74875 4.360375,-9.47875 2.03025,-2.70625 4.742125,-4.8275 7.6865,-6.31375 2.953125,-1.485 6.15725,-2.33125 9.31,-2.58375 3.15625,-0.25125 6.2735,0.0888 9.0835,0.98875 2.810125,0.895 5.308125,2.36875 7.194375,4.28 1.895,1.905 3.1475,4.225 3.798375,6.59875 1.421375,5.18875 0.11325,15.33875 -7.25925,15.33875 -4.384875,0 -6.1065,-8.02625 -6.1065,-8.02625 -2.646,-7.42125 -6.454625,-9.2625 -9.586875,-9.2625 -2.99275,0 -5.36525,1.68125 -5.516125,1.79 0.125,-0.09 0.276375,-0.13125 0.44525,-0.13125 3.131875,0 4.90525,4.16375 4.7945,6.6775 -0.170875,3.7975 -2.435625,7.34625 -1.0825,11.1875 0.910625,2.5875 3.522375,5.74 5.728,7.33625 4.190375,3.03125 10.09325,2.27375 14.180625,-0.58 5.32225,-3.715 6.7515,-10.97875 7.377,-17.035 0.285625,-2.46375 0.254375,-5.19 -0.463875,-7.96625 -0.69,-2.7725 -2.168,-5.55375 -4.372125,-7.825 -2.19725,-2.28 -5.0815,-4.0075 -8.25725,-5.06 -3.17825,-1.0575 -6.651875,-1.47 -10.172375,-1.2325 -3.515625,0.24 -7.09775,1.1375 -10.446375,2.7725 -3.348125,1.62625 -6.4555,4.0325 -8.827125,7.16875 -2.351,3.125 -3.950125,6.7725 -4.9345,10.57375 -0.97325,3.81 -1.351625,7.7925 -1.1255,11.78875 0.116125,1.9975 0.391625,3.99875 0.845625,5.97875 0.236875,0.99375 0.499125,1.95625 0.84675,2.9675 0.17825,0.50625 0.311,0.88125 0.525375,1.41875 0.200125,0.465 0.378375,0.94 0.599625,1.39875 1.661125,3.7075 3.99075,7.15125 6.866125,10.065 2.86925,2.92 6.267125,5.2825 9.897,7.0625 3.632875,1.7825 7.499,2.99875 11.401375,3.70125 7.820375,1.4125 15.7745,0.86125 23.015625,-1.205 3.620125,-1.04875 7.079625,-2.465 10.24075,-4.285 1.585,-0.9125 3.07475,-1.89875 4.517625,-3.00125 0.375,-0.28 0.688375,-0.545 1.022875,-0.81375 0.2935,-0.2325 0.548375,-0.45625 0.806125,-0.68 -1.741125,3.22625 -3.231375,6.5825 -4.396375,10.045 -1.394625,4.05 -2.443375,8.2025 -3.17725,12.40375 -0.758875,4.19875 -1.192375,8.44625 -1.353125,12.69875 -0.06387,1.59125 -0.07563,3.185 -0.062,4.7775 -1.555625,1.75125 -2.30325,3.69875 -2.0205,5.89 0.110375,0.85875 0.421375,1.69125 1.027375,2.485 0.9805,1.29375 1.935,2.59875 2.9175,3.8925 0.07662,0.1 0.28125,0.1575 0.491625,0.26875 2.22175,-2.765 1.82575,-5.68875 0.747625,-8.685 -0.202625,-0.56 -0.6865,-1.58125 -1.057625,-2.4325 -0.01025,-2.0325 0.04,-4.06375 0.163125,-6.09125 0.2465,-4.155 0.723125,-8.29375 1.4955,-12.37375 0.758375,-4.08375 1.820375,-8.10375 3.207625,-12.00125 1.372,-3.9025 3.0995,-7.6675 5.170375,-11.22625 2.09175,-3.53875 4.5599999,-6.85625 7.4164999,-9.79125 2.86675,-2.9175 6.08200397,-5.49625 9.624504,-7.54 l 1.32662,-0.76625 1.3775,-0.7 c 0.46875,-0.23375 0.939,-0.4875 1.40525,-0.70375 l 1.3955,-0.6225 c 0.9175001,-0.43375 1.8808801,-0.80375 2.8420001,-1.17375 0.95375,-0.395 1.935,-0.70875 2.9125,-1.03375 3.915,-1.2825 7.95875,-2.18 12.0425,-2.5925 4.08125,-0.40875 8.21125,-0.32875 12.2,0.43625 3.98375,0.76125 7.8225,2.23875 11.14125,4.50875 1.70375,1.1125 3.25875,2.43375 4.74625,3.83625 1.4775,1.41 2.865,2.91625 4.1075,4.535 2.49875,3.21875 4.49875,6.8375 5.65625,10.69875 0.5625,1.9325 0.91625,3.9175 0.99875,5.91125 0.0637,1.9925 -0.14,3.98625 -0.6225,5.9125 -0.26625,0.9575 -0.56,1.9075 -0.95625,2.82125 l -0.2925,0.6875 -0.33625,0.68 -0.69625,1.41625 c -0.96125,1.75375 -2.0225,3.51125 -3.2725,5.0975 -1.2625,1.57625 -2.66875,3.0175 -4.24,4.24625 -1.5975,1.19 -3.35,2.145 -5.21375,2.82875 -3.745,1.36375 -7.87625,1.47375 -11.89875,0.91125 l -0.0438,-0.006 -0.0613,-0.006 c -0.215,-0.0163 -0.56375,-0.0737 -0.85375,-0.13625 -0.30375,-0.07 -0.60625,-0.1475 -0.9075,-0.245 -0.59875,-0.19625 -1.195,-0.43125 -1.7575,-0.72875 -1.13375,-0.5825 -2.165,-1.36 -3.07,-2.2675 l -0.65,-0.71125 -0.6,-0.76125 -0.55,-0.80375 -0.49625,-0.84125 -0.10625,-0.20875 c 0.0925,-1.08125 1.28,-3.0725 1.55875,-3.43625 3.13,-4.0825 8.23875,-2.28875 12.3925,-3.87 1.6375,-0.6225 2.93375,-1.65125 3.95875,-3.04 1.445,-1.96 0.6225,-5.135 1.73375,-6.6775 -3.35125,4.65875 -9.675,1.6575 -14.0525,4.195 -2.91125,1.68875 -6.65625,5.065 -7.21125,8.555 l -0.0387,-0.13375 -0.21625,-0.98125 c -0.13125,-0.525 -0.20125,-1.0675 -0.285,-1.60375 0.52375,-1.7825 1.255,-3.5125 1.71375,-4.45375 5.2025,-10.66375 29.43125,-8.735 20.8625,-25.8725 0.815,1.62625 -2.31625,4.01625 -3.3,4.63 -6.17875,3.86875 -14.69125,0.61125 -18.98375,7.53625 -1.32625,-2.43375 -7.7825,-6.66125 -8.8725,-7.0275 -7.11125,-2.39 -14.2165001,2.37875 -16.2658701,9.17375 -2.13913003,7.0875 2.40237,12.40125 8.9853701,14.92375 1.55175,0.5925 2.3555,-4.36 2.428,-4.91625 0.57625,-4.48125 -3.63262,-11.53375 0.80625,-15.00625 4.1725,-3.26625 10.14875,3.62375 10.645,8.26125 l 0.0212,-0.04 c -1.02375,3.72625 -1.025,7.52 -0.2875,11.32625 0.0375,0.45125 0.085,0.90125 0.13125,1.35125 0.11875,0.7125 0.185,1.43 0.35125,2.13625 l 0.22625,1.065 0.28625,1.05375 c 0.0863,0.3525 0.215,0.69625 0.33125,1.04375 0.1175,0.345 0.23,0.69375 0.37875,1.03125 0.26375,0.685 0.59,1.35 0.92375,2.0075 l 0.56,0.96375 0.62375,0.92875 c 0.2225,0.29875 0.45625,0.59125 0.68625,0.8875 0.2475,0.28 0.495,0.56375 0.7525,0.83625 0.685,0.70125 1.44875,1.3325 2.26375,1.88875 -4.72625,-1.105 -9.42125,-2.36 -14.2025,-0.98125 -7.03537,2.02875 -13.0651201,8.37125 -9.2228701,16.05125 -1.94725,-3.89 1.9985001,-7.8225 5.3378701,-9.11375 4.415,-1.70875 8.9475,1.03 13.455,1.10625 2.35375,0.0387 4.73625,-0.0975 7.0925,-0.425 -1.71125,1.0825 -3.33125,2.51125 -4.95125,4.475 -4.03,4.87375 -5.11125,11.605 -1.9075,17.40875 0.19875,0.36875 4.70625,5.65875 4.995,5.105 3.6975,-7.06 0.37875,-12.83625 0.37875,-12.83625 -3.08,-7.775 0.54,-12.23875 4.695,-14.73125 3.5475,-0.79125 6.96875,-2.0825 10.0575,-3.98 0.99375,-0.2025 1.97625,-0.46875 2.945,-0.81875 2.0925,-0.7575 4.06625,-1.8275 5.84875,-3.1525 1.58375,-1.2275 2.995,-2.645 4.26625,-4.16625 -0.30875,1.2175 -0.52625,2.44375 -0.625,3.65125 -2.66,3.26125 -6.99,6.3675 -11.385,8.15625 -0.985,0.4025 -2.15,0.74375 -3.38,1.105 -3.8825,1.14125 -8.2875,2.43375 -9.8125,6.34 -0.66,1.68625 -0.575,4.57375 0.1775,6.17625 1.3425,2.8425 3.77375,5.33375 6.1975,6.34625 0.7675,0.32125 1.7625,0.5025 2.78625,0.5025 1.36625,0 2.7875,-0.32375 3.795,-1.0775 0.99625,-0.7425 1.42875,-2.2375 0.98375,-3.405 -0.9925,-2.61 -5.65,-1.795 -10.535,-0.52625 l -0.11875,0.0437 -0.29625,0.14 c -0.63,-0.7875 -1.18875,-1.665 -1.62375,-2.5825 -0.6025,-1.285 -0.675,-3.78125 -0.1425,-5.13875 1.29,-3.305 5.36625,-4.5025 8.96,-5.55875 1.26375,-0.37 2.455,-0.72125 3.5025,-1.1475 4.04875,-1.64625 8.04875,-4.37375 10.85625,-7.34375 0.1,2.1325 0.66125,4.1675 1.89875,5.9575 4.58125,6.62625 14.9475,5.4125 18.315,-1.81375 1.7225,-3.705 0.2725,-7.04125 0.8325,-10.65625 -0.58625,3.80875 -2.09,8.1175 -6.11625,9.37375 -3.095,0.96375 -8.3225,-0.2575 -10.36375,-2.82875 -1.73,-2.185 -2.10875,-5.46 -1.72875,-8.69 0.6325,-0.975 1.22,-1.98 1.78375,-3.01125 l 0.68625,-1.3825 c 0.55,4.36875 1.4425,9.42875 3.83,11.71625 1.09625,1.04375 2.52125,1.6025 3.94125,1.6025 0.64375,0 1.2825,-0.115 1.89125,-0.35 1.84,-0.70875 3.02875,-2.35625 3.17625,-4.4075 0.3775,-5.235 -2.5975,-9.25125 -5.47125,-13.1375 -2.5975,-3.51125 -5.05375,-6.82875 -5.0775,-10.89375 -0.0213,-3.71125 1.97125,-6.15375 5.33,-6.535 0.9775,-0.1075 2.01625,-0.015 3.0275,0.27 l -0.0338,0.0588 c -0.38625,0.66375 -0.69125,1.38 -0.9725,2.0975 -0.45,1.1525 -0.38,2.2575 0.38625,3.2875 0.36375,0.49125 0.7725,0.9175 1.2525,1.3025 1.50375,1.20625 3.21,1.98625 5.04375,2.51875 0.3175,0.0925 0.63625,0.195 0.94,0.3225 0.26,0.11 0.5075,0.26125 0.8725,0.455 0.0763,0.0413 0.21375,-2.0075 0.215,-2.15625 0.006,-0.79375 -0.0362,-1.59 -0.17,-2.37375 l 0.015,-0.001 -0.0337,-0.11375 -0.002,-0.025 c -0.14875,-0.81 -0.45375,-1.60375 -0.86875,-2.33625 -2.02625,-3.93125 -6.29125,-5.675 -9.89125,-5.265 -3.07375,0.34875 -5.36125,2.13875 -6.42,4.8175 -1.28375,-3.6925 -3.23625,-7.1075 -5.59625,-10.16875 -1.31625,-1.72375 -2.7825,-3.325 -4.345,-4.82375 -1.56625,-1.48875 -3.2325,-2.90875 -5.0475,-4.105 -3.62625,-2.49625 -7.805,-4.1075 -12.0725,-4.935 -4.27875,-0.83375 -8.65125,-0.92375 -12.93875,-0.5075 -3.39875,0.335 -6.75125,0.98875 -10.0275,1.9025 2.94125,-1.3525 6.3725,-2.66125 10.2275,-3.68125 12.22875,-3.2325 31.3075,-4.09875 53.14375,9.8225 2.52875,2.3525 4.83875,5.51 6.1225,9.72375 0,0 5.915,16.8625 18.833751,19.70875 -0.835,-0.25125 -0.14125,-7.28625 -0.14125,-8.24 -0.0275,-10.475 -9.318751,-17.85 -18.056251,-22.15875 -1.4825,-0.73125 -2.97,-1.33375 -4.46625,-1.85625 0.76125,0.0975 1.54,0.1725 2.32625,0.25125 0.8225,0.0588 1.65625,0.0925 2.49625,0.12 0.84125,-0.01 1.69375,-0.004 2.545,-0.0412 0.8525,-0.0738 1.7075,-0.1075 2.5625,-0.21375 0.84875,-0.11625 1.7025,-0.21625 2.5425,-0.38625 0.42,-0.0788 0.84125,-0.1525 1.2575,-0.24125 0.4125,-0.10125 0.825,-0.20375 1.23625,-0.30625 1.64125,-0.4 3.220001,-0.94375 4.707501,-1.54125 1.49375,-0.59625 2.88125,-1.29625 4.1625,-2.0075 1.26875,-0.73875 2.43375,-1.4825 3.4475,-2.25375 1.565,-1.15875 2.80375,-2.31125 3.73,-3.2925 1.02,-0.98125 1.94125,-2.03375 2.70625,-3.12 2.50875,-3.5675 4.39875,-7.8175 5.87875,-11.9075 1.005,-2.7775 2.3675,-6.4375 5.185,-7.8475 0,0 -16.8625,-4.8175 -30.438751,15.9875 0,0 -0.52625,0.78375 -1.545,1.93625 0.73375,-1.3775 1.3125,-2.84375 1.7275,-4.35125 0.8525,-3.09375 1.035,-6.37625 0.515,-9.52625 -0.35125,-2.17 -1.07,-4.2775 -2.11625,-6.18 -0.805,-3.88875 -1.17125,-8.875 1.57375,-12.1075 3.563751,-4.2 8.968751,-2.395 11.507501,1.72625 0.75375,1.2225 3.14375,5.3675 2.58125,6.92375 6.54375,-18.115 -8.99875,-17.9025 -8.99875,-17.9025 -12.152501,0.015 -10.122501,14.87125 -10.122501,14.87125 l 0.003,0.0412 c -1.82625,-6.0175 -1.2725,-13.13875 1.64375,-19.66125 3.3275,-7.43875 9.248751,-13.035 15.841251,-14.97 11.39,-3.34125 26.535,-0.68125 32.175,10.8325 2.8925,5.90625 2.87625,12.17875 0.005,16.93875 -1.7625,1.43875 -3.61875,1.98375 -5.6125,0.845 -0.9825,-0.56125 -1.96875,-1.09125 -2.94625,-1.69125 -3.6025,-2.2125 -7.51,-3.15625 -11.04875,0.1225 0.0675,0.195 0.23125,0.80875 0.38625,1.355 0.0238,0.13375 0.07,0.25625 0.1125,0.38125 0.0825,0.28125 0.15625,0.4975 0.195,0.55375 1.375,3.6 4.00125,5.85125 7.4875,6.36875 4.56625,0.6775 9.78875,-1.8975 12.7125,-6.265 0.68,-1.0175 1.23625,-2.1 1.67625,-3.23125 0.0737,-0.1225 0.13875,-0.27625 0.1675,-0.48875 1.68375,-4.795 1.24375,-10.4275 -1.365,-15.75625 -6.11375,-12.4825 -22.34,-15.42375 -34.5,-11.85625 -7.14,2.095 -13.523751,8.0975 -17.083751,16.05625 -3.105,6.94125 -3.6875,14.54625 -1.7375,21.0125 -0.825,-0.5575 -1.69,-1.02625 -2.57625,-1.41125 l 0.14,0.0288 -0.19625,-0.0513 c -0.17,-0.0737 -0.33625,-0.14875 -0.50875,-0.215 -0.47875,-0.27125 -0.97,-0.525 -1.46375,-0.77125 -2.3225,-1.85375 -3.62875,-5.635 -3.57,-8.1625 0.10625,-4.59625 3.28875,-8.49625 3.23,-13.13125 -0.0637,-5.205 -0.7075,-11.7025 -4.935,-15.33625 0.2575,0.22125 -5.5625,10.52875 -6.04625,11.56125 -1.1775,2.5325 -2.08625,4.95375 -2.18,7.755 -0.175,5.135 0.69125,9.7275 4.54875,13.395 0.5175,0.4925 1.08,0.92625 1.66,1.33375 -3.275,-0.72875 -6.69,-0.95375 -10.09625,-0.60625 -1.305,0.13375 -2.79875,0.415 -4.3675,0.83625 0.80125,-5.62375 0.4825,-11.67 -1.57125,-16.44125 -2.6575,-6.16875 -7.895,-10.44 -14.85625,-12.34875 -2.52625,-1.8075 -5.185,-2.505 -8.0025,-1.7975 -1.08125,0.27125 -2.1,0.7975 -3.0275,1.69 -1.50625,1.45875 -3.0325,2.87625 -4.54,4.33125 -0.1175,0.1125 -0.16,0.3825 -0.27,0.6675 3.8775,2.4275 7.56125,1.47875 11.23625,-0.35625 0.995,-0.5 2.00625,-0.94375 3.00875,-1.41 1.17125,-0.54625 2.32,-0.64875 3.44875,-0.4475 5.1925,2.0025 9.095,5.57875 11.19125,10.45125 2.02875,4.70875 2.23625,10.7625 1.31,16.285 -5.4125,1.81 -11.1575,5.15625 -13.09125,9.7625 -0.89125,2.125 -1.22125,5.09375 0.0525,6.9325 0.5075,0.73375 1.48875,1.58875 3.28625,1.58875 l 0.22875,-0.004 c 3.42125,-0.1325 6.30875,-4.22375 8.13,-7.6325 1.34125,-2.515 2.42625,-5.69375 3.10125,-9.12625 1.7525,-0.52125 3.45125,-0.86875 4.9325,-1.02 3.39625,-0.3475 6.8,-0.0838 10.045,0.70125 -2.295,0.06 -4.4225,0.44125 -6.2725,1.0925 -0.97625,0.3475 -1.88,0.76875 -2.6775,1.26375 -5.3825,3.33625 -7.98375,11.42625 -5.80625,17.31 2.0675,5.58375 7.63,8.55625 13.4575,7.89125 3.155,-0.36 8.54125,-1.135 10.61125,2.04125 -0.195,-0.29875 0.10375,-2.12125 0.0163,-2.59375 -0.42,-2.22875 -1.85875,-4.07375 -3.665,-5.365 -4.455,-3.185 -18.24125,-5.14875 -14.46875,-13.89625 1.40625,-3.26125 6.06625,-4.36625 9.27125,-4.475 2.11375,-0.0725 4.5225,0.13 6.7375,0.83125 2.23375,0.73 4.4125,2.1125 6.09875,4.09375 1.69625,1.97375 2.9025,4.52625 3.45875,7.28875 0.56625,2.76125 0.51875,5.72 -0.14375,8.54 -0.66,2.82 -1.9475,5.5075 -3.8,7.6775 -1.82375,2.1825 -4.295,3.70875 -6.9,4.615 -2.61,0.92625 -5.33625,1.2575 -7.91625,1.34875 -2.58625,0.0687 -5.05,-0.10625 -7.3075,-0.38 -0.42875,-0.05 -0.84125,-0.1075 -1.25625,-0.165 l -0.27,-0.0725 0.22625,0.0662 c -1.32875,-0.185 -2.5775,-0.4 -3.74375,-0.62125 -11.585,-3.98125 -21.93625,-4.25125 -30.3075,-3.0625 4.74125,-3.79875 7.46125,-8.0275 6.39625,-14.75 -0.3725,-2.3525 -1.11875,-4.62375 -2.19625,-6.7475 -0.1425,-0.2825 -1.615,-2.27875 -1.5075,-2.58 -1.50875,4.14625 -3.66875,8.07625 -4.80625,12.35375 -1.09375,4.0975 -0.7325,8.00125 -0.2025,12.09625 -1.72375,0.31125 -3.35625,0.68125 -4.885,1.0875 -1.93875,0.515 -3.76375,1.09875 -5.47875,1.72125 l 0.14375,-0.14 c 1.5575,-1.5725 3.10875,-3.3775 4.44,-5.5225 1.31875,-2.135 2.445,-4.645 2.80375,-7.47625 0.1725,-1.39875 0.19,-2.8475 -0.0225,-4.315 -0.20125,-1.46375 -0.65125,-2.95375 -1.4375,-4.335 -0.21,-0.33625 -0.415,-0.67625 -0.69625,-1.01 -0.135,-0.18 -0.2575,-0.30875 -0.37875,-0.43875 l -0.18625,-0.2 c -0.1125,-0.12375 -0.1575,-0.15375 -0.24,-0.23625 -0.59125,-0.5625 -1.265,-1.03875 -1.99,-1.41375 -1.46625,-0.73375 -3.10375,-1.025 -4.7125,-0.9975 -1.60875,0.045 -3.205,0.41375 -4.69375,1.06375 -0.74125,0.31625 -1.46875,0.7525 -2.125,1.235 -0.58112,0.4525 -1.13287,0.95 -1.6525,1.48375 -0.204,-0.4325 -0.4155,-0.8625 -0.6312501,-1.28875 -0.80475,-1.5875 -1.76125,-3.16625 -2.8575,-4.595 -1.0815,-1.435 -2.23725,-2.79375 -3.3965,-4.135 -2.32562,-2.67875 -4.686999,-5.29375 -6.797874,-8.0525 -2.099,-2.75125 -4.003875,-5.67 -5.004875,-8.8175 -0.493625,-1.56875 -0.731875,-3.18625 -0.599125,-4.75875 0.1265,-1.5725 0.63,-3.0875 1.414125,-4.455 0.390125,-0.685 0.846625,-1.33625 1.346625,-1.9525 0.2515,-0.295 0.495625,-0.5875 0.796875,-0.9025 l 0.214925,-0.23205 0.19625,-0.19125 0.424875,-0.40875 c 1.166,-1.0575 2.484875,-1.93375 3.89162497,-2.6175 2.81637403,-1.36875 5.92962403,-2.02375 8.97162403,-2.105 3.0448801,-0.09 6.0417501,0.39 8.7417501,1.3675 0.665,0.24625 1.33875,0.525 1.94375,0.83 l 0.2075,0.10375 c 1.73875,3.92125 -1.75375,6.13625 -4.75375,7.76625 -3.53187,1.91875 -7.2988701,5.3225 -6.8560001,9.75625 0.36663,3.68875 4.0422501,6.69125 3.0561301,10.6325 0.46575,-1.855 0.52737,-3.4975 1.54737,-5.25125 2.01875,-3.4675 6.14,-4.85 8.47875,-8.05 2.6275,-3.59125 3.61125,-8.9975 1.60125,-12.7975 1.225,2.3175 2.6,3.47 2.67,6.33375 0.0887,3.61375 -1.27625,7.05 -3.49625,9.84875 -1.9975,2.52 -4.6475,4.80125 -5.02875,8.195 -0.58375,5.2 3.70625,8.55125 7.98625,10.48125 -1.14375,-0.51625 -0.8575,-3.84 -0.72375,-4.815 0.36125,-2.65 2.45875,-4.62125 3.95625,-6.79 0.13875,0.51625 0.29125,1.04875 0.44375,1.46625 l 0.14125,0.4075 0.18,0.43125 c 0.13,0.27875 0.265,0.55375 0.42,0.81375 0.6175,1.04 1.4225,1.9 2.3175,2.5375 1.7925,1.27625 3.86625,1.78625 5.725,1.58875 0.93125,-0.0913 1.80125,-0.3775 2.54625,-0.7725 0.37,-0.2075 0.71625,-0.42625 1.01375,-0.6825 0.15,-0.12125 0.29875,-0.25 0.445,-0.40125 l 0.2125,-0.21375 0.1475,-0.17375 c 0.9375,-1.075 1.4025,-2.21 1.64875,-3.12 0.1025,-0.37 0.16375,-0.7 0.20625,-1.00625 1.425,-1.18375 2.6575,-4.22875 2.6575,-6.77875 0,-3.2375 -2.48,-5.86125 -4.32375,-5.86125 -1.84375,0 -3.33875,2.62375 -3.33875,5.86125 0,1.55125 0.33125,3.15375 1.0575,4.5225 0.46,0.86875 1.62375,1.84625 1.6425,2.8875 0.0275,1.69 -2.63,3.1875 -4.135,3.30125 -1.23625,0.1 -2.71875,-0.295 -3.9625,-1.24375 -0.61875,-0.4675 -1.16875,-1.07375 -1.57,-1.785 -0.20625,-0.37125 -0.355,-0.69875 -0.495,-1.1725 -0.17625,-0.52 -0.2825,-0.945 -0.4025,-1.425 -0.35375,-1.4725 -0.52875,-3.08625 -0.63375,-4.8075 0.30125,-2.6925 0.105,-5.8275 -0.5025,-8.76 -0.0263,-0.23375 -0.0425,-0.45875 -0.0712,-0.695 -0.18875,-1.375 -0.47,-2.8025 -0.965,-4.2275 -0.50125,-1.42125 -1.22625,-2.835 -2.20875,-4.09875 -0.9725,-1.27375 -2.20875,-2.36 -3.56,-3.2375 -0.34875,-0.21125 -0.66625,-0.42875 -1.05,-0.63375 -0.32,-0.1775 -0.645,-0.3575 -1.0375,-0.5425 -0.74625,-0.36875 -1.475,-0.66375 -2.2425,-0.945 -3.05,-1.0825 -6.36,-1.59 -9.7310001,-1.475 -3.36675,0.1025 -6.81987,0.8625 -10.015624,2.45 -1.59575,0.79375 -3.109875,1.81625 -4.459,3.06375 l -0.49075,0.48375 -0.266125,0.2675 -0.21375,0.2325 c -0.276375,0.2925 -0.5855,0.65875 -0.88975,1.0275 -0.574125,0.7225 -1.1015,1.48875 -1.563,2.31375 -0.9232499,1.64125 -1.5379999,3.53625 -1.6708749,5.475 -0.144,1.94 0.172375,3.87625 0.754,5.66125 0.333375,1.02625 0.7548749,2.005 1.2244999,2.9525 -10.2528749,-10.6 -20.6112499,-11.8825 -24.9959999,-11.8825 -1.383875,0 -2.172875,0.12625 -2.172875,0.12625 -3.382875,0.55125 -6.497625,0.79 -9.361375,0.79 -19.370625,0 -27.1035,-10.97375 -27.1035,-10.97375 1.63675,23.32125 36.24025,15.16 50.590375,21.025 5.313,2.17125 14.4687499,7.40875 19.9228749,10.71625 1.40812497,1.655 2.84712397,3.26875 4.255374,4.88 1.15375,1.32125 2.287,2.64625 3.31488,4.00375 0.51325,0.6775 1.0005,1.365 1.43112,2.05875 0.44638,0.72125 0.84425,1.44375 1.24075,2.205 0.36525,0.705 0.7105,1.42125 1.03563,2.1475 -1.48925,2.095 -2.53225,4.55375 -2.9155,7.21125 -0.24663,1.68125 -0.17188,3.475 0.31637,5.18 0.252,0.8525 0.606,1.69 1.14063,2.455 0.2715,0.38 0.58887,0.74375 0.98687,1.04875 0.3955,0.3025 0.88675,0.56125 1.46438,0.6125 0.5761201,0.0513 1.1673701,-0.1525 1.5951201,-0.47375 0.4375,-0.32 0.74625,-0.72375 1.00125,-1.13125 0.25625,-0.40375 0.44625,-0.88125 0.595,-1.255 0.165,-0.47125 0.2875,-0.8925 0.375,-1.3525 0.35,-1.81 0.23125,-3.64 -0.0675,-5.4 -0.39125,-2.17 -1.0375,-4.27 -1.85337,-6.3075 0.18212,-0.21625 0.36962,-0.42875 0.56337,-0.63 0.4825,-0.49625 0.99625,-0.93875 1.5275,-1.34125 l 0.4,-0.2675 c 0.0988,-0.0675 0.23625,-0.13375 0.37625,-0.20375 0.27125,-0.1375 0.555,-0.2575 0.85875,-0.33 0.58875,-0.175 1.22625,-0.1975 1.8325,-0.1425 0.61375,0.105 1.19875,0.23375 1.72,0.5 1.05625,0.49125 1.78875,1.24875 2.235,1.8225 0.12125,0.1375 0.21,0.29375 0.31375,0.40875 0.0825,0.14125 0.1775,0.255 0.26,0.3725 l 0.0325,0.0425 0.015,0.0213 c 0.03,0.0337 -0.22625,-0.245 -0.0975,-0.1 l 0.17125,0.21375 0.17375,0.20375 0.035,0.0538 0.0587,0.0987 0.1425,0.19375 c 0.76375,1.10625 1.15,3.18625 0.96875,5.06375 -0.14,1.8 -0.74,3.7025 -1.6975,5.47 -0.96375,1.75625 -2.12875,3.44125 -3.38125,4.93875 -0.62625,0.74875 -1.275,1.455 -1.92625,2.12 -0.63125,0.66375 -1.3025,1.34125 -1.895,1.8925 -0.3475,0.3125 -0.68875,0.62125 -1.0225,0.9225 -0.31125,0.26375 -0.615,0.52375 -0.91125,0.77625 -0.5825,0.5075 -1.2095,0.98 -1.7715,1.44625 -2.3266201,1.77375 -4.3353701,2.9875 -5.7563701,3.7275 -0.24025,0.1425 -0.4575,0.25875 -0.665,0.3625 1.19537,-7.97375 -0.25638,-17.0725 -1.03663,-21.03125 -3.06937403,-15.57375 -16.6337489,-27.62875 -33.7499989,-30 -5.507375,-0.76125 -11.257375,-0.315 -16.819875,0.11375 -7.595125,0.58875 -15.44775,1.19625 -22.577125,-1.3325 -7.547375,-2.6775 -13.145,-8.77 -15.535125,-16.535 1.3965,-2.715 2.670375,-5.2975 2.92675,-8.4025 0.2525,-3.0575 -0.23925,-6.1275 -0.255875,-9.1875 0,0.2225 -1.42775,1.1825 -1.588375,1.33375 -1.19875,1.13375 -2.21525,2.4425 -3.00825,3.89125 -1.264625,2.31625 -1.570875,4.3975 -1.213375,6.41 l -0.0059,0 c 0.9375,11.4075 7.84275,20.7375 18.0225,24.3475 7.522375,2.6675 15.58975,2.0425 23.389625,1.44125 5.4555,-0.4225 11.1005,-0.85875 16.3935,-0.12625 16.28425,2.255 29.1807499,13.67875 32.0873739,28.42625"
         style="fill:#cf9e1b;fill-opacity:1;fill-rule:nonzero;stroke:none"
         id="path1130"
         inkscape:connector-curvature="0" />
      <path
         d="m -30.97635,359.31085 c 0,0 -0.03525,-0.16 -0.102125,-0.46375 -0.043,-0.30625 -0.204625,-0.74 -0.450125,-1.26875 -0.545,-1.04 -1.6925,-2.35375 -3.567875,-3.47125 -0.925875,-0.5725 -2.01175,-1.11 -3.231,-1.6025 -0.607875,-0.24875 -1.248,-0.4925 -1.924875,-0.70625 -0.335875,-0.115 -0.67575,-0.21 -1.018,-0.31 -0.34225,-0.0925 -0.756875,-0.20875 -1.09275,-0.27875 -1.5025,-0.34375 -3.111375,-0.69375 -4.828125,-1.0225 -1.716875,-0.33125 -3.545875,-0.65375 -5.45175,-1.0875 -1.907625,-0.425 -3.908625,-0.9125 -5.960375,-1.585 -2.047375,-0.70375 -4.129875,-1.58375 -6.169,-2.8225 l -0.77775,-0.495 c -0.26375,-0.16625 -0.523,-0.3325 -0.735875,-0.5 l -0.67675,-0.50125 -0.340375,-0.2525 -0.09375,-0.0725 -0.043,-0.0375 -0.08537,-0.075 -0.173375,-0.15125 c -0.46725,-0.40125 -0.92825,-0.81 -1.3535,-1.255 -0.44925,-0.42625 -0.848625,-0.89375 -1.25975,-1.3575 -1.6275,-1.8675 -2.96875,-3.97875 -4.15725,-6.18875 -1.186,-2.21125 -2.160125,-4.555 -3.01075,-6.96125 -0.212375,-0.605 -0.40725,-1.21 -0.605875,-1.82375 -0.186625,-0.62 -0.384375,-1.25125 -0.5455,-1.84625 l -0.1245,-0.45375 -0.06837,-0.2475 -0.05813,-0.24375 -0.222125,-0.97125 c -0.165,-0.6475 -0.2715,-1.30375 -0.367625,-1.9625 -0.808625,-5.27875 -0.30175,-10.71625 1.066875,-15.8375 1.367625,-5.13 3.516125,-10.02625 6.32125,-14.40125 2.771,-4.39875 6.181625,-8.28625 9.96775,-11.48125 3.821375,-3.15375 8.07675,-5.58125 12.455625,-6.88625 1.0805,-0.36375 2.189,-0.57625 3.272875,-0.81625 1.11525,-0.17 2.22075,-0.35375 3.24175,-0.39125 2.144,-0.1325 4.169,-0.0688 6.128375,0.0975 3.905375,0.3125 7.425875,1.12625 10.42675,2.13875 2.998125,1.035 5.4815,2.26125 7.421875,3.435 0.974125,0.575 1.799375,1.16375 2.519125,1.6625 0.7055,0.525 1.296875,0.9825 1.7685,1.35625 0.917,0.78625 1.404875,1.20375 1.404875,1.20375 0,0 -0.51475,-0.38625 -1.4795,-1.11125 -0.495125,-0.3425 -1.110875,-0.7575 -1.839875,-1.23125 -0.7495,-0.44875 -1.599125,-0.97625 -2.598125,-1.48375 -1.9835,-1.0375 -4.473125,-2.14375 -7.457125,-3.00875 -2.982375,-0.8475 -6.44575,-1.475 -10.2495,-1.59375 -1.8915,-0.0712 -3.901375,-0.0325 -5.901375,0.1875 -1.059,0.0763 -2.034125,0.2875 -3.038,0.47125 -1.004,0.26375 -2.039125,0.49625 -3.042,0.87375 -4.070375,1.355 -7.973625,3.81125 -11.515125,6.8725 -3.51075,3.11375 -6.65825,6.8875 -9.184125,11.13 -0.811,1.34375 -1.557625,2.7375 -2.2505,4.16125 -0.205125,5.08 2.24075,9.87125 8.078125,10.3 0.253375,0.0175 0.503,0.0263 0.754375,0.0263 5.47275,0 9.735875,-4.3275 14.72125,-4.3275 1.82425,0 3.7475,0.58 5.859875,2.165 l -0.202625,-0.06 c -1.9005,0 -11.129875,10.4775 -12.938,11.3025 -1.275,0.58125 -2.5435,0.84125 -3.775,0.84125 -4.471125,0 -8.50525,-3.39875 -10.96525,-7.145 -2.686,-4.08375 -2.832,-7.83 -2.07525,-11.95375 -1.230875,2.70125 -2.23625,5.5175 -2.949125,8.4025 -1.226125,4.825 -1.560625,9.86375 -0.80725,14.605 0.08887,0.59375 0.187125,1.18375 0.3385,1.75875 l 0.205,0.86875 0.04988,0.21625 0.05763,0.20875 0.13075,0.4525 c 0.165625,0.615 0.34625,1.17875 0.5255,1.75125 0.186,0.57375 0.375875,1.1525 0.579,1.71875 0.8165,2.26875 1.74175,4.46375 2.84575,6.4975 1.1045,2.03 2.339375,3.94125 3.7725,5.57 0.36325,0.4025 0.71525,0.8125 1.103,1.17375 0.369625,0.38625 0.764625,0.72875 1.160125,1.06625 l 0.2495,0.21875 0.3345,0.25625 0.672375,0.5125 c 0.2265,0.1825 0.436,0.3175 0.642125,0.44875 l 0.6205,0.40625 c 1.728125,1.08375 3.61475,1.92625 5.49325,2.6025 1.8715,0.70625 3.75775,1.2625 5.596625,1.76 3.68075,0.98 7.162125,1.8375 10.191,2.87 3.083,1.07125 5.553125,2.49125 7.36275,3.98125 0.912125,0.72875 1.631875,1.50875 2.15675,2.25625 0.55075,0.7275 0.855875,1.46125 1.05125,2.04875 0.152375,0.6075 0.236375,1.07125 0.214375,1.3925 0,0.3125 0.0015,0.475 0.0015,0.475"
         style="fill:#d09f1a;fill-opacity:1;fill-rule:nonzero;stroke:none"
         id="path1134"
         inkscape:connector-curvature="0" />
      <path
         d="m -99.06085,473.0271 c 0.224625,-0.5025 2.395,-4.17375 2.4595,-4.14125 5.52825,5.74125 3.96575,12.21375 3.96575,12.21375 -0.0605,0.6475 -0.0435,1.26625 0.03225,1.86375 1.017125,2.4275 3.273875,5.69 7.50725,7.905 2.103625,1.12125 4.623625,2.0275 7.477625,2.6475 2.84225,0.6075 6.064875,0.9825 9.379375,0.9575 6.807625,-0.215 14.727,-1.20375 22.420875,-4.09125 1.910125,-0.7375 3.82275,-1.56625 5.618625,-2.61125 0.467875,-0.2375 0.88625,-0.5375 1.3345,-0.80625 0.206125,-0.13 0.4805,-0.28875 0.629375,-0.39625 l 0.728125,-0.49 c 0.462875,-0.325 0.8295,-0.5875 1.265625,-0.92 0.428125,-0.32875 0.855875,-0.65875 1.27725,-1.0125 1.683125,-1.38875 3.294,-2.95375 4.829125,-4.6475 1.515625,-1.71 2.972125,-3.54125 4.311,-5.4975 2.673875,-3.91875 4.90775,-8.32625 6.523,-13.0375 0.80025,-2.36 1.402375,-4.80125 1.794,-7.2975 0.2275,-1.39125 0.372,-2.555 0.493625,-3.86875 0.121,-1.29625 0.19475,-2.6075 0.21825,-3.92375 0.26075,-10.5575 -2.674875,-21.60125 -7.911125,-31.75 -2.57425,-5.10875 -5.702625,-10.00375 -9.119625,-14.72375 -3.3785,-4.7425 -7.25,-9.15 -11.358,-13.33625 -2.065875,-2.085 -4.171875,-4.13375 -6.289,-6.17375 -2.13325,-2.025 -4.267125,-4.05 -6.376,-6.10125 -4.19975,-4.10875 -8.297375,-8.3475 -11.88225,-12.97 -0.674375,-0.8725 -1.32425,-1.76375 -1.9585,-2.66 1.267,2.19 2.646875,4.41 4.15325,6.66625 3.015125,4.51125 6.347125,8.93875 9.65875,13.25375 l 0.0425,-0.035 c 0.07225,0.0875 0.606875,0.75 1.285625,1.76625 0.2295,0.29875 0.460375,0.59875 0.688375,0.89625 0.964875,1.25125 1.924875,2.5 2.8795,3.74875 1.785125,2.3375 3.67475,4.71375 5.4995,7.01125 6.88475,8.66625 14.004875,17.62875 18.451125,27.8525 5.315,12.2225 4.90825,27.65625 -1.05275,40.27625 l -0.06925,-0.0312 c 0.524875,1.88875 0.0415,5.68875 -3.445875,9.16 -2.47025,2.46375 -5.335875,3.995 -7.477,3.995 -0.8995,0 -1.651375,-0.2775 -2.174375,-0.80375 -1.80225,-1.81 -0.391125,-6.045 3.21975,-9.64375 2.44925,-2.44125 5.706,-4.21375 7.746125,-4.21375 0.262125,0 0.48575,0.035 0.687,0.0838 5.458,-12.00875 5.7675,-26.51375 0.75775,-38.03625 -4.34025,-9.985 -11.379875,-18.845 -18.185,-27.41125 -1.018125,-1.2825 -2.05125,-2.5875 -3.078625,-3.89625 0.748,2.28625 1.2725,4.59125 1.568375,6.9575 10.380375,30.59625 -16.711875,39.11 -16.71875,39.11125 l -10e-4,0 c -0.1855,0 -0.231,-6.19125 -0.168,-6.9375 0.257875,-3.045 1.1685,-5.98875 2.519625,-8.71875 2.260625,-4.565 6.0395,-7.11625 9.07225,-11.05875 1.601,-2.0775 2.893,-4.69625 3.620125,-7.46875 0.0063,-3.49125 -0.453625,-6.795 -1.390125,-10.04375 -0.359375,0.9675 -0.964875,1.78 -1.808625,2.43375 -2.806125,10.74875 -16.30575,3.48875 -16.30575,3.48875 2.03275,-4.845 11.507375,-5.1775 15.172375,-5.12125 0.528875,-0.43125 0.90875,-0.94125 1.11775,-1.53875 0.909625,-2.57875 -1.0865,-6.47125 -2.716875,-8.92875 -3.751375,-4.8725 -7.58925,-9.89875 -11.032125,-15.05 -7.4185,-11.105 -11.962,-21.405 -13.893125,-31.49125 l 0.04638,-0.01 c -0.430125,-1.5175 -0.815875,-3.04125 -1.147,-4.57 -1.149875,-5.47875 -1.67575,-11.01625 -1.432625,-16.42875 0.107,-2.70625 0.4005,-5.37875 0.89025,-7.98625 0.484375,-2.60625 1.105875,-5.16375 1.94725,-7.61375 0.8295,-2.4525 1.77975,-4.835 2.929125,-7.07875 l 0.416,-0.845 0.454125,-0.82375 c 0.305625,-0.5475 0.59625,-1.08875 0.9155,-1.63625 0.61875,-1.03625 1.30225,-2.105 1.983,-3.0975 2.75825,-4.0125 5.886625,-7.59 9.38175,-10.5225 1.74125,-1.46875 3.57625,-2.77125 5.49325,-3.865 0.9555,-0.54625 1.9345,-1.04 2.930625,-1.47 0.985875,-0.44 2.04,-0.78 2.973125,-1.085 3.972125,-1.25 7.850625,-1.95125 11.546375,-2.1 3.6885,-0.1425 7.160625,0.1775 10.26025,0.9025 3.108375,0.70125 5.86675,1.70375 8.2295,2.8475 2.370625,1.1275 4.371125,2.34375 6.0195,3.515 1.664125,1.1575 2.975625,2.26875 4.01525,3.18875 0.5195,0.45875 0.970125,0.8725 1.345125,1.2475 0.380875,0.36625 0.69875,0.67875 0.942875,0.94 0.495125,0.5125 0.7535,0.7775 0.7535,0.7775 0,0 -0.287125,-0.23125 -0.841375,-0.68125 -0.55025,-0.45125 -1.389625,-1.1 -2.502375,-1.90625 -2.228625,-1.5975 -5.611375,-3.84875 -10.32475,-5.7275 -4.6865,-1.85875 -10.786625,-3.28375 -17.76175,-2.74375 -3.46875,0.26125 -7.163125,0.9575 -10.84525,2.20625 -0.973125,0.34125 -1.86025,0.63375 -2.761625,1.0375 -0.897,0.395 -1.785625,0.8475 -2.65925,1.35375 -1.7505,1.01 -3.453125,2.22875 -5.0795,3.615 -3.249125,2.77875 -6.267625,6.15625 -8.90875,9.98625 -0.669,0.97 -1.284125,1.9225 -1.909125,2.96125 -0.293,0.51125 -0.5855,1.0225 -0.8785,1.5375 l -0.44525,0.77625 -0.40625,0.79875 c -1.124,2.11875 -2.056625,4.375 -2.883875,6.7025 -3.273375,9.33375 -3.9165,20.1375 -1.835375,30.82125 0.298375,1.53875 0.658625,3.07625 1.066875,4.60875 l 0.0185,-0.005 0.0645,0.3125 c 2.4365,8.9875 6.71875,17.755 12.55175,25.5 3.465875,4.59 7.505875,8.79125 11.65425,12.9125 2.082625,2.05375 4.19975,4.08875 6.32325,6.1275 2.134375,2.025 4.265625,4.065 6.36425,6.145 2.09675,2.08375 4.175375,4.18625 6.172375,6.385 l 1.49025,1.6625 1.424375,1.6825 c 0.96725,1.14375 1.890125,2.27625 2.814875,3.4325 3.684125,4.6175 7.0655,9.46875 10.07375,14.52875 2.97175,5.07375 5.542,10.39125 7.399875,15.94625 1.858,5.5475 3.017125,11.3225 3.298375,17.095 0.07325,1.4425 0.08938,2.88375 0.05325,4.3175 -0.02638,1.41875 -0.124,2.97125 -0.246125,4.26875 -0.11475,1.44125 -0.327625,2.8775 -0.6015,4.28 -0.269125,1.40875 -0.591875,2.79625 -0.977125,4.1525 -1.504875,5.4525 -3.887125,10.48125 -6.786125,15.0075 -1.44925,2.26625 -3.045875,4.4025 -4.784625,6.37875 -1.74025,1.9725 -3.590875,3.815 -5.591375,5.44375 -0.492625,0.41375 -1.000875,0.8075 -1.51025,1.19625 -0.501375,0.38125 -1.09425,0.80375 -1.587875,1.1475 l -0.728,0.4875 -0.2315,0.15625 -0.207,0.1225 -0.409625,0.2475 c -0.550375,0.32 -1.0825,0.6775 -1.644125,0.9575 -2.204,1.21875 -4.450625,2.18375 -6.6845,2.95875 -4.46975,1.56625 -8.871625,2.415 -13.055625,2.8775 -2.09375,0.23125 -4.13625,0.35125 -6.11925,0.3925 -0.98575,0.035 -1.989625,0.0175 -2.96775,0.004 -0.355,-0.0125 -0.709,-0.0263 -1.0605,-0.0375 -7.6455,0.0913 -15.195375,-1.63125 -21.747625,-5.6025 -3.5835,-2.17375 -6.282125,-4.7525 -8.433,-8.43125 -1.879875,-3.22125 -3.827255,-9.57 -2.24025,-13.08625"
         style="fill:#d09f1a;fill-opacity:1;fill-rule:nonzero;stroke:none"
         id="path1136"
         inkscape:connector-curvature="0" />
      <path
         d="m 147.34765,161.47085 c 1.52625,-7.22875 6.4,-19.575 12.4525,-24.38125 l 1.635,2.0575 c -1.19875,0.95125 -2.355,2.2625 -3.4475,3.79875 -5.14375,9.43625 -6.6925,18.67875 -4.605,27.47 2.03875,8.56875 7.41,16.30375 15.9675,22.99375 2.76375,2.16 5.6675,3.8975 8.63875,5.26375 2.28875,-0.47625 4.735,-3.2925 5.35375,-4.905 1.0225,-2.64625 0.8275,-5.40125 0.0738,-8.07625 -1.64,-5.81875 -6.7675,-13.40375 0.19375,-17.78875 -2.535,1.5975 4.3675,7.26375 5.07625,7.90625 5.1575,4.68 5.83875,10.60875 3.04,16.9425 -1.27375,2.87875 -3.6075,4.90125 -6.3375,5.93625 0.13,0.004 0.26375,0.01 0.39875,0.01 4.56375,0 9.25125,-1.395 12.285,-4.9 10.0425,-11.60125 7.47875,-35.71875 26.9625,-35.71875 1.01625,0 2.09,0.065 3.23,0.2025 0.5575,0.0662 2.37875,0.72125 3.32,0.72125 0.1775,0 0.325,-0.025 0.42625,-0.08 -11.9725,6.6175 -5.05,18.5625 -12.1525,28.25125 -4.79375,6.53875 -16.02625,11.965 -24.07375,12.67125 -0.44125,0.0387 -0.875,0.055 -1.30375,0.055 -3.17375,0 -6.08,-0.93375 -9.17,-1.18 -1.7775,0.66 -3.72,0.90125 -5.65,0.68125 14.4975,5.94125 30.23375,3.1625 38.775,-4.345 8.20875,-7.21625 10.42375,-17.11125 12.765,-27.585 0.85875,-3.8325 2.43875,-9.20125 6.2425,-11.56875 1.92,-1.19625 4.1725,-1.49375 6.7025,-0.885 l -0.0612,0.25125 0.23875,0.0475 c 0.555,0.1825 0.85875,0.7675 0.68125,1.30375 -0.17625,0.53875 -0.77125,0.82375 -1.32375,0.64125 l -0.07,-0.03 -0.08,0.34 c -1.8425,-0.4425 -3.38125,-0.26 -4.69875,0.56125 -2.22625,1.38625 -3.8825,4.62875 -5.06625,9.91125 -2.3325,10.425 -4.745,21.205 -13.595,28.985 -6.5425,5.75375 -14.94,8.21125 -23.45875,8.21125 -10.575,0 -21.3375,-3.78625 -28.98,-9.76 -12.00125,-9.38125 -18.04625,-20.96375 -17.83625,-33.36 -1.65625,7.985 -0.14375,16.58 4.2675,24.21375 9.1675,15.84875 27.62125,25.0725 47.03125,23.4925 11.13125,-0.90625 22.585,-3.925 30.6425,-8.0775 5.16875,-2.66375 9.965,-5.89625 14.5375,-9.3875 0.75125,-1.3875 1.0025,-3.21125 0.79125,-4.46 -0.48875,-2.86875 -2.84,-5.02125 -3.23,-7.93 -0.43625,-3.27 -0.6275,-7.39875 1.6875,-10.0625 -0.14125,0.1625 4.45125,6.085 4.84625,6.69 0.97,1.4775 1.7625,2.91125 2.0775,4.6575 0.40875,2.25625 0.4675,4.38875 -0.26125,6.38125 2.6225,-2.17625 5.19,-4.3975 7.73125,-6.595 5.32375,-4.61125 10.83375,-9.37875 16.6875,-13.61125 12.255,-8.86 24.73625,-14.4225 37.1,-16.53375 4.8175,-0.82125 20.195,-2.81 26.07125,3.9625 7.185,-0.205 12.86625,2.6375 15.14,7.5925 1.3125,2.8575 1.1725,5.84875 -0.35375,7.625 -1.35875,1.58 -2.8425,2.38125 -4.41125,2.38125 -5.75875,0 -10.30875,-11.07875 -11.7475,-15.03625 -3.3375,-5.38375 -15.10625,-5.4975 -24.25625,-3.93375 -11.96375,2.04125 -24.075,7.44875 -36.0025,16.0725 -4.435,3.2075 -8.6925,6.7475 -12.8275,10.29375 0.78375,-0.41625 1.5825,-0.825 2.39625,-1.22125 5.66875,-2.7625 10.87875,-4.42125 15.55875,-5.0075 8.97875,-1.68875 21.7,0.30875 32.51625,18.585 -0.0875,-0.1175 -3.34,0.67 -3.55375,0.6975 -10.785,1.3975 -16.605,-3.64125 -22.94375,-10.7725 -3.95875,-4.4525 -8.4725,-5.48 -13.035,-4.87 -1.275,0.42125 -2.5425,0.89875 -3.79,1.415 9.59625,5.0325 5.2175,16.73375 5.2175,16.73375 -7.62125,-2.095 -6.45875,-13.4675 -6.02625,-16.3925 -6.19375,2.66 -11.8825,6.2375 -15.77125,8.94375 -7.05625,5.9675 -14.4775,11.75625 -22.94375,16.11875 -8.35125,4.3025 -20.17625,7.4275 -31.6325,8.36125 -1.51125,0.1225 -3.015,0.1825 -4.51,0.1825 -18.72375,-0.001 -36.0575,-9.4925 -45.01,-24.98 -4.75875,-8.23 -6.37375,-17.52625 -4.5425,-26.17875"
         style="fill:#d09f1a;fill-opacity:1;fill-rule:nonzero;stroke:none"
         id="path1138"
         inkscape:connector-curvature="0" />
    </g>
  </g>
</svg>
