<?xml version="1.0" encoding="UTF-8" standalone="no"?>
<!-- Created with Inkscape (http://www.inkscape.org/) -->

<svg
   xmlns:dc="http://purl.org/dc/elements/1.1/"
   xmlns:cc="http://creativecommons.org/ns#"
   xmlns:rdf="http://www.w3.org/1999/02/22-rdf-syntax-ns#"
   xmlns:svg="http://www.w3.org/2000/svg"
   xmlns="http://www.w3.org/2000/svg"
   xmlns:sodipodi="http://sodipodi.sourceforge.net/DTD/sodipodi-0.dtd"
   xmlns:inkscape="http://www.inkscape.org/namespaces/inkscape"
   width="1285.7875"
   height="897.45032"
   viewBox="0 0 1285.7875 897.45033"
   id="svg5194"
   version="1.1"
   inkscape:version="0.91 r"
   sodipodi:docname="decorator.svg">
  <defs
     id="defs5196" />
  <sodipodi:namedview
     id="base"
     pagecolor="#ffffff"
     bordercolor="#666666"
     borderopacity="1.0"
     inkscape:pageopacity="0.0"
     inkscape:pageshadow="2"
     inkscape:zoom="0.65556641"
     inkscape:cx="619.21554"
     inkscape:cy="405.62609"
     inkscape:document-units="px"
     inkscape:current-layer="g5153"
     showgrid="false"
     units="px"
     fit-margin-top="0"
     fit-margin-left="0"
     fit-margin-right="0"
     fit-margin-bottom="0"
     inkscape:window-width="1855"
     inkscape:window-height="1056"
     inkscape:window-x="65"
     inkscape:window-y="24"
     inkscape:window-maximized="1" />
  <metadata
     id="metadata5199">
    <rdf:RDF>
      <cc:Work
         rdf:about="">
        <dc:format>image/svg+xml</dc:format>
        <dc:type
           rdf:resource="http://purl.org/dc/dcmitype/StillImage" />
        <dc:title></dc:title>
      </cc:Work>
    </rdf:RDF>
  </metadata>
  <g
     inkscape:label="Capa 1"
     inkscape:groupmode="layer"
     id="layer1"
     transform="translate(142.56304,-234.49058)">
    <g
       transform="translate(-424.01422,143.01986)"
       id="g5153">
      <path
         transform="translate(-1115.4753,203.40189)"
         d="m 2211.4286,-23.048368 -43.9404,38.964274 -55.7143,-18.5714286 -11.7738,-57.5357034 43.9404,-38.964274 55.7143,18.571429 z"
         inkscape:randomized="0"
         inkscape:rounded="0"
         inkscape:flatsided="true"
         sodipodi:arg2="0.84534932"
         sodipodi:arg1="0.32175055"
         sodipodi:r2="60.012753"
         sodipodi:r1="58.728016"
         sodipodi:cy="-41.619797"
         sodipodi:cx="2155.7144"
         sodipodi:sides="6"
         id="path6633-4"
         style="display:inline;opacity:0.8091603;fill:#f3f6d4;fill-opacity:1;fill-rule:nonzero;stroke:none"
         sodipodi:type="star" />
      <path
         inkscape:transform-center-y="7.0710678"
         inkscape:transform-center-x="132.32998"
         sodipodi:type="star"
         style="display:inline;opacity:0.8091603;fill:#f6f6f6;fill-opacity:1;fill-rule:nonzero;stroke:none"
         id="path6641-2"
         sodipodi:sides="6"
         sodipodi:cx="1754.2856"
         sodipodi:cy="328.38019"
         sodipodi:r1="103.88376"
         sodipodi:r2="4.205852"
         sodipodi:arg1="1.0209431"
         sodipodi:arg2="1.7016545"
         inkscape:flatsided="false"
         inkscape:rounded="0"
         inkscape:randomized="0"
         d="m 1808.5714,416.95161 -54.8346,-84.40153 -49.0134,87.12863 45.6766,-89.68885 -99.9623,1.11743 100.5111,-5.28732 -50.9489,-86.0112 54.8345,84.40152 49.0135,-87.12862 -45.6766,89.68885 99.9623,-1.11743 -100.5111,5.28732 z"
         transform="matrix(0.52701818,0.5087337,-0.5087337,0.52701818,27.304246,-727.64645)" />
      <path
         transform="matrix(0.73224679,0.01930749,-0.01930749,0.73224679,-857.99693,474.31059)"
         d="m 1808.5714,416.95161 -54.8346,-84.40153 -49.0134,87.12863 45.6766,-89.68885 -99.9623,1.11743 100.5111,-5.28732 -50.9489,-86.0112 54.8345,84.40152 49.0135,-87.12862 -45.6766,89.68885 99.9623,-1.11743 -100.5111,5.28732 z"
         inkscape:randomized="0"
         inkscape:rounded="0"
         inkscape:flatsided="false"
         sodipodi:arg2="1.7016545"
         sodipodi:arg1="1.0209431"
         sodipodi:r2="4.205852"
         sodipodi:r1="103.88376"
         sodipodi:cy="328.38019"
         sodipodi:cx="1754.2856"
         sodipodi:sides="6"
         id="path6690"
         style="display:inline;opacity:0.8091603;fill:#f6f6f6;fill-opacity:1;fill-rule:nonzero;stroke:none"
         sodipodi:type="star"
         inkscape:transform-center-x="92.822665"
         inkscape:transform-center-y="94.578933" />
      <path
         sodipodi:type="star"
         style="display:inline;opacity:0.8091603;fill:#f3f6d4;fill-opacity:1;fill-rule:nonzero;stroke:none"
         id="path6692"
         sodipodi:sides="6"
         sodipodi:cx="2155.7144"
         sodipodi:cy="-41.619797"
         sodipodi:r1="58.728016"
         sodipodi:r2="60.012753"
         sodipodi:arg1="0.32175055"
         sodipodi:arg2="0.84534932"
         inkscape:flatsided="true"
         inkscape:rounded="0"
         inkscape:randomized="0"
         d="m 2211.4286,-23.048368 -43.9404,38.964274 -55.7143,-18.5714286 -11.7738,-57.5357034 43.9404,-38.964274 55.7143,18.571429 z"
         transform="matrix(-0.64383767,0.12316318,-0.12316318,-0.64383767,2597.7996,180.99075)" />
      <path
         transform="matrix(-0.64711078,-0.10461242,0.10461242,-0.64711078,2270.7641,815.44508)"
         d="m 2211.4286,-23.048368 -43.9404,38.964274 -55.7143,-18.5714286 -11.7738,-57.5357034 43.9404,-38.964274 55.7143,18.571429 z"
         inkscape:randomized="0"
         inkscape:rounded="0"
         inkscape:flatsided="true"
         sodipodi:arg2="0.84534932"
         sodipodi:arg1="0.32175055"
         sodipodi:r2="60.012753"
         sodipodi:r1="58.728016"
         sodipodi:cy="-41.619797"
         sodipodi:cx="2155.7144"
         sodipodi:sides="6"
         id="path6694"
         style="display:inline;opacity:0.8091603;fill:#f3f6d4;fill-opacity:1;fill-rule:nonzero;stroke:none"
         sodipodi:type="star" />
      <path
         sodipodi:type="star"
         style="display:inline;opacity:0.8091603;fill:#f3f6d4;fill-opacity:1;fill-rule:nonzero;stroke:none"
         id="path6697"
         sodipodi:sides="6"
         sodipodi:cx="2155.7144"
         sodipodi:cy="-41.619797"
         sodipodi:r1="58.728016"
         sodipodi:r2="60.012753"
         sodipodi:arg1="0.32175055"
         sodipodi:arg2="0.84534932"
         inkscape:flatsided="true"
         inkscape:rounded="0"
         inkscape:randomized="0"
         d="m 2211.4286,-23.048368 -43.9404,38.964274 -55.7143,-18.5714286 -11.7738,-57.5357034 43.9404,-38.964274 55.7143,18.571429 z"
         transform="matrix(-0.63100013,-0.17758081,0.17758081,-0.63100013,2646.2139,1081.986)" />
      <path
         transform="matrix(-0.41102517,-0.51064118,0.51064118,-0.41102517,2436.5869,1564.1243)"
         d="m 2211.4286,-23.048368 -43.9404,38.964274 -55.7143,-18.5714286 -11.7738,-57.5357034 43.9404,-38.964274 55.7143,18.571429 z"
         inkscape:randomized="0"
         inkscape:rounded="0"
         inkscape:flatsided="true"
         sodipodi:arg2="0.84534932"
         sodipodi:arg1="0.32175055"
         sodipodi:r2="60.012753"
         sodipodi:r1="58.728016"
         sodipodi:cy="-41.619797"
         sodipodi:cx="2155.7144"
         sodipodi:sides="6"
         id="path6699"
         style="display:inline;opacity:0.8091603;fill:#f3f6d4;fill-opacity:1;fill-rule:nonzero;stroke:none"
         sodipodi:type="star" />
      <path
         sodipodi:type="star"
         style="display:inline;opacity:0.8091603;fill:#f3f6d4;fill-opacity:1;fill-rule:nonzero;stroke:none"
         id="path6701"
         sodipodi:sides="6"
         sodipodi:cx="2155.7144"
         sodipodi:cy="-41.619797"
         sodipodi:r1="58.728016"
         sodipodi:r2="60.012753"
         sodipodi:arg1="0.32175055"
         sodipodi:arg2="0.84534932"
         inkscape:flatsided="true"
         inkscape:rounded="0"
         inkscape:randomized="0"
         d="m 2211.4286,-23.048368 -43.9404,38.964274 -55.7143,-18.5714286 -11.7738,-57.5357034 43.9404,-38.964274 55.7143,18.571429 z"
         transform="matrix(-0.13557713,-0.6413384,0.6413384,-0.13557713,1766.8106,1506.62)" />
      <path
         sodipodi:type="star"
         style="display:inline;opacity:0.8091603;fill:#f3f6d4;fill-opacity:1;fill-rule:nonzero;stroke:none"
         id="path6703"
         sodipodi:sides="6"
         sodipodi:cx="2155.7144"
         sodipodi:cy="-41.619797"
         sodipodi:r1="58.728016"
         sodipodi:r2="60.012753"
         sodipodi:arg1="0.32175055"
         sodipodi:arg2="0.84534932"
         inkscape:flatsided="true"
         inkscape:rounded="0"
         inkscape:randomized="0"
         d="m 2211.4286,-23.048368 -43.9404,38.964274 -55.7143,-18.5714286 -11.7738,-57.5357034 43.9404,-38.964274 55.7143,18.571429 z"
         transform="matrix(0.81373053,0.58124232,-0.58124232,0.81373053,-1438.5072,-1063.7295)" />
      <path
         transform="matrix(0.21913003,0.97569567,-0.97569567,0.21913003,4.6513628,-1740.8155)"
         d="m 2211.4286,-23.048368 -43.9404,38.964274 -55.7143,-18.5714286 -11.7738,-57.5357034 43.9404,-38.964274 55.7143,18.571429 z"
         inkscape:randomized="0"
         inkscape:rounded="0"
         inkscape:flatsided="true"
         sodipodi:arg2="0.84534932"
         sodipodi:arg1="0.32175055"
         sodipodi:r2="60.012753"
         sodipodi:r1="58.728016"
         sodipodi:cy="-41.619797"
         sodipodi:cx="2155.7144"
         sodipodi:sides="6"
         id="path6705"
         style="display:inline;opacity:0.8091603;fill:#f3f6d4;fill-opacity:1;fill-rule:nonzero;stroke:none"
         sodipodi:type="star" />
      <path
         sodipodi:type="star"
         style="display:inline;opacity:0.8091603;fill:#f3f6d4;fill-opacity:1;fill-rule:nonzero;stroke:none"
         id="path6707"
         sodipodi:sides="6"
         sodipodi:cx="2155.7144"
         sodipodi:cy="-41.619797"
         sodipodi:r1="58.728016"
         sodipodi:r2="60.012753"
         sodipodi:arg1="0.32175055"
         sodipodi:arg2="0.84534932"
         inkscape:flatsided="true"
         inkscape:rounded="0"
         inkscape:randomized="0"
         d="m 2211.4286,-23.048368 -43.9404,38.964274 -55.7143,-18.5714286 -11.7738,-57.5357034 43.9404,-38.964274 55.7143,18.571429 z"
         transform="matrix(-0.35817757,0.93365349,-0.93365349,-0.35817757,1319.6018,-1154.9936)" />
      <path
         sodipodi:type="star"
         style="display:inline;opacity:0.8091603;fill:#f6f6f6;fill-opacity:1;fill-rule:nonzero;stroke:none"
         id="path6709"
         sodipodi:sides="6"
         sodipodi:cx="1754.2856"
         sodipodi:cy="328.38019"
         sodipodi:r1="103.88376"
         sodipodi:r2="4.205852"
         sodipodi:arg1="1.0209431"
         sodipodi:arg2="1.7016545"
         inkscape:flatsided="false"
         inkscape:rounded="0"
         inkscape:randomized="0"
         d="m 1808.5714,416.95161 -54.8346,-84.40153 -49.0134,87.12863 45.6766,-89.68885 -99.9623,1.11743 100.5111,-5.28732 -50.9489,-86.0112 54.8345,84.40152 49.0135,-87.12862 -45.6766,89.68885 99.9623,-1.11743 -100.5111,5.28732 z"
         transform="matrix(0.48312907,0.55058555,-0.55058555,0.48312907,314.95527,-343.82005)" />
      <path
         transform="matrix(-0.46311027,0.56752711,-0.56752711,-0.46311027,2212.8277,-529.50461)"
         d="m 1808.5714,416.95161 -54.8346,-84.40153 -49.0134,87.12863 45.6766,-89.68885 -99.9623,1.11743 100.5111,-5.28732 -50.9489,-86.0112 54.8345,84.40152 49.0135,-87.12862 -45.6766,89.68885 99.9623,-1.11743 -100.5111,5.28732 z"
         inkscape:randomized="0"
         inkscape:rounded="0"
         inkscape:flatsided="false"
         sodipodi:arg2="1.7016545"
         sodipodi:arg1="1.0209431"
         sodipodi:r2="4.205852"
         sodipodi:r1="103.88376"
         sodipodi:cy="328.38019"
         sodipodi:cx="1754.2856"
         sodipodi:sides="6"
         id="path6711"
         style="display:inline;opacity:0.8091603;fill:#f6f6f6;fill-opacity:1;fill-rule:nonzero;stroke:none"
         sodipodi:type="star" />
      <path
         sodipodi:type="star"
         style="display:inline;opacity:0.8091603;fill:#f6f6f6;fill-opacity:1;fill-rule:nonzero;stroke:none"
         id="path6713"
         sodipodi:sides="6"
         sodipodi:cx="1754.2856"
         sodipodi:cy="328.38019"
         sodipodi:r1="103.88376"
         sodipodi:r2="4.205852"
         sodipodi:arg1="1.0209431"
         sodipodi:arg2="1.7016545"
         inkscape:flatsided="false"
         inkscape:rounded="0"
         inkscape:randomized="0"
         d="m 1808.5714,416.95161 -54.8346,-84.40153 -49.0134,87.12863 45.6766,-89.68885 -99.9623,1.11743 100.5111,-5.28732 -50.9489,-86.0112 54.8345,84.40152 49.0135,-87.12862 -45.6766,89.68885 99.9623,-1.11743 -100.5111,5.28732 z"
         transform="matrix(-0.69590824,0.22862605,-0.22862605,-0.69590824,2736.2076,741.50151)" />
      <path
         transform="matrix(-0.41458435,-0.08226211,0.08226211,-0.41458435,1233.4786,468.55975)"
         d="m 1808.5714,416.95161 -54.8346,-84.40153 -49.0134,87.12863 45.6766,-89.68885 -99.9623,1.11743 100.5111,-5.28732 -50.9489,-86.0112 54.8345,84.40152 49.0135,-87.12862 -45.6766,89.68885 99.9623,-1.11743 -100.5111,5.28732 z"
         inkscape:randomized="0"
         inkscape:rounded="0"
         inkscape:flatsided="false"
         sodipodi:arg2="1.7016545"
         sodipodi:arg1="1.0209431"
         sodipodi:r2="4.205852"
         sodipodi:r1="103.88376"
         sodipodi:cy="328.38019"
         sodipodi:cx="1754.2856"
         sodipodi:sides="6"
         id="path6715"
         style="display:inline;opacity:0.8091603;fill:#f6f6f6;fill-opacity:1;fill-rule:nonzero;stroke:none"
         sodipodi:type="star" />
      <path
         style="display:inline;fill:#d9b965;fill-opacity:1;fill-rule:evenodd;stroke:none;stroke-width:1px;stroke-linecap:butt;stroke-linejoin:miter;stroke-opacity:1"
         d="m 473.9568,236.51518 c -0.4715,-8.93156 -10.4547,-11.6062 -16.033,-8.41594 -5.8804,4.65604 -7.0992,9.04514 -6.9955,13.70118 0.5757,4.66011 1.4952,11.77184 1.1325,12.83557 14.1611,1.69564 12.736,1.29761 15.8557,1.51007 13.1202,-0.93273 15.9757,-4.24671 18.8759,-7.55034 1.155,-4.05444 0.052,-7.14109 -3.7752,-9.0604 -4.5536,-1.69388 -10.2768,-1.51501 -9.0604,-3.02014 z"
         id="path5285"
         inkscape:connector-curvature="0"
         sodipodi:nodetypes="cccccccc" />
      <path
         sodipodi:nodetypes="cccccccc"
         inkscape:connector-curvature="0"
         id="path7556"
         d="m 473.9568,236.51518 c -0.4715,-8.93156 -10.4547,-11.6062 -16.033,-8.41594 -5.8804,4.65604 -7.0992,9.04514 -6.9955,13.70118 0.5757,4.66011 1.4952,11.77184 1.1325,12.83557 14.1611,1.69564 12.736,1.29761 15.8557,1.51007 13.1202,-0.93273 15.9757,-4.24671 18.8759,-7.55034 1.155,-4.05444 0.052,-7.14109 -3.7752,-9.0604 -4.5536,-1.69388 -10.2768,-1.51501 -9.0604,-3.02014 z"
         style="display:inline;fill:#d9b965;fill-opacity:1;fill-rule:evenodd;stroke:none;stroke-width:1px;stroke-linecap:butt;stroke-linejoin:miter;stroke-opacity:1;opacity:0.809" />
      <path
         style="display:inline;opacity:0.80899999;fill:#d9b965;fill-opacity:1;fill-rule:evenodd;stroke:none;stroke-width:1px;stroke-linecap:butt;stroke-linejoin:miter;stroke-opacity:1"
         d="m 773.25719,274.61186 c -8.28903,-3.35962 -14.9439,4.54801 -14.41954,10.95272 1.72381,7.29974 5.18221,10.2644 9.44305,12.14447 4.46465,1.45431 11.29543,3.63664 12.10506,4.41611 7.53948,-12.10653 6.5748,-10.9846 8.08986,-13.71997 4.71771,-12.27814 2.92693,-16.26931 1.16448,-20.29658 -3.18235,-2.76499 -6.4455,-3.07465 -9.80636,-0.42215 -3.46467,3.40596 -5.7291,8.66518 -6.57655,6.9254 z"
         id="path8110"
         inkscape:connector-curvature="0"
         sodipodi:nodetypes="cccccccc" />
      <path
         sodipodi:nodetypes="cccccccc"
         inkscape:connector-curvature="0"
         id="path8112"
         d="m 1345.336,178.74578 c -2.9564,-8.44122 -13.2891,-8.20995 -17.7494,-3.58377 -4.3393,6.11783 -4.2788,10.67261 -2.874,15.11285 1.859,4.31189 4.7354,10.88069 4.6854,12.00342 14.0686,-2.34224 12.5891,-2.32482 15.6433,-2.99542 12.3326,-4.57344 14.1445,-8.55505 16.0022,-12.53929 -0.028,-4.21561 -1.952,-6.86932 -6.1637,-7.6387 -4.8459,-0.34944 -10.2894,1.42671 -9.5438,-0.35909 z"
         style="display:inline;opacity:0.80899999;fill:#d9b965;fill-opacity:1;fill-rule:evenodd;stroke:none;stroke-width:1px;stroke-linecap:butt;stroke-linejoin:miter;stroke-opacity:1" />
      <path
         style="display:inline;opacity:0.80899999;fill:#d9b965;fill-opacity:1;fill-rule:evenodd;stroke:none;stroke-width:1px;stroke-linecap:butt;stroke-linejoin:miter;stroke-opacity:1"
         d="m 1357.8729,646.04792 c -8.6912,-2.11105 -14.1179,6.68496 -12.6623,12.94413 2.773,6.96904 6.6279,9.39595 11.1179,10.63253 4.6294,0.78565 11.7059,1.94529 12.6208,2.59798 5.6876,-13.07913 4.8974,-11.8282 5.9961,-14.75578 2.8709,-12.83615 0.5156,-16.5224 -1.8171,-20.24852 -3.5525,-2.26967 -6.8259,-2.09878 -9.7625,1.01676 -2.9293,3.87612 -4.4,9.40996 -5.4929,7.8129 z"
         id="path8114"
         inkscape:connector-curvature="0"
         sodipodi:nodetypes="cccccccc"
         inkscape:transform-center-x="1.6599572"
         inkscape:transform-center-y="-4.5206261" />
      <path
         inkscape:transform-center-y="-4.5206261"
         inkscape:transform-center-x="1.6599572"
         sodipodi:nodetypes="cccccccc"
         inkscape:connector-curvature="0"
         id="path8116"
         d="m 390.77026,586.55738 c -8.6912,-2.11105 -14.1179,6.68496 -12.6623,12.94413 2.773,6.96904 6.6279,9.39595 11.1179,10.63253 4.6294,0.78565 11.7059,1.94529 12.6208,2.59798 5.6876,-13.07913 4.8974,-11.8282 5.9961,-14.75578 2.8709,-12.83615 0.5156,-16.5224 -1.8171,-20.24852 -3.5525,-2.26967 -6.8259,-2.09878 -9.7625,1.01676 -2.9293,3.87612 -4.4,9.40996 -5.4929,7.8129 z"
         style="display:inline;opacity:0.80899999;fill:#d9b965;fill-opacity:1;fill-rule:evenodd;stroke:none;stroke-width:1px;stroke-linecap:butt;stroke-linejoin:miter;stroke-opacity:1" />
      <path
         style="display:inline;opacity:0.80899999;fill:#d9b965;fill-opacity:1;fill-rule:evenodd;stroke:none;stroke-width:1px;stroke-linecap:butt;stroke-linejoin:miter;stroke-opacity:1"
         d="m 700.42615,798.58777 c -8.6912,-2.11105 -14.1179,6.68496 -12.6623,12.94413 2.773,6.96904 6.6279,9.39595 11.1179,10.63253 4.6294,0.78565 11.7059,1.94529 12.6208,2.59798 5.6876,-13.07913 4.8974,-11.8282 5.9961,-14.75578 2.8709,-12.83615 0.5156,-16.5224 -1.8171,-20.24852 -3.5525,-2.26967 -6.8259,-2.09878 -9.7625,1.01676 -2.9293,3.87612 -4.4,9.40996 -5.4929,7.8129 z"
         id="path8118"
         inkscape:connector-curvature="0"
         sodipodi:nodetypes="cccccccc"
         inkscape:transform-center-x="1.6599572"
         inkscape:transform-center-y="-4.5206261" />
      <path
         inkscape:transform-center-y="-4.5206261"
         inkscape:transform-center-x="1.6599572"
         sodipodi:nodetypes="cccccccc"
         inkscape:connector-curvature="0"
         id="path8120"
         d="m 1116.8599,736.04643 c -8.6912,-2.11105 -14.1179,6.68496 -12.6623,12.94413 2.773,6.96904 6.6279,9.39595 11.1179,10.63253 4.6294,0.78565 11.7059,1.94529 12.6208,2.59798 5.6876,-13.07913 4.8974,-11.8282 5.9961,-14.75578 2.8709,-12.83615 0.5156,-16.5224 -1.8171,-20.24852 -3.5525,-2.26967 -6.8259,-2.09878 -9.7625,1.01676 -2.9293,3.87612 -4.4,9.40996 -5.4929,7.8129 z"
         style="display:inline;opacity:0.80899999;fill:#d9b965;fill-opacity:1;fill-rule:evenodd;stroke:none;stroke-width:1px;stroke-linecap:butt;stroke-linejoin:miter;stroke-opacity:1" />
      <path
         style="display:inline;opacity:0.80899999;fill:#d9b965;fill-opacity:1;fill-rule:evenodd;stroke:none;stroke-width:1px;stroke-linecap:butt;stroke-linejoin:miter;stroke-opacity:1"
         d="m 978.04864,423.33974 c -8.6912,-2.11105 -14.1179,6.68496 -12.6623,12.94413 2.773,6.96904 6.6279,9.39595 11.1179,10.63253 4.6294,0.78565 11.7059,1.94529 12.6208,2.59798 5.6876,-13.07913 4.8974,-11.8282 5.9961,-14.75578 2.8709,-12.83615 0.5156,-16.5224 -1.8171,-20.24852 -3.5525,-2.26967 -6.8259,-2.09878 -9.7625,1.01676 -2.9293,3.87612 -4.4,9.40996 -5.4929,7.8129 z"
         id="path8122"
         inkscape:connector-curvature="0"
         sodipodi:nodetypes="cccccccc"
         inkscape:transform-center-x="1.6599572"
         inkscape:transform-center-y="-4.5206261" />
      <path
         inkscape:transform-center-y="-4.5206261"
         inkscape:transform-center-x="1.6599572"
         sodipodi:nodetypes="cccccccc"
         inkscape:connector-curvature="0"
         id="path8124"
         d="m 1493.6333,296.73167 c -8.6912,-2.11105 -14.1179,6.68496 -12.6623,12.94413 2.773,6.96904 6.6279,9.39595 11.1179,10.63253 4.6294,0.78565 11.7059,1.94529 12.6208,2.59798 5.6876,-13.07913 4.8974,-11.8282 5.9961,-14.75578 2.8709,-12.83615 0.5156,-16.5224 -1.8171,-20.24852 -3.5525,-2.26967 -6.8259,-2.09878 -9.7625,1.01676 -2.9293,3.87612 -4.4,9.40996 -5.4929,7.8129 z"
         style="display:inline;opacity:0.80899999;fill:#d9b965;fill-opacity:1;fill-rule:evenodd;stroke:none;stroke-width:1px;stroke-linecap:butt;stroke-linejoin:miter;stroke-opacity:1" />
      <path
         style="display:inline;opacity:0.80899999;fill:#d9b965;fill-opacity:1;fill-rule:evenodd;stroke:none;stroke-width:1px;stroke-linecap:butt;stroke-linejoin:miter;stroke-opacity:1"
         d="m 639.41015,141.14103 c -8.6912,-2.11105 -14.1179,6.68496 -12.6623,12.94413 2.773,6.96904 6.6279,9.39595 11.1179,10.63253 4.6294,0.78565 11.7059,1.94529 12.6208,2.59798 5.6876,-13.07913 4.8974,-11.8282 5.9961,-14.75578 2.8709,-12.83615 0.5156,-16.5224 -1.8171,-20.24852 -3.5525,-2.26967 -6.8259,-2.09878 -9.7625,1.01676 -2.9293,3.87612 -4.4,9.40996 -5.4929,7.8129 z"
         id="path8126"
         inkscape:connector-curvature="0"
         sodipodi:nodetypes="cccccccc"
         inkscape:transform-center-x="1.6599572"
         inkscape:transform-center-y="-4.5206261" />
      <path
         sodipodi:type="star"
         style="display:inline;opacity:0.8091603;fill:#f6f6f6;fill-opacity:1;fill-rule:nonzero;stroke:none"
         id="path8128"
         sodipodi:sides="6"
         sodipodi:cx="1754.2856"
         sodipodi:cy="328.38019"
         sodipodi:r1="103.88376"
         sodipodi:r2="4.205852"
         sodipodi:arg1="1.0209431"
         sodipodi:arg2="1.7016545"
         inkscape:flatsided="false"
         inkscape:rounded="0"
         inkscape:randomized="0"
         d="m 1808.5714,416.95161 -54.8346,-84.40153 -49.0134,87.12863 45.6766,-89.68885 -99.9623,1.11743 100.5111,-5.28732 -50.9489,-86.0112 54.8345,84.40152 49.0135,-87.12862 -45.6766,89.68885 99.9623,-1.11743 -100.5111,5.28732 z"
         transform="matrix(-0.46311027,0.56752711,-0.56752711,-0.46311027,2209.7769,-135.9518)" />
    </g>
  </g>
</svg>
