<?xml version="1.0" encoding="UTF-8" standalone="no"?>
<!-- Created with Inkscape (http://www.inkscape.org/) -->

<svg
   xmlns:dc="http://purl.org/dc/elements/1.1/"
   xmlns:cc="http://creativecommons.org/ns#"
   xmlns:rdf="http://www.w3.org/1999/02/22-rdf-syntax-ns#"
   xmlns:svg="http://www.w3.org/2000/svg"
   xmlns="http://www.w3.org/2000/svg"
   xmlns:xlink="http://www.w3.org/1999/xlink"
   xmlns:sodipodi="http://sodipodi.sourceforge.net/DTD/sodipodi-0.dtd"
   xmlns:inkscape="http://www.inkscape.org/namespaces/inkscape"
   width="538.87103"
   height="207.05566"
   id="svg4840"
   version="1.1"
   viewBox="0 0 534.76092 360.06372"
   inkscape:version="0.91 r"
   sodipodi:docname="header_angel.svg">
  <defs
     id="defs4842">
    <path
       style="fill:none;stroke:#000000;stroke-width:0.9900983px;stroke-linecap:butt;stroke-linejoin:miter;stroke-opacity:1"
       d="m 1365.7212,-114.24658 c 163.6967,58.913956 364.3962,76.710146 646.5076,4.04139"
       id="path3892"
       inkscape:connector-curvature="0"
       sodipodi:nodetypes="cc" />
    <path
       style="fill:none;stroke:#000000;stroke-width:1.39723718px;stroke-linecap:butt;stroke-linejoin:miter;stroke-opacity:1"
       d="m 1486.7686,0.083919 c 117.9474,9.353995 227.6872,11.105496 323.5459,0"
       id="path3356"
       inkscape:connector-curvature="0"
       sodipodi:nodetypes="cc" />
    <inkscape:path-effect
       effect="bend_path"
       id="path-effect5212"
       is_visible="true"
       bendpath="m 623.89884,-71.149665 c 27.83219,26.288448 71.37527,35.287895 94.56236,38.385797"
       prop_scale="1"
       scale_y_rel="false"
       vertical="false"
       bendpath-nodetypes="cc" />
    <inkscape:path-effect
       effect="bend_path"
       id="path-effect8360"
       is_visible="true"
       bendpath="m 737.02884,-2252.6966 c 87.0088,-7.1013 120.25489,-12.9139 207.83409,-45.7143"
       prop_scale="1"
       scale_y_rel="true"
       vertical="false"
       bendpath-nodetypes="cc" />
  </defs>
  <sodipodi:namedview
     id="base"
     pagecolor="#ffffff"
     bordercolor="#666666"
     borderopacity="1.0"
     inkscape:pageopacity="0.0"
     inkscape:pageshadow="2"
     inkscape:zoom="1.0276128"
     inkscape:cx="-25.882977"
     inkscape:cy="196.85543"
     inkscape:document-units="px"
     inkscape:current-layer="g3437"
     showgrid="false"
     inkscape:window-width="1855"
     inkscape:window-height="1056"
     inkscape:window-x="65"
     inkscape:window-y="24"
     inkscape:window-maximized="1"
     fit-margin-top="0"
     fit-margin-left="0"
     fit-margin-right="0"
     fit-margin-bottom="0"
     units="px" />
  <metadata
     id="metadata4845">
    <rdf:RDF>
      <cc:Work
         rdf:about="">
        <dc:format>image/svg+xml</dc:format>
        <dc:type
           rdf:resource="http://purl.org/dc/dcmitype/StillImage" />
        <dc:title></dc:title>
        <dc:description>svg.setPadText('title', data['title'], 28)
svg.setText('subtitle', data['subtitle'])</dc:description>
      </cc:Work>
    </rdf:RDF>
  </metadata>
  <g
     inkscape:label="Capa 1"
     inkscape:groupmode="layer"
     id="layer1"
     transform="translate(-345.20431,443.41862)">
    <g
       style="display:inline"
       id="g4402"
       transform="matrix(0.79575019,0,0,0.79575019,402.35222,-699.37061)">
      <path
         style="display:none;fill:none;stroke:#000000;stroke-width:0.9900983px;stroke-linecap:butt;stroke-linejoin:miter;stroke-opacity:1"
         d="m 214.29264,448.61056 c 163.6967,58.91395 364.3962,76.71014 646.5076,4.04139"
         id="path4372"
         inkscape:connector-curvature="0"
         sodipodi:nodetypes="cc" />
      <path
         style="display:none;fill:none;stroke:#000000;stroke-width:1.39723718px;stroke-linecap:butt;stroke-linejoin:miter;stroke-opacity:1"
         d="m 335.34004,562.94106 c 117.9474,9.35399 227.6872,11.10549 323.5459,0"
         id="path4378"
         inkscape:connector-curvature="0"
         sodipodi:nodetypes="cc" />
      <g
         id="g3437">
        <g
           id="g3450"
           transform="translate(-74.300965,0)">
          <text
             transform="translate(-1128.6534,559.60712)"
             xml:space="preserve"
             style="font-style:italic;font-variant:normal;font-weight:bold;font-stretch:normal;font-size:40px;line-height:125%;font-family:odstemplik;-inkscape-font-specification:'odstemplik Bold Italic';text-align:start;letter-spacing:0px;word-spacing:0px;text-anchor:start;fill:#000000;fill-opacity:1;stroke:none"
             id="subtitle"
             sodipodi:linespacing="125%"
             inkscape:label="#%subtitle"><textPath
               xlink:href="#path3356"
               id="textPath4376">Promoción 2014 - 2017</textPath></text>
          <g
             id="g4356"
             transform="translate(-1021.1189,351.73526)">
            <path
               sodipodi:nodetypes="cccc"
               inkscape:connector-curvature="0"
               id="path4358"
               d="m 1821.4484,26.727109 c 4.8985,2.10886 15.9853,4.931431 28.1797,9.030091 -8.4179,3.66836 -16.3002,6.188584 -24.7181,7.859324 -2.0263,-5.34237 -2.7255,-10.901935 -3.4616,-16.889415 z"
               style="fill:#f0f0ef;fill-opacity:1;stroke:#321800;stroke-width:2;stroke-linecap:butt;stroke-linejoin:miter;stroke-miterlimit:4;stroke-dasharray:none;stroke-opacity:1" />
            <path
               sodipodi:nodetypes="cccc"
               inkscape:connector-curvature="0"
               id="path4360"
               d="m 1227.7143,36.903611 c 9.6725,-2.8173 18.6506,-4.66629 30.2678,-10.07659 -0.6669,6.14312 -1.2251,12.164902 -3.1556,19.571512 -11.5049,-2.8134 -19.1293,-6.823902 -27.1122,-9.494922 z"
               style="fill:#f0f0ef;fill-opacity:1;stroke:#321800;stroke-width:2;stroke-linecap:butt;stroke-linejoin:miter;stroke-miterlimit:4;stroke-dasharray:none;stroke-opacity:1" />
            <path
               sodipodi:nodetypes="ccccccc"
               inkscape:connector-curvature="0"
               id="path4362"
               d="m 1167,-26.92298 c 25.2523,26.45342 94.9758,49.110269 91.1607,53.66071 -9.7774,5.230049 -22.3804,9.839175 -29.5535,10.446434 2.4248,17.057374 -1.9134,38.198301 -13.125,70.892856 -29.5902,-14.900434 -60.5234,-31.58103 -86.3393,-52.14286 16.287,-5.61773 32.0378,-11.77169 46.4285,-19.28571 -2.8571,-41.61589 -5.7143,-48.95875 -8.5714,-63.57143 z"
               style="fill:#f0f0ef;fill-opacity:1;stroke:#321800;stroke-width:2;stroke-linecap:butt;stroke-linejoin:miter;stroke-miterlimit:4;stroke-dasharray:none;stroke-opacity:1" />
            <path
               sodipodi:nodetypes="ccccccc"
               inkscape:connector-curvature="0"
               id="path4364"
               d="m 1822.8036,24.68416 c -8.8649,1.264454 22.4891,10.60657 27.0536,11.25 -1.0283,29.974306 1.7333,65.14475 5.2678,74.91071 32.8881,-13.03334 66.1019,-29.79036 93.3036,-54.19642 -21.3056,-10.1413 -32.9485,-16.4175 -45,-22.85715 5.557,-47.43413 5.8485,-45.24744 7.9465,-59.82142 -24.4168,22.01179 -50.9669,41.89025 -88.5715,50.71428 z"
               style="fill:#f0f0ef;fill-opacity:1;stroke:#321800;stroke-width:2;stroke-linecap:butt;stroke-linejoin:miter;stroke-miterlimit:4;stroke-dasharray:none;stroke-opacity:1" />
            <path
               sodipodi:nodetypes="ccccc"
               inkscape:connector-curvature="0"
               id="path4366"
               d="m 1228.25,37.541307 c -0.8244,36.13544 -10.5758,66.468053 -22.6786,96.964283 174.7037,72.32023 451.7463,63.94785 657.8572,5 -8.1993,-21.05401 -14.797,-47.87368 -13.5714,-102.85714 -206.045,61.04265 -413.6611,74.82939 -621.6072,0.892857 z"
               style="fill:#f0f0ef;fill-opacity:1;stroke:#321800;stroke-width:2;stroke-linecap:butt;stroke-linejoin:miter;stroke-miterlimit:4;stroke-dasharray:none;stroke-opacity:1" />
          </g>
          <g
             transform="matrix(0.79147864,0,0,0.79147864,-272.6174,496.16101)"
             id="g4380"
             inkscape:path-effect="#path-effect5212">
            <path
               style="fill:#040088;fill-opacity:1;stroke:none"
               d="m 598.04102,-25.317674 c 9.26546,-1.767065 22.44297,-4.731054 31.92273,-6.110576 10.5951,-1.541831 20.75248,-1.961021 30.73156,1.205372 2.60963,1.067026 4.74418,2.12125 6.63225,3.267507 5.41933,3.344099 8.29397,7.146355 13.21979,12.567401 4.31489,4.7486923 10.20226,11.6023432 14.04825,16.6465897 4.10259,5.3807797 6.9397,10.0108813 6.04354,12.1494853 C 692.76361,10.400822 685.60618,4.2469083 679.32747,-0.19029062 671.76956,-5.5315135 666.90885,-8.8080045 661.80054,-10.846734 c -1.33513,-0.511333 -2.65839,-0.930368 -4.01579,-1.273469 -9.87864,-1.976001 -26.04896,2.3283515 -33.97875,5.4799192 -5.25978,2.0904275 -7.40061,3.1918827 -9.6835,4.6314566 -5.84744,-7.3876601 -11.26813,-15.1924648 -16.08148,-23.3088468 z"
               id="path4382"
               inkscape:connector-curvature="0"
               sodipodi:nodetypes="ccscscscc"
               inkscape:original-d="m 650.54283,-16.35478 c 10.35755,-15.92729 25.27924,-34.23215 46.95717,-35.38066 11.09211,0.28024 16.06881,3.78915 24.32787,9.03929 11.67195,7.41965 26.14389,19.37191 25.15173,23.88021 -7.50023,-2.46778 -16.30453,-7.28349 -22.76559,-9.83664 -10.3655,-4.09603 -16.83198,-5.7161 -23.14707,-5.1174 -10.34067,1.53139 -20.77121,11.82406 -25.53703,18.77786 -2.86383,4.17863 -4.03065,6.59608 -4.92022,8.80694 z" />
            <path
               style="fill:#040088;fill-opacity:1;stroke:none"
               d="m 626.75597,-74.174576 c 4.42295,0.308026 13.94609,-0.689817 19.5758,-0.557668 7.60452,0.178506 16.17376,1.555508 30.55264,5.940272 1.38732,0.517468 2.79093,1.09684 4.20366,1.731246 14.03007,6.072452 32.12454,18.19839 38.05422,29.199092 -18.20504,-2.797594 -32.9724,-8.549463 -43.64209,-12.913101 -2.48824,-1.029062 -4.3375,-1.782507 -5.41455,-2.077826 -5.44201,-1.350327 -13.16611,-1.266323 -20.65321,-1.250343 -8.49744,0.01814 -14.32858,-0.07112 -20.44905,-0.563644 -1.38538,-6.612163 -2.16622,-13.149373 -2.22742,-19.508028 z"
               id="path4384"
               inkscape:connector-curvature="0"
               sodipodi:nodetypes="cccccc"
               inkscape:original-d="m 641.07143,-72.28013 c 11.29506,-7.90099 19.23462,-19.07413 58.16965,-21.16072 22.08332,-0.1473 48.94345,8.55797 58.61607,20.17858 -24.2406,-0.40782 -53.47641,-3.39908 -59.55358,-2.90179 -13.37288,1.37442 -32.39278,12.19641 -41.65178,17.58929 z" />
            <path
               style="fill:#040088;fill-opacity:1;stroke:none"
               d="m 688.8492,-103.51216 c 1.44365,0.62684 2.73659,1.48846 3.86686,2.56139 4.4099,3.901744 6.507,11.021089 4.01807,19.702312 -2.9995,10.701816 -9.20104,12.292722 -14.71679,11.479367 -1.08459,-0.176562 -2.12174,-0.440719 -3.083,-0.731908 -8.99546,-4.357921 -11.06279,-12.393004 -5.5943,-23.339612 4.26226,-8.676699 11.04474,-11.691989 15.50916,-9.671549 z"
               id="path4386"
               inkscape:connector-curvature="0"
               sodipodi:nodetypes="ccccc"
               inkscape:original-d="m 697.67858,-130.04799 c 13.1,0.17945 22.01842,7.20208 21.87499,18.57143 -0.057,13.30931 -10.74169,15.3178 -18.57142,15.71428 -12.55548,-0.86636 -20.80269,-7.04862 -20.71428,-19.28572 -0.0374,-9.69886 8.64677,-15.19947 17.41071,-14.99999 z" />
            <path
               style="fill:#f50000;fill-opacity:1;stroke:#ffffff;stroke-width:1.5;stroke-linecap:butt;stroke-linejoin:miter;stroke-miterlimit:4;stroke-dasharray:none;stroke-opacity:1;marker-start:none;marker-mid:none"
               d="m 646.65634,-87.822072 c -2.71952,2.518937 -5.36786,5.942986 -6.11729,11.465674 -0.7316,5.391267 0.29183,13.834938 6.78251,25.178772 1.92886,3.371099 4.14052,6.844399 11.98976,10.180297 3.68578,1.389324 7.99417,2.040424 12.09055,2.167272 3.62841,0.119569 6.97621,-0.170883 9.51828,-0.638159 12.95801,-2.38192 20.71423,-5.990124 25.27915,-8.774673 4.65162,-2.83743 8.09777,-6.141725 12.20072,-9.345096 -3.41958,-4.256991 -6.62969,-8.57851 -9.59864,-12.950281 -15.13288,15.141857 -27.0174,21.157209 -34.22763,22.463687 -3.981,0.713608 -7.01871,0.169356 -9.50987,-1.134419 -8.51147,-4.93816 -13.297,-11.516836 -15.81676,-18.231141 -2.51456,-6.700467 -2.88997,-13.804574 -2.59078,-20.381933 z"
               id="path4388"
               inkscape:connector-curvature="0"
               sodipodi:nodetypes="cscscccc"
               inkscape:original-d="m 649.01786,-95.76227 c -1.60646,7.587509 1.71388,16.426741 26.36475,30.455791 3.80727,2.16675 7.21992,4.017471 16.55553,4.093291 7.94876,-0.239357 17.57576,-3.252737 23.03244,-5.729587 27.21854,-12.35484 29.27152,-17.721856 38.7443,-25.746806 l -14.87559,-11.125589 c -24.0813,27.418153 -35.13968,33.680251 -44.4273,32.857151 -22.18182,-2.82245 -33.13807,-14.166663 -45.39413,-24.804251 z" />
            <path
               sodipodi:nodetypes="ccccc"
               inkscape:connector-curvature="0"
               id="path4390"
               d="m 686.14878,-95.283762 c 1.5762,0.670868 2.78538,1.629552 3.63618,2.875753 1.63376,2.283907 1.96746,5.624612 0.9454,9.965955 -2.07098,4.873533 -4.28431,6.10941 -6.49959,6.221872 0,0 0,0 0,0 -1.161,0.03884 -2.30619,-0.232281 -3.42174,-0.432427 -4.34072,-2.802522 -6.49432,-6.257756 -3.82737,-13.281336 1.9349,-4.104764 6.10118,-6.980466 9.16712,-5.349817 z"
               style="fill:#ffffff;fill-opacity:1;stroke:none"
               inkscape:original-d="m 698.32743,-121.42625 c 7.82701,0.10722 11.92862,3.7163 12.64312,10.50926 -1.10097,8.05875 -6.04452,8.13851 -10.45591,8.74882 -6.80815,-1.0511 -11.7357,-3.35787 -12.32303,-10.82934 0.19107,-4.51457 4.52611,-8.81465 10.13582,-8.42874 z" />
          </g>
          <g
             id="g4392"
             transform="matrix(0.26135633,0,0,0.26135633,572.44644,1047.4362)"
             inkscape:path-effect="#path-effect8360">
            <path
               style="fill:#001df1;fill-opacity:1"
               d="m 743.9349,-2282.9256 c -4.5229,-53.6933 -4.83755,-59.3086 -3.33179,-58.8533 0.18144,0.055 18.9054,-0.896 42.55912,-3.7192 12.07282,-1.4481 25.81415,-3.4186 39.21151,-6.3116 1.02412,-0.2162 2.05514,-0.4395 3.09331,-0.6699 11.65237,-2.5861 23.62159,-5.9194 35.91669,-9.7541 14.29371,-4.4618 28.99862,-9.6749 44.21653,-15.2904 l 20.19388,54.6721 20.19387,54.6721 c -16.25539,6.0059 -32.79228,11.8413 -49.71243,17.1573 -14.82075,4.6574 -29.95714,8.8369 -45.41819,12.2928 -1.37751,0.3079 -2.75135,0.6089 -4.1217,0.9029 -18.01418,3.8439 -34.98346,6.3973 -49.32399,8.2124 -28.29706,3.5871 -45.7725,4.7498 -46.84198,5.2629 -1.4813,0.7104 -2.1121,-4.8827 -6.63483,-58.574 z m 100.38491,22.7108 c -0.38942,-1.7763 -0.0536,-5.0886 0.71954,-7.3318 0.78067,-2.2648 1.36452,-5.61 1.32523,-7.4942 -0.0236,-1.1335 -0.049,-2.2667 -0.076,-3.3998 1.12939,1.3685 2.26666,2.733 3.41157,4.0936 3.49699,4.1556 10.7202,9.3529 12.37852,8.9212 0.47926,-0.1248 0.15208,-0.9929 -0.71894,-1.9307 -0.87605,-0.9432 -2.30802,-4.5332 -3.2009,-7.9992 -0.88978,-3.454 -2.32272,-7.0691 -3.16497,-8.0108 -2.14416,-2.3973 -0.9214,-2.3235 5.812,-0.3533 3.497,1.0233 7.22368,1.2758 9.33781,0.6655 1.1677,-0.3373 2.33464,-0.6785 3.50081,-1.0235 -1.06689,-0.3043 -2.13142,-0.6116 -3.19348,-0.9222 -1.76953,-0.5174 -4.95406,-2.7935 -7.11652,-5.0973 -2.14645,-2.2868 -4.75967,-4.4193 -5.79461,-4.7055 -1.64827,-0.4557 -1.57564,-0.6835 0.39104,-1.6625 1.23597,-0.6153 4.0855,-1.6212 6.2352,-2.2101 2.18265,-0.5974 5.01853,-2.1945 6.32882,-3.5569 0.78998,-0.8213 1.57708,-1.6445 2.36145,-2.4694 -0.84115,0.2394 -1.68224,0.4768 -2.52325,0.7121 -1.40114,0.392 -4.99495,0.1231 -8.00898,-0.6243 -2.97129,-0.7369 -6.5654,-1.4104 -7.86076,-1.4467 -2.25024,-0.063 -2.04364,-0.413 1.63106,-4.1822 3.7344,-3.8304 7.03269,-10.1419 5.79366,-10.8949 -0.28921,-0.1758 -1.22837,0.4213 -2.09064,1.3233 -0.86886,0.9092 -3.93064,2.307 -6.82569,3.0896 -2.87689,0.7777 -5.92991,2.0716 -6.7558,2.8901 -1.27752,1.2661 -1.49526,1.179 -1.38233,-0.4714 0.0726,-1.0611 0.60938,-4.0779 1.15844,-6.6045 1.0346,-4.7608 0.91952,-11.7397 -0.11702,-11.4661 -0.3167,0.084 -1.21779,1.767 -2.01664,3.7357 -1.22429,3.0172 -7.41261,10.6131 -8.96148,10.9648 -0.21988,0.05 -0.5859,-1.9809 -0.82377,-4.5106 -0.30921,-3.2882 -1.15532,-5.6508 -2.90472,-8.3049 -0.81598,-1.238 -1.62607,-2.4785 -2.43015,-3.7215 0.0795,1.2798 0.15712,2.5598 0.23277,3.8402 0.10011,1.6938 -0.1882,4.2007 -0.68924,6.2054 -0.12578,0.5047 -0.26474,0.9757 -0.41359,1.392 -0.73271,2.0496 -1.40624,5.0998 -1.46049,6.7054 -0.0332,0.9833 -0.0683,1.9668 -0.10502,2.9503 -0.79371,-1.1002 -1.58312,-2.2025 -2.36835,-3.3069 -2.52455,-3.5506 -8.78446,-9.1183 -10.0113,-8.9009 -0.43151,0.076 -0.35133,0.6672 0.1827,1.3127 1.33904,1.6187 4.98774,17.1379 4.04197,17.3068 -0.43235,0.077 -2.76532,-0.6684 -5.18593,-1.6817 -4.09704,-1.7152 -10.89383,-2.908 -10.73585,-1.8407 0.0395,0.2669 1.96355,2.1135 4.30165,4.0869 2.29791,1.9394 5.53731,5.1768 7.03379,7.0457 0.9257,1.156 1.85613,2.3097 2.79147,3.4607 -1.78396,0.3057 -3.57336,0.6017 -5.36799,0.8888 -2.93497,0.4695 -6.95024,1.8692 -8.82917,3.0962 -1.14926,0.7506 -2.30439,1.4981 -3.46509,2.2425 1.37018,0.088 2.73984,0.1725 4.10904,0.2521 2.23122,0.1296 6.43735,1.171 9.24797,2.2758 2.83876,1.1159 5.5806,1.6284 6.07997,1.1678 0.49751,-0.4588 0.94983,-0.5672 1.00685,-0.2394 0.0574,0.3297 -2.00327,2.6161 -4.64337,5.0626 -4.92082,4.5598 -9.65709,11.9737 -5.85244,9.5422 0.97344,-0.6222 4.76973,-1.9243 8.33446,-2.9042 3.60915,-0.9921 7.29581,-2.3793 8.30874,-3.0791 1.50769,-1.0416 1.53768,-0.3403 -0.30628,5.106 -1.17558,3.4717 -2.18057,8.2569 -2.17208,10.5344 0.005,1.3944 0.009,2.789 0.01,4.1838 0.74412,-1.2994 1.48164,-2.6002 2.21227,-3.9025 1.19589,-2.1317 3.53017,-4.9443 5.13342,-6.1863 1.64111,-1.2713 3.77148,-3.4431 4.8083,-4.893 0.6206,-0.8678 1.23685,-1.7368 1.84863,-2.6072 l 1.30625,6.2489 c 0.9848,4.7112 2.77579,9.119 4.34923,11.0703 0,0 0,0 0,0 0.59208,0.7341 1.14789,1.1112 1.60427,1.0122 0.5268,-0.1144 0.63476,-1.6671 0.24391,-3.4499 0,0 8e-5,5e-4 8e-5,5e-4 z m -56.97125,1.5525 c 1.54528,-2.0858 2.73483,-4.3118 2.66193,-4.947 -0.19869,-1.732 -4.46613,-4.4753 -5.56893,-3.5997 -1.60701,1.276 -4.76221,-30.7843 -3.4361,-34.1857 0.7635,-1.9583 1.15216,-2.275 1.31914,-1.0453 0.13032,0.9595 0.88737,1.5663 1.68187,1.3463 2.31838,-0.6421 2.87036,-2.0935 1.16641,-2.9615 -1.07056,-0.5453 -1.17613,-0.8578 -0.33786,-0.9687 0.68198,-0.092 1.17505,-0.6935 1.09734,-1.3395 -0.0829,-0.689 -1.14858,-0.839 -2.58103,-0.3693 -2.83213,0.9287 -3.73457,0.1835 -2.68628,-2.139 0.50534,-1.1194 0.78713,-1.2221 0.90176,-0.3192 0.0913,0.7227 1.0596,1.2111 2.14941,1.0824 1.08972,-0.1287 1.92086,-0.7096 1.85126,-1.2882 -0.0696,-0.5786 -0.68178,-0.9922 -1.3607,-0.9203 -0.89697,0.095 -0.88769,-0.1683 0.0153,-0.9496 0.68687,-0.5944 0.87838,-1.571 0.43047,-2.1695 -0.99657,-1.3317 -3.69154,-1.1429 -3.52944,0.2632 0.0646,0.5605 -0.6066,0.8167 -1.49316,0.5667 -0.88678,-0.2501 -1.45825,-1.0955 -1.27202,-1.8775 0.48886,-2.0529 -2.40288,-3.9067 -3.20446,-2.099 -0.33518,0.7559 0.60998,11.9454 2.11377,24.8319 0.91189,7.8143 1.82538,15.6285 2.74048,23.4425 -0.98698,0.661 -1.97627,1.3205 -2.9677,1.9787 -3.74053,2.4829 -3.57361,5.3982 0.6663,9.0108 4.17438,3.5568 6.21826,3.2782 9.64223,-1.3435 z m -7.33202,0.5488 c -0.0933,-0.8691 -0.83973,-1.5082 -1.65775,-1.4216 -1.68544,0.1784 -2.84822,-1.7035 -2.33291,-3.7503 0.57167,-2.2708 4.08818,-1.9308 5.15635,0.499 0.33289,0.7572 0.66636,1.5142 1.00042,2.2711 0.20287,-0.8158 0.40501,-1.6317 0.6064,-2.4477 0.68689,-2.7832 3.47353,-3.5672 4.64654,-1.3107 0.96793,1.8621 -2.85861,7.2187 -5.40777,7.5226 -1.01339,0.1213 -1.91798,-0.4933 -2.01128,-1.3624 z m 123.23199,-24.9836 c -0.30424,-0.9963 -3.42648,-10.6485 -6.97179,-21.539 -2.14459,-6.5879 -4.29075,-13.1753 -6.43848,-19.7622 0.71906,-1.4162 1.43458,-2.8336 2.14694,-4.2523 1.83729,-3.6589 1.88484,-4.6881 0.42052,-7.2963 -3.93165,-7.0032 -12.31079,-6.9837 -15.44888,-0.1972 -1.96789,4.2556 -1.36893,7.694 1.93313,10.3485 4.17405,3.3554 11.13548,-2.0453 8.60839,-6.6036 -1.39358,-2.5138 -3.44137,-1.9853 -2.9193,0.7394 0.64202,3.3513 -2.929,4.4959 -4.39162,1.4495 -0.58625,-1.2208 -0.77175,-3.0427 -0.41589,-4.0445 0.94856,-2.6706 5.65442,-3.9223 7.61229,-1.9932 2.67931,2.6399 2.89207,4.7317 0.79276,8.8823 -0.6628,1.3104 -1.32857,2.6197 -1.99762,3.9278 2.17677,6.5123 4.35391,13.0245 6.5314,19.5366 3.59673,10.7566 7.1246,20.3518 7.86581,21.3711 1.63539,2.2491 3.41479,1.8601 2.67156,-0.5696 0,0 7.8e-4,0 7.8e-4,0 z"
               id="path4394"
               inkscape:connector-curvature="0"
               sodipodi:nodetypes="scscccscsccscsscscscccccccccsccsscsccsssssscccccsscscscscsccssssscsscscssccssccscssccccscccsscscssccsccssssssccscscsccsssccccsccsscc"
               inkscape:original-d="m 743.77495,-2326.303 c 0,-50.849 0.15096,-56.156 1.58179,-55.607 0.86998,0.3339 42.26998,0.607 92,0.607 l 90.41823,0 0,55 0,55 -90.41823,0 c -49.73002,0 -91.13002,0.2731 -92,0.607 -1.43083,0.549 -1.58179,-4.7581 -1.58179,-55.607 z m 92,33.868 c 0,-1.7226 0.96679,-4.6962 2.14843,-6.6082 1.18163,-1.9119 2.45003,-4.89 2.81866,-6.618 l 0.67024,-3.1418 2.28913,4.5 c 2.319,4.5587 7.76769,11 9.30489,11 0.46146,0 0.37318,-0.8704 -0.19617,-1.9343 -0.56935,-1.0638 -1.03518,-4.6934 -1.03518,-8.0657 0,-3.3723 -0.46583,-7.0019 -1.03518,-8.0657 -1.4044,-2.6242 -0.33976,-2.4192 5.53518,1.0657 3.00477,1.7824 6.39666,2.9621 8.5,2.9563 l 3.5,-0.01 -2.70093,-1.6752 c -1.48551,-0.9214 -3.87089,-3.8248 -5.30085,-6.4522 -1.42997,-2.6273 -3.35819,-5.2012 -4.28494,-5.7199 -1.45416,-0.8138 -1.34444,-1.0083 0.80085,-1.4199 1.36723,-0.2623 4.31135,-0.4626 6.5425,-0.445 2.23114,0.018 5.38114,-0.685 7,-1.5613 l 2.94337,-1.5932 -2.60106,-0.04 c -1.43058,-0.022 -4.80558,-1.2241 -7.5,-2.6712 -2.69442,-1.4472 -5.95911,-2.9248 -7.25487,-3.2835 -2.16053,-0.598 -1.93585,-0.8808 2.70893,-3.4088 4.68723,-2.5511 9.74374,-7.4131 8.74665,-8.4102 -0.2356,-0.2356 -1.33731,0.058 -2.44826,0.6527 -1.11095,0.5949 -4.55407,1.0814 -7.65139,1.0814 -3.09732,0 -6.49177,0.4604 -7.54324,1.0231 -1.6063,0.8597 -1.81029,0.7399 -1.27673,-0.75 0.34926,-0.9752 1.64501,-3.5731 2.87945,-5.7731 2.30424,-4.1066 4.10379,-10.5 2.95542,-10.5 -0.35421,0 -1.75437,1.3196 -3.11147,2.9324 -2.03403,2.4173 -10.50194,8.0676 -12.09066,8.0676 -0.23942,0 -0.14355,-1.9457 0.21306,-4.3237 0.463,-3.0875 0.15193,-5.4462 -1.08801,-8.25 l -1.73638,-3.9263 -0.66688,3.5874 c -0.36678,1.9732 -1.6935,5.0293 -2.94826,6.7914 -1.25477,1.7622 -2.61213,4.4228 -3.01637,5.9126 l -0.73498,2.7086 -1.77943,-3.5 c -1.91876,-3.7741 -7.40425,-10 -8.8107,-10 -0.47457,0 -0.4988,0.5625 -0.0538,1.25 1.11696,1.7258 2.0024,16.7516 0.98708,16.7507 -0.45206,-4e-4 -2.70206,-1.0816 -5,-2.4027 -3.89993,-2.242 -10.67807,-4.3337 -10.67807,-3.2951 0,0.254 1.6875,2.243 3.75,4.42 2.0625,2.1769 4.74178,5.6049 5.95396,7.6176 l 2.20396,3.6595 -5.48608,0 c -3.01734,0 -7.15912,0.7396 -9.20396,1.6434 l -3.71788,1.6435 4,0.7729 c 2.2,0.4251 6.12738,1.9684 8.7275,3.4295 2.60013,1.4611 5.18763,2.3722 5.75,2.0246 0.56238,-0.3476 1.0225,-0.3748 1.0225,-0.061 0,0.3143 -2.4015,2.1077 -5.33666,3.9853 -5.50885,3.5239 -10.97682,9.7769 -7.03778,8.0481 1.03094,-0.4525 4.79944,-1.1215 8.37444,-1.4868 3.575,-0.3653 7.37701,-1.0472 8.44892,-1.5154 1.66163,-0.7258 1.48801,-0.035 -1.17787,4.6891 -1.71973,3.0472 -3.4225,7.2922 -3.78393,9.4333 l -0.65715,3.893 2.67301,-3.2698 c 1.47015,-1.7984 4.0959,-3.9886 5.83501,-4.867 1.73911,-0.8784 4.17451,-2.5229 5.41201,-3.6545 l 2.25,-2.0573 0,6.0251 c 0,6.2449 1.528,12.3235 3.09783,12.3235 0.49619,0 0.90217,-1.4094 0.90217,-3.132 z m -53.05531,-7.118 c 1.67533,-1.7875 3.04814,-3.7428 3.05068,-4.345 0.007,-1.6447 -3.72303,-4.6913 -4.8732,-3.9805 -1.66228,1.0273 -1.26601,-29.3749 0.42263,-32.4245 0.97328,-1.7577 1.39485,-2.0066 1.41976,-0.8385 0.0195,0.9138 0.69741,1.5644 1.5065,1.4456 2.3589,-0.3462 3.09194,-1.6394 1.49998,-2.6462 -0.99621,-0.63 -1.06756,-0.9352 -0.22104,-0.9456 0.6875,-0.01 1.25,-0.5178 1.25,-1.1319 0,-0.6546 -1.04422,-0.9169 -2.52387,-0.6341 -2.9107,0.5564 -3.73609,-0.2253 -2.42546,-2.2971 0.63044,-0.9965 0.92351,-1.06 0.93402,-0.2022 0.008,0.6875 0.91531,1.25 2.01531,1.25 1.1,0 2,-0.45 2,-1 0,-0.55 -0.5625,-1.0069 -1.25,-1.0153 -0.90518,-0.011 -0.86984,-0.2561 0.12811,-0.8882 0.75797,-0.4801 1.06891,-1.3732 0.69099,-1.9847 -0.84456,-1.3665 -3.5691,-1.4758 -3.5691,-0.1432 0,0.5327 -0.70086,0.6997 -1.55747,0.371 -0.85661,-0.3287 -1.33336,-1.1817 -1.05944,-1.8955 0.71347,-1.8593 -1.96325,-3.9324 -2.97133,-2.3013 -0.42146,0.6819 -0.67961,11.2636 -0.57366,23.5149 l 0.19262,22.275 -3.01536,1.5594 c -3.80118,1.9656 -3.88693,4.7201 -0.26536,8.5235 3.57479,3.7543 5.4786,3.6993 9.19469,-0.2656 z m -6.94469,-0.25 c 0,-0.825 -0.6375,-1.5 -1.41667,-1.5 -1.60131,0 -2.51738,-1.8782 -1.82903,-3.75 0.76457,-2.0791 4.0613,-1.4063 4.81983,0.9836 l 0.70891,2.2335 0.82626,-2.2335 c 0.93929,-2.5392 3.66634,-2.9818 4.52849,-0.7351 0.70807,1.8452 -3.4827,6.4605 -5.88779,6.4842 -0.9625,0.01 -1.75,-0.6577 -1.75,-1.4827 z m 119.04822,1.75 c 0.027,-0.9625 0.1391,-10.5771 0.25,-21.3658 l 0.2018,-19.6158 3.3719,-3.1494 c 2.8995,-2.708 3.285,-3.6026 2.7511,-6.3842 -1.4241,-7.4195 -9.4614,-10.0503 -14.69994,-4.8117 -3.25384,3.2538 -3.70592,6.5142 -1.36638,9.8544 2.93535,4.1908 11.22032,1.4749 10.28092,-3.3702 -0.5166,-2.6646 -2.6418,-2.8163 -3.0105,-0.2149 -0.4498,3.1728 -4.20417,3.1749 -4.65388,0 -0.17972,-1.2678 0.21288,-2.9553 0.87244,-3.75 1.76719,-2.1294 6.68014,-1.8258 7.91914,0.4893 1.6987,3.1741 1.206,5.1037 -2.0893,8.182 l -3.12444,2.9186 0.0443,19.4422 c 0.0243,10.6933 0.33564,20.3604 0.69184,21.4826 0.7927,2.4974 2.4949,2.6904 2.5611,0.2903 z" />
            <path
               inkscape:connector-curvature="0"
               id="path4396"
               d="m 855.22823,-2101.2727 c -15.98234,0.3792 -30.34339,-1.9839 -42.83389,-6.4958 -22.74163,-8.4043 -39.37693,-23.8277 -49.48784,-43.5762 -6.47,-12.6371 -8.40426,-20.2929 -10.94111,-42.1168 -0.78548,-6.7574 -1.56932,-13.515 -2.35157,-20.2727 16.12817,-1.356 32.52426,-2.8849 49.14548,-4.921 l 0,0 c 16.58625,-2.0279 33.3935,-4.6762 50.30508,-8.2764 l 10e-6,0 c 0.81303,-0.1744 1.62505,-0.3507 2.43606,-0.5289 16.44937,-3.6155 32.48286,-8.0173 48.11055,-12.9311 17.2205,-5.4132 33.97914,-11.3264 50.37859,-17.3879 2.16743,5.8833 4.33481,11.7665 6.50213,17.6497 5.03455,13.6652 6.82162,19.9049 7.86525,27.6291 2.63186,19.4795 -0.4167,37.9579 -10.64007,55.9206 -5.60398,9.8463 -11.98858,18.0272 -19.90783,25.1883 -6.80715,6.0752 -14.86933,11.504 -24.73356,16.5424 -7.52762,3.8449 -20.60346,8.0691 -33.73459,10.8585 -7.86558,1.6292 -15.02097,2.5975 -20.11316,2.7183 0,0 4.7e-4,-1e-4 4.7e-4,-1e-4 z m 6.11626,-37.3683 c -1.78586,-8.8444 -0.93139,-13.7063 3.13499,-16.1676 1.13146,-0.6902 2.50911,-1.1989 4.14739,-1.5646 1.30171,-0.2906 4.20439,0.5574 6.44937,1.8713 3.69458,2.1622 4.2992,3.2184 6.17571,11.0605 l 2.07687,8.6795 c 6.88841,-1.6479 13.65215,-3.3855 20.29166,-5.2006 6.63951,-1.8152 13.1548,-3.7079 19.54631,-5.6659 l -2.88247,-9.4382 c -2.76456,-9.0521 -3.06103,-9.4988 -7.143,-11.1582 -5.60613,-2.279 -11.36075,-7.7798 -14.76123,-14.0687 -3.71295,-6.8668 -4.07989,-8.7616 -2.01777,-9.3481 1.31095,-0.3728 1.42342,-1.6937 0.44634,-5.0872 -1.12448,-3.9056 -1.66249,-4.4803 -3.64009,-3.9199 -2.01768,0.5717 -2.51963,-0.028 -3.75583,-4.4475 -0.82299,-2.9424 -0.9056,-5.2478 -0.20185,-5.4458 0.67433,-0.1898 0.76543,-1.3313 0.20772,-2.5361 -0.97509,-2.1064 -1.50671,-1.9813 -10.14812,0.3103 -8.68374,2.3029 -9.23578,2.4607 -9.04535,4.7755 0.10887,1.3234 0.75994,2.2684 1.45072,2.0969 0.77505,-0.1924 1.98547,2.6074 3.18739,7.3948 1.77326,7.0631 1.7354,7.762 -0.5184,8.3164 -2.35792,0.58 -2.5781,0.047 -5.19713,-11.8106 -1.5066,-6.821 -3.23181,-12.6665 -3.81091,-12.9768 -0.98846,-0.5298 -7.66679,0.7769 -12.83766,2.1103 -3.28574,0.84 -5.96079,1.7029 -6.20067,2.2536 -0.29787,0.684 0.66995,6.7378 2.1645,13.4241 2.64278,11.8234 2.66045,12.1851 0.0922,12.6841 -2.54597,0.4946 -2.67243,0.1465 -4.11763,-9.7276 -0.49912,-3.4102 -1.00097,-6.8199 -1.50555,-10.2291 -2.94871,0.5635 -5.88938,1.1007 -8.82145,1.6132 -2.93208,0.5124 -5.85555,1.0001 -8.76989,1.4645 0.54014,2.507 1.08202,5.0136 1.62568,7.5199 1.38078,6.3654 1.34645,7.5666 -0.28326,7.8237 -1.47478,0.2325 -1.74963,1.3812 -1.19076,5.012 0.53724,3.4903 1.19377,4.6418 2.54118,4.4295 4.76137,-0.7503 2.08385,16.6269 -4.33969,26.2493 -4.05149,6.0691 -4.09378,6.1693 -2.80607,15.5279 l 1.29711,9.4269 c 6.60434,-0.9084 13.3137,-1.9278 20.12326,-3.0718 6.80956,-1.1441 13.71932,-2.4128 20.72445,-3.8199 z"
               style="fill:#ff1925;fill-opacity:1"
               sodipodi:nodetypes="cssccccsssccsssscccsssssssssssssssccssscccsssssscccs"
               inkscape:original-d="m 819.54634,-2143.2726 c -31.92334,-6.6585 -57.11017,-27.8516 -68.6707,-57.7819 -4.8246,-12.4909 -6.00448,-19.6782 -6.64584,-40.4833 l -0.59342,-19.25 92.13856,0 92.1386,0 -0.016,17.75 c -0.012,13.7541 -0.4567,19.8392 -1.9746,27.0303 -3.84491,18.2152 -11.99081,33.3619 -24.9213,46.3392 -13.0138,13.0609 -25.42052,20.3732 -42.58846,25.1008 -9.36933,2.58 -29.49176,3.2505 -38.86718,1.2949 z m 9.36718,-33.5649 c 0,-10.8762 2.17815,-14.9503 7.99289,-14.9503 1.00613,0 2.99432,1.3845 4.41822,3.0767 2.33678,2.7771 2.58889,3.897 2.58889,11.5 l 0,8.4233 15.5,0 15.5,0 0,-9.3129 c 0,-8.9252 -0.11822,-9.4262 -2.83928,-12.0331 -3.71856,-3.5626 -6.91466,-10.0835 -8.1595,-16.6476 -1.36274,-7.1857 -1.2619,-9.0064 0.49878,-9.0064 1.11111,0 1.5,-1.1667 1.5,-4.5 0,-3.8333 -0.2963,-4.5 -2,-4.5 -1.73333,0 -2,-0.6667 -2,-5 0,-2.8834 0.45276,-5 1.06955,-5 0.58825,0 0.92575,-1.0125 0.75,-2.25 -0.30097,-2.1192 -0.7846,-2.25 -8.31955,-2.25 -7.53495,0 -8.01858,0.1308 -8.31955,2.25 -0.17575,1.2375 0.16174,2.25 0.75,2.25 0.66432,0 1.06955,2.8415 1.06955,7.5 0,6.8761 -0.16927,7.5 -2.03481,7.5 -1.94494,0 -2.02558,-0.5297 -1.82558,-11.9922 0.11508,-6.5958 -0.13174,-12.3333 -0.54849,-12.75 -1.18374,-1.1838 -15.60232,-1.0487 -16.3451,0.1531 -0.36066,0.5836 -0.5485,6.3549 -0.41742,12.8251 0.23167,11.4354 0.17843,11.764 -1.90605,11.764 -2.07055,0 -2.13194,-0.3357 -1.78346,-9.75 l 0.36091,-9.75 -7.5,0 -7.5,0 0.35651,7.25 c 0.3019,6.1393 0.11041,7.25 -1.25,7.25 -1.23735,0 -1.60651,1.0341 -1.60651,4.5 0,3.3333 0.38889,4.5 1.5,4.5 3.88917,0 -0.47162,15.7908 -6.59505,23.8812 -3.86699,5.1092 -3.90495,5.2467 -3.90495,14.1391 l 0,8.9797 15.5,0 15.5,0 z" />
            <path
               style="fill:#feb614;fill-opacity:1;stroke:none"
               d="m 725.08608,-2399.0255 c 8.48661,17.2647 20.23872,23.328 34.62807,20.5735 8.12892,-2.8988 14.12779,-7.558 17.60759,-14.5438 0.53129,-1.0998 1.00056,-2.2565 1.40674,-3.4727 6.10509,3.7019 12.31845,6.7462 18.72831,4.8688 5.43859,-1.0532 10.36128,-4.5064 13.73892,-12.509 0.24647,-0.5788 0.48677,-1.1821 0.72047,-1.8105 6.78735,4.9086 12.45609,7.4868 17.77719,7.2407 2.6958,-0.9692 8.10786,-0.297 16.69676,-11.3444 0,0 0,0 0,0 0.26152,-0.3288 0.526,-0.6679 0.79343,-1.0179 7.29315,5.3455 14.64144,9.2737 24.38137,8.3894 8.24497,-2.8822 24.2948,-10.3212 21.8052,-33.2486 -3.73168,-0.2762 -7.41513,-0.5753 -11.04701,-0.9021 -2.30099,16.1496 -8.09411,18.1672 -14.53265,21.1557 -15.84034,-1.401 -16.64381,-11.4046 -20.61592,-18.293 -3.50086,-0.8328 -5.72089,-0.054 -8.1549,0.4245 -0.17118,0.033 -0.34318,0.064 -0.51649,0.093 0.458,14.5556 -3.67928,20.8389 -10.09868,21.645 -9.96672,0.4345 -13.70396,-7.9028 -16.62326,-17.0096 -3.12818,0.3384 -4.56825,0.6609 -5.6355,1.05 -0.81092,0.306 -1.2827,0.5978 -2.01618,0.9057 1.32285,16.406 -3.29153,19.3197 -8.23682,22.2003 -5.20343,0.8197 -8.77487,-1.0505 -11.43271,-4.0635 -2.67266,-3.0297 -4.45862,-7.2145 -6.42531,-11.1632 -1.52011,0.1661 -2.7957,0.4343 -3.92146,0.768 -2.18541,0.6326 -3.78102,1.4735 -5.51828,2.2896 2.29772,17.9282 -4.88139,20.0417 -10.19526,25.1672 -12.78278,2.4201 -17.83861,-5.7459 -22.41163,-12.0682 -5.86541,0.1302 -8.27217,2.4606 -10.90199,4.6748 z"
               id="path4398"
               inkscape:connector-curvature="0"
               sodipodi:nodetypes="cccccccccccccccccccccc"
               inkscape:original-d="m 734.88598,-2436.9681 c 6.86236,16.9365 17.80373,23.4662 33.08249,22.2234 10.19393,-2.2747 18.17066,-6.9051 22.98097,-14.8997 6.62119,4.2116 13.43709,7.8393 21.71828,7.071 7.49196,-0.1643 14.98393,-2.8596 22.47589,-10.7329 7.87432,5.8952 14.03982,9.5163 20.70813,10.6066 3.85591,-0.2388 10.15843,1.8378 24.875,-6.5659 6.24965,6.8991 12.62125,12.5261 22.8547,14.7734 9.58653,-0.01 27.36913,-1.4366 33.0825,-22.4759 l -10.22779,-4.4193 c -8.01535,13.5596 -14.41009,13.4816 -22.09709,14.142 -16.17118,-6.3426 -13.4267,-14.9979 -15.40483,-22.6022 -3.85851,-1.9018 -6.87328,-1.6941 -10.10152,-2.0203 -4.92096,13.2563 -11.91925,17.7877 -20.20305,16.92 -12.74882,-2.1155 -15.29006,-10.3555 -16.41498,-19.4454 -8.03849,-0.6362 -9.24687,-0.067 -11.86929,0.2526 -3.00823,15.3895 -9.96892,17.2748 -16.92006,19.1928 -13.65081,-0.071 -16.11434,-8.8027 -19.69797,-16.6675 -5.46582,-0.094 -8.42705,0.886 -11.61676,1.7678 0.27838,16.9717 -8.06171,18.348 -14.14214,22.6021 -13.65251,1.0732 -17.89592,-6.8938 -21.97081,-13.2582 -5.86015,-0.3465 -8.39389,1.6596 -11.11167,3.5356 z" />
            <path
               style="fill:#f9b523;fill-opacity:1;stroke:none"
               d="m 765.38936,-2370.018 c 0.87529,4.587 2.50145,8.8708 4.63206,12.9629 3.76496,-1.3942 7.50583,-2.7252 11.22822,-3.9971 12.68398,-4.3983 24.77019,-7.87 36.84973,-10.7562 11.32662,-2.633 23.87143,-4.9945 38.13956,-6.8234 4.86326,-0.6396 9.9312,-1.2343 15.20367,-1.7698 0.31557,-3.739 -0.62752,-8.1934 -1.53875,-12.6184 -6.10606,0.4206 -11.99669,0.9652 -17.67476,1.6076 -13.50101,1.471 -25.68537,3.6394 -36.99196,6.2124 0,0 0,0 0,0 -11.08637,2.6071 -22.92147,5.9275 -35.69648,10.2494 -4.61224,1.5342 -9.33241,3.1758 -14.15129,4.9326 z"
               id="path4400"
               inkscape:connector-curvature="0"
               sodipodi:nodetypes="ccccc"
               inkscape:original-d="m 773.01923,-2406.2847 c 0.41581,4.389 1.64801,8.574 3.40927,12.6269 35.94299,-8.1535 74.97704,-10.0012 119.32427,-1.0101 1.59138,-3.2489 2.16942,-7.5112 2.77791,-11.743 -42.18541,-9.8834 -83.99931,-9.1786 -125.51145,0.1262 z" />
          </g>
          <text
             xml:space="preserve"
             style="font-style:italic;font-variant:normal;font-weight:bold;font-stretch:normal;font-size:87.41288757px;line-height:125%;font-family:odstemplik;-inkscape-font-specification:'odstemplik Bold Italic';letter-spacing:0px;word-spacing:0px;fill:#000000;fill-opacity:1;stroke:none;stroke-width:1px;stroke-linecap:butt;stroke-linejoin:miter;stroke-opacity:1"
             id="title"
             sodipodi:linespacing="125%"
             inkscape:label="#%title"><textPath
               xlink:href="#path_title"
               id="textPath3434"><tspan
   style="font-style:normal;font-variant:normal;font-weight:bold;font-stretch:normal;font-size:38.24313736px;font-family:'Dancing Script';-inkscape-font-specification:'Dancing Script Bold'"
   id="tspan3414">CEIP Esteban Navarro Sánchez</tspan></textPath></text>
          <g
             id="g3836"
             transform="matrix(0.27316528,0,0,-0.27316528,-1787.2618,2352.8657)">
            <path
               d="m 6259.23,7029.2 c 9.9,-104.8 -1.2,-276.9 -120.9,-317.1 -0.4,-0.1 -0.7,-0.3 -1,-0.6 -26.5,15 -64.9,-15.4 -60.3,-45.6 1.4,-9.5 8.1,-16.9 16.4,-21 l -0.5,-0.9 c -0.8,0.3 -1.6,0.3 -2.5,-0.1 -3.2,-1.5 -4.9,-5.2 -8.1,-7.1 -1.4,-0.9 -2.8,-1.4 -4.3,-1.9 -3.8,16.8 -6.6,33.9 -8.1,51.4 -7.9,86.8 1.6,192.9 61.2,260.9 2.2,-1.1 4.9,-0.9 7.1,1.5 34.5,37.7 75.8,64 121,80.5"
               style="fill:#fbc217;fill-opacity:1;fill-rule:nonzero;stroke:none"
               id="path268"
               inkscape:connector-curvature="0" />
            <path
               d="m 6811.43,6729.6 c -0.7,0.2 -1.4,0.5 -2.3,0.5 -187.5,5.2 -485.2,74.3 -536.8,286.4 -0.8,5.7 -1.6,11.1 -2.6,16.1 0,0.1 -0.1,0.1 -0.1,0.1 43.8,14.4 90.9,20 138.8,18.19 95.2,-3.59 205.2,-27.39 283.7,-84.19 72.7,-52.6 112.5,-143.2 119.3,-237.1"
               style="fill:#fbc217;fill-opacity:1;fill-rule:nonzero;stroke:none"
               id="path270"
               inkscape:connector-curvature="0" />
            <path
               d="m 7219.23,6842.6 c 5.7,0.6 6.9,-8.8 1.4,-9.9 -15.8,-3.2 -32.1,-4.5 -48,-6.1 -4.5,-0.4 -5.4,7 -1.1,7.9 15.8,3.1 31.7,6.5 47.7,8.1"
               style="fill:#2f3031;fill-opacity:1;fill-rule:nonzero;stroke:none"
               id="path272"
               inkscape:connector-curvature="0" />
            <path
               d="m 7176.53,6887.2 c 2.9,2.4 7.7,-0.7 5.5,-4.3 -8.9,-14.9 -22.4,-27.6 -34.4,-40.2 -2.6,-2.9 -7.8,1 -5.4,4.2 10.6,13.7 21,29.1 34.3,40.3"
               style="fill:#2f3031;fill-opacity:1;fill-rule:nonzero;stroke:none"
               id="path274"
               inkscape:connector-curvature="0" />
            <path
               d="m 7123.33,6760.9 c 15,7.4 19.4,-2.9 11.9,10.1 -8.6,15.2 -49.3,29.3 -64,36.6 -3.2,1.5 -3.7,5.7 -2.2,8.6 9.7,18.9 20.2,41.6 20.8,63.6 0.7,26 5.4,16.5 -8.7,13.6 -16.5,-3.5 -40.9,-27.9 -57.2,-40.3 1.6,-3.9 -1.7,-9.5 -6.4,-7.7 -30,11.4 -59,23.1 -89.5,32.2 13.4,-21.6 28,-42.2 41.6,-63.7 1.2,-1.9 0.5,-3.8 -1,-5 0.6,-1.8 0.4,-4 -1.3,-5.9 -9.8,-11.1 -20.5,-21.6 -31,-32.1 -6.7,-6.6 -13.4,-15 -21,-21.3 1.7,0.5 3.1,-1.3 2.1,-2.8 0.2,-0.4 0.3,-0.7 0.4,-1.1 25,-0.6 49.3,3.5 73,11.5 0.9,0.3 1.6,0.4 2.3,0.3 0,4.1 5.8,4.7 6.9,0.9 4.9,-16.3 8.9,-32.9 13.4,-49.3 3.9,-14.7 10.4,-29.2 11.5,-44.4 0.1,-0.3 0,-0.5 -0.1,-0.8 22,39.5 14.7,70.3 57.5,84.9 12.9,4.4 28.9,6.1 41,12.1 z m 38.1,6.3 c 3.6,-2.7 4.1,-9.7 -1.4,-10.7 -28.5,-5.4 -70.1,-9.2 -90.5,-30.8 -16.2,-17.3 -22.8,-49.1 -36.9,-69.7 -3.7,-5.4 -12.1,-0.9 -9.3,4.9 -2.3,-1.8 -6.3,-1.5 -8.1,1.2 -14.6,21.9 -20,55 -21.6,82.9 -0.3,-0.1 -0.6,-0.2 -1,-0.3 -36.5,-68.6 -75.2,-136.2 -116.7,-201.9 -34.4,-54.3 -69.7,-126.9 -119.2,-169.9 l -3.8,4.1 c 24.5,60.8 76.6,117.7 111.3,172.6 39.8,62.8 77.9,126.5 114.7,191.1 -18.5,-4.6 -37.2,-5.8 -56.4,-4.1 -0.5,-0.9 -1.1,-1.7 -2.3,-2.1 -6.7,-2.2 -10.5,3.8 -10.5,9.5 -2.3,0.1 -4.6,1.9 -6.3,4.5 -1.1,1.6 -1.2,4.4 0,6 7.2,9.9 16.8,18.4 25.3,27.3 9.8,10 19.7,20.3 30.1,29.8 0.5,0.4 1,0.6 1.5,0.9 -20.9,21.4 -37,46.6 -51.7,72.6 -2.7,4.8 1.8,10.8 7.2,9.3 34.4,-9 70,-20 101.7,-36.7 24.3,22.6 50.2,42.8 77.5,61.6 4,2.8 9.4,-1 9.5,-5.5 0.1,-15.3 -0.4,-30.1 -3.3,-45.2 -1.9,-10.2 -14.6,-34 -13.1,-42.4 4.5,-24 53,-43.7 73.3,-59"
               style="fill:#2f3031;fill-opacity:1;fill-rule:nonzero;stroke:none"
               id="path276"
               inkscape:connector-curvature="0" />
            <path
               d="m 7149.03,6691 c 2.9,-3.4 -0.9,-9.3 -5.1,-6.6 -13.4,8.7 -24.9,15.9 -41.4,16.7 -4.7,0.2 -4.7,7.3 0,7.3 16.4,0.3 35.4,-4.5 46.5,-17.4"
               style="fill:#2f3031;fill-opacity:1;fill-rule:nonzero;stroke:none"
               id="path278"
               inkscape:connector-curvature="0" />
            <path
               d="m 7135.23,6771 c 7.5,-13 3.1,-2.7 -11.9,-10.1 -12.1,-6 -28.1,-7.7 -41,-12.1 -42.8,-14.6 -35.5,-45.4 -57.5,-84.9 0.1,0.3 0.2,0.5 0.1,0.8 -1.1,15.2 -7.6,29.7 -11.5,44.4 -4.5,16.4 -8.5,33 -13.4,49.3 -1.1,3.8 -6.9,3.2 -6.9,-0.9 -0.7,0.1 -1.4,0 -2.3,-0.3 -23.7,-8 -48,-12.1 -73,-11.5 -0.1,0.4 -0.2,0.7 -0.4,1.1 1,1.5 -0.4,3.3 -2.1,2.8 7.6,6.3 14.3,14.7 21,21.3 10.5,10.5 21.2,21 31,32.1 1.7,1.9 1.9,4.1 1.3,5.9 1.5,1.2 2.2,3.1 1,5 -13.6,21.5 -28.2,42.1 -41.6,63.7 30.5,-9.1 59.5,-20.8 89.5,-32.2 4.7,-1.8 8,3.8 6.4,7.7 16.3,12.4 40.7,36.8 57.2,40.3 14.1,2.9 9.4,12.4 8.7,-13.6 -0.6,-22 -11.1,-44.7 -20.8,-63.6 -1.5,-2.9 -1,-7.1 2.2,-8.6 14.7,-7.3 55.4,-21.4 64,-36.6"
               style="fill:#f8ee4e;fill-opacity:1;fill-rule:nonzero;stroke:none"
               id="path280"
               inkscape:connector-curvature="0" />
            <path
               d="m 7091.83,6678.6 c 2.6,-15 5.6,-32.1 4.3,-47.4 -0.3,-3.7 -5.7,-4.8 -6.7,-0.9 -3.7,14.9 -3.6,32.3 -3.4,47.6 0,3.2 5.2,4.1 5.8,0.7"
               style="fill:#2f3031;fill-opacity:1;fill-rule:nonzero;stroke:none"
               id="path282"
               inkscape:connector-curvature="0" />
            <path
               d="m 7031.83,7003.39 c 2.1,4.5 7.8,1 7.2,-3.09 -1.9,-14.3 -8.2,-29.8 -13.6,-43.2 -1.7,-4.1 -7.7,-2.6 -6.7,1.9 3,14.4 6.5,31.1 13.1,44.39"
               style="fill:#2f3031;fill-opacity:1;fill-rule:nonzero;stroke:none"
               id="path284"
               inkscape:connector-curvature="0" />
            <path
               d="m 6999.93,6929 c 1.2,-4.7 -5.7,-6.5 -7.2,-2 -6.3,18.6 -14.4,38.1 -16.4,57.7 -0.3,3.5 5.1,4.8 6.6,1.8 8.8,-17.6 12.4,-38.4 17,-57.5"
               style="fill:#2f3031;fill-opacity:1;fill-rule:nonzero;stroke:none"
               id="path286"
               inkscape:connector-curvature="0" />
            <path
               d="m 6978.33,6655.7 c 2.1,5 9.8,3.2 8.4,-2.3 -2.7,-10.6 -5.8,-21.2 -10.8,-30.9 -2.2,-4.3 -8,-1 -7.2,3.1 1.8,10.4 5.6,20.4 9.6,30.1"
               style="fill:#2f3031;fill-opacity:1;fill-rule:nonzero;stroke:none"
               id="path288"
               inkscape:connector-curvature="0" />
            <path
               d="m 6907.23,6714.6 c 3.5,2.5 8,-3.3 4.6,-6 -12.1,-9.6 -24,-19.5 -36.9,-28.1 -3.8,-2.5 -8.3,3.4 -4.9,6.4 11.9,9.9 24.6,18.7 37.2,27.7"
               style="fill:#2f3031;fill-opacity:1;fill-rule:nonzero;stroke:none"
               id="path290"
               inkscape:connector-curvature="0" />
            <path
               d="m 6898.63,6815.7 c 2.9,1.3 6.2,-2.2 3.6,-4.6 -5.8,-5.6 -12.6,-10 -19.4,-14.2 -6.3,-4 -12.9,-9 -20.5,-9.8 -4,-0.5 -5.6,5.1 -3.1,7.6 4.9,5.1 12.6,7.3 18.8,10.5 6.9,3.5 13.5,7.4 20.6,10.5"
               style="fill:#2f3031;fill-opacity:1;fill-rule:nonzero;stroke:none"
               id="path292"
               inkscape:connector-curvature="0" />
            <path
               d="m 6892.53,6841.5 c 4.7,0 4.4,-6.6 0,-7.1 -13.1,-1.5 -30.4,-0.2 -40.4,9.4 -3.2,3.1 0.1,8.7 4.4,7.5 5.8,-1.7 10.9,-5 16.7,-6.8 6.3,-2 12.8,-2.9 19.3,-3"
               style="fill:#2f3031;fill-opacity:1;fill-rule:nonzero;stroke:none"
               id="path294"
               inkscape:connector-curvature="0" />
            <path
               d="m 5936.43,5978.6 c -22,17 -43.2,35 -63.8,53.8 -17,-23.2 -57.8,-72.7 -10.6,-88.1 30.2,-9.8 57.2,11.2 74.4,34.3 z m 227.7,-132.6 c -20.3,8.4 -40.1,17.6 -59.7,27.3 -13.9,-19.9 -44.4,-67.8 -5.2,-79.4 30.8,-9.2 55.1,26.4 64.9,52.1 z m 159.7,489.4 c -29.9,-2.5 -61.9,4.1 -86.8,21.3 -30.2,20.8 -44.3,86 -82.8,92.6 -0.5,-0.3 -1.2,-0.4 -1.8,-0.4 -88.8,1.9 -126,-115.4 -106.5,-187.3 21.3,-78.5 97.4,-112.5 170.7,-124.5 1.1,-0.1 1.5,-0.9 1.8,-1.7 23,72.4 57.9,140.7 105.4,200 z m 43.5,-75.7 c 12.5,30.4 -16.8,51.8 -43,56.4 -1.1,0.2 -2,0.7 -2.7,1.3 -11.5,-18.6 -22.5,-37.4 -32.9,-56.4 1.6,-0.1 3.2,-1.7 3,-3.5 -1.3,-9.2 32,-15.5 38.6,-16.3 15.5,-1.7 30.7,3.2 37,18.5 z m 318.9,68.7 c 24,-19 61,-1.9 59.6,29.3 -1.4,32.8 -39.7,44.6 -63.8,26.1 -1.5,-17.6 -3.3,-36 -4,-54.3 2.5,1 5.5,1 8.2,-1.1 z m 122.9,401.7 c 0.9,0 1.6,-0.3 2.3,-0.5 -6.8,93.9 -46.6,184.5 -119.3,237.1 -78.5,56.8 -188.5,80.6 -283.7,84.19 -47.9,1.81 -95,-3.79 -138.8,-18.19 0,0 0.1,0 0.1,-0.1 1,-5 1.8,-10.4 2.6,-16.1 51.6,-212.1 349.3,-281.2 536.8,-286.4 z m -99.7,-280 c 72.8,62.4 106.9,166 102.6,267.5 -0.8,-0.4 -1.8,-0.7 -2.9,-0.6 -172.5,3.5 -461.8,65.8 -533.1,251.6 2.3,-104.4 -27.8,-247.8 -131.1,-263.1 1.4,-2.3 -0.4,-5.5 -2.9,-5.5 -0.6,0 -1.2,0.2 -1.8,0.6 -11.4,7.7 -25.3,4.3 -34.9,-4.7 -6.8,-6.4 -16.8,-20.2 -13.1,-29.9 4.6,-11.5 19.5,-11.8 29.1,-7.5 8.4,3.7 15.6,10.6 23.1,15.9 0.4,0.3 0.8,0.5 1.3,0.6 3.8,1.3 7.8,-3.8 5.6,-7.5 -9,-15.1 -25.5,-27.7 -44,-26.5 -4.8,0.3 -9.6,1.6 -13.9,3.9 -8.3,4.1 -15,11.5 -16.4,21 -4.6,30.2 33.8,60.6 60.3,45.6 0.3,0.3 0.6,0.5 1,0.6 119.7,40.2 130.8,212.3 120.9,317.1 -45.2,-16.5 -86.5,-42.8 -121,-80.5 -2.2,-2.4 -4.9,-2.6 -7.1,-1.5 -59.6,-68 -69.1,-174.1 -61.2,-260.9 1.5,-17.5 4.3,-34.6 8.1,-51.4 1.5,0.5 2.9,1 4.3,1.9 3.2,1.9 4.9,5.6 8.1,7.1 0.9,0.4 1.7,0.4 2.5,0.1 0.9,-0.3 1.5,-1.1 1.6,-2.4 0.4,-5.2 -5.8,-9.4 -10,-11.4 -1.6,-0.8 -3.3,-1.4 -5,-1.8 19.1,-78 62.7,-146.1 132.6,-191.9 129.9,-84.9 330.5,-97.7 464.6,-10.6 0.2,1 0.4,2.1 0.5,3.1 0.5,3.3 4.6,3.3 6.4,1.3 8.9,6.2 17.5,12.8 25.8,19.8 z m -49.3,554.5 c 144.6,-76.7 188,-245.4 156,-397.6 -18.1,-86.2 -66.6,-150.5 -132,-192.9 -0.2,-6.5 -0.7,-13.3 -1.3,-20.2 24.2,17.3 57.3,7.7 70.1,-16.9 l 3.8,-4.1 c -0.4,-0.5 -0.9,-0.9 -1.4,-1.3 1.8,-4.8 2.9,-10 3,-15.7 1,-43.1 -47.8,-64.4 -80.6,-39.7 -0.3,-34.5 4.3,-67.7 22.8,-93.2 2,-2.7 1.5,-5.4 -0.2,-7.2 0.4,-1.9 -0.5,-4.2 -2.7,-4.9 -57,-18.4 -182.2,-34.3 -224.3,27.1 -20.8,-118 -46.4,-235.1 -78.3,-350.5 -7,-25.3 -10,-74 -35.1,-89.9 -26.8,-17.1 -85.6,9.9 -111.3,17.8 -24.6,7.6 -48.6,16.3 -72.3,25.8 -11,-34.1 -50,-75.8 -87,-57.2 -40.7,20.5 -13.5,69.1 8.9,92.4 -53.2,26.8 -103.8,58.4 -151.3,94.2 -19.7,-30.7 -66.2,-55.2 -99.1,-35.4 -43.2,26.1 -9.5,80.6 19.9,101.8 -31.8,29.6 -62,61.1 -90.1,94.6 -2.9,3.5 -3.2,9.6 1.5,12 52.1,26 101.4,55.9 146.6,92.8 22.4,18.3 42.5,38.5 62.3,59.1 9.1,0.8 18.1,2.8 26.7,6.1 -23.4,-27.9 -51,-53.1 -78.3,-75.9 -16.9,-14 -34.4,-27.3 -52.6,-39.7 -20.9,-14.4 -59,-26.9 -75.4,-45 -12.1,-13.4 -11.8,-2.5 0.3,-23 6.4,-10.8 18.1,-20.4 26.7,-29.4 20,-21.1 41,-41.3 62.9,-60.5 15.1,-13.3 30.8,-25.9 46.7,-38.2 3.6,1.8 8.8,-0.4 8.8,-4.5 0,-0.6 -0.2,-1.2 -0.4,-1.9 27.1,-20.5 55.1,-39.6 84.2,-57.1 51.6,-31 106,-57.4 162.5,-78.2 27.3,-10.1 55,-18.9 83.2,-26.4 21.7,-5.9 31,-7.6 54.3,-0.9 29.8,8.6 26.7,17 34.3,43.3 37,128.1 66.9,258 90.1,389.3 0.7,3.7 3.5,5.1 6.3,4.9 2,1.4 4.6,1.5 7,-0.7 60.4,-57.6 135.6,-45.9 212.2,-39.6 -35.9,51.2 -23.8,127.9 -13.7,189.5 -52.7,-31.5 -115.3,-49.6 -181.5,-54.1 -99.5,-6.8 -208.5,16.5 -292.1,73.7 0.2,-0.3 0.4,-0.6 0.6,-1 15.4,-24.2 24.7,-49.1 51.1,-64.1 23.7,-13.5 50.8,-14.7 77.3,-15.5 3.7,-0.1 5.3,-2.7 5.1,-5.4 0.6,-1 0.8,-2.2 0.1,-3.4 -2,-3.1 -3.9,-6.1 -5.8,-9.2 37.4,-6.4 73.7,-46.6 45.7,-83.6 -13.2,-17.3 -36.1,-19.4 -55.7,-13.5 -9.9,3 -33.3,10.8 -33.1,23.6 -21.7,-40.3 -40.9,-81.7 -57.1,-125.5 -2.5,-6.7 -12.8,-4.1 -11,2.7 -0.4,-0.4 -0.9,-0.7 -1.6,-0.7 -90.8,-0.3 -181,61.7 -188.7,157.3 -0.7,8.9 -0.6,18.7 0.5,28.9 -1.8,-2.4 -3.7,-4.8 -5.7,-7.2 -1.1,2.8 -3.8,5 -7,3.7 -4.3,-1.8 -8.7,-3.3 -13,-4.4 9.5,10 19.1,20.1 29,29.9 13.1,63.5 55.8,132.6 122.8,118.9 0.1,-0.1 0.2,-0.1 0.4,-0.2 2.6,0 5.1,-0.3 7.6,-0.7 -24.6,22.6 -45.9,49 -62.4,79.3 4.5,-4 8.9,-8.2 13.3,-12.4 1.6,-1.6 3.8,0.7 2.4,2.4 -7.3,8.6 -15,16.9 -23.2,24.6 -0.1,0.1 0,0.1 0,0.1 -32.9,68.7 -40.2,146.4 -33.5,221.6 5.8,65 17.9,139.6 69.7,183.7 0.2,0.4 0.4,0.8 0.7,1.2 125.3,147.59 374.1,129.7 531.4,46.3"
               style="fill:#2f3031;fill-opacity:1;fill-rule:nonzero;stroke:none"
               id="path296"
               inkscape:connector-curvature="0" />
            <path
               d="m 6511.03,6588.3 c 8,8.6 6.8,24.4 1.7,34.2 -5.7,11.1 -18.1,17.2 -30.4,16.3 -11.7,-1 -21.5,-9.2 -24,-20.8 -2.2,-10.4 2.1,-23.7 13.3,-26.5 2.9,-0.8 5.9,2.5 4.1,5.3 -7.4,11.2 -7.6,28.6 9.6,29.7 7.8,0.5 14.6,-4.1 17.6,-11.2 3.4,-7.9 0.3,-13.9 -1.2,-21.6 -0.9,-5.1 5.2,-9.7 9.3,-5.4 z m 118,-71.2 c 16.7,-0.3 19.1,25.9 9.8,35.5 -10.9,11.4 -30.7,4.6 -34.3,-10.1 -0.6,-2.9 3.3,-3.8 4.4,-1.2 3.4,8.2 17.7,11.4 23.3,3.7 5.9,-8 -1.3,-14.7 -6.3,-20.3 -2.6,-2.8 -0.8,-7.5 3.1,-7.6 z m 77,-19.9 c 4.2,6.3 -5.9,12.1 -10.2,5.9 -44.6,-65.3 -124.9,-82.1 -194.1,-44.4 -2.9,1.6 -5.3,-2.7 -2.6,-4.5 71,-47 159.7,-27.5 206.9,43 z m 31.1,111 c 11,23.6 -7.7,52.3 -34,50.3 -25.5,-1.9 -37.2,-31.2 -20.1,-50.2 4.4,-4.8 10.8,2.1 7,7 -10,12.7 1.7,30.7 16.8,29.9 17.2,-1.1 21.5,-17.9 18.4,-32 -1.5,-6.8 8.6,-12.1 11.9,-5 z m 74.9,109.4 c 4.3,-101.5 -29.8,-205.1 -102.6,-267.5 -8.3,-7 -16.9,-13.6 -25.8,-19.8 -1.8,2 -5.9,2 -6.4,-1.3 -0.1,-1 -0.3,-2.1 -0.5,-3.1 -134.1,-87.1 -334.7,-74.3 -464.6,10.6 -69.9,45.8 -113.5,113.9 -132.6,191.9 1.7,0.4 3.4,1 5,1.8 4.2,2 10.4,6.2 10,11.4 -0.1,1.3 -0.7,2.1 -1.6,2.4 l 0.5,0.9 c 4.3,-2.3 9.1,-3.6 13.9,-3.9 18.5,-1.2 35,11.4 44,26.5 2.2,3.7 -1.8,8.8 -5.6,7.5 l -3.7,25 c 2.5,0 4.3,3.2 2.9,5.5 103.3,15.3 133.4,158.7 131.1,263.1 71.3,-185.8 360.6,-248.1 533.1,-251.6 1.1,-0.1 2.1,0.2 2.9,0.6"
               style="fill:#f8e1cb;fill-opacity:1;fill-rule:nonzero;stroke:none"
               id="path298"
               inkscape:connector-curvature="0" />
            <path
               d="m 6745.83,6357.7 c 1.4,-31.2 -35.6,-48.3 -59.6,-29.3 -2.7,2.1 -5.7,2.1 -8.2,1.1 0.7,18.3 2.5,36.7 4,54.3 24.1,18.5 62.4,6.7 63.8,-26.1"
               style="fill:#f8e1cb;fill-opacity:1;fill-rule:nonzero;stroke:none"
               id="path300"
               inkscape:connector-curvature="0" />
            <path
               d="m 6703.13,6658.5 c 26.3,2 45,-26.7 34,-50.3 -3.3,-7.1 -13.4,-1.8 -11.9,5 3.1,14.1 -1.2,30.9 -18.4,32 -15.1,0.8 -26.8,-17.2 -16.8,-29.9 3.8,-4.9 -2.6,-11.8 -7,-7 -17.1,19 -5.4,48.3 20.1,50.2"
               style="fill:#2f3031;fill-opacity:1;fill-rule:nonzero;stroke:none"
               id="path302"
               inkscape:connector-curvature="0" />
            <path
               d="m 6695.83,6503.1 c 4.3,6.2 14.4,0.4 10.2,-5.9 -47.2,-70.5 -135.9,-90 -206.9,-43 -2.7,1.8 -0.3,6.1 2.6,4.5 69.2,-37.7 149.5,-20.9 194.1,44.4"
               style="fill:#2f3031;fill-opacity:1;fill-rule:nonzero;stroke:none"
               id="path304"
               inkscape:connector-curvature="0" />
            <path
               d="m 6673.83,6407.6 c -10.1,-61.6 -22.2,-138.3 13.7,-189.5 -76.6,-6.3 -151.8,-18 -212.2,39.6 -2.4,2.2 -5,2.1 -7,0.7 -2.8,0.2 -5.6,-1.2 -6.3,-4.9 -23.2,-131.3 -53.1,-261.2 -90.1,-389.3 -7.6,-26.3 -4.5,-34.7 -34.3,-43.3 -23.3,-6.7 -32.6,-5 -54.3,0.9 -28.2,7.5 -55.9,16.3 -83.2,26.4 -56.5,20.8 -110.9,47.2 -162.5,78.2 -29.1,17.5 -57.1,36.6 -84.2,57.1 0.2,0.7 0.4,1.3 0.4,1.9 0,4.1 -5.2,6.3 -8.8,4.5 -15.9,12.3 -31.6,24.9 -46.7,38.2 -21.9,19.2 -42.9,39.4 -62.9,60.5 -8.6,9 -20.3,18.6 -26.7,29.4 -12.1,20.5 -12.4,9.6 -0.3,23 16.4,18.1 54.5,30.6 75.4,45 18.2,12.4 35.7,25.7 52.6,39.7 27.3,22.8 54.9,48 78.3,75.9 1.6,0.6 3.2,1.2 4.8,1.9 2.9,1.3 3.4,4.5 2.4,7.1 2,2.4 3.9,4.8 5.7,7.2 -1.1,-10.2 -1.2,-20 -0.5,-28.9 7.7,-95.6 97.9,-157.6 188.7,-157.3 0.7,0 1.2,0.3 1.6,0.7 -1.8,-6.8 8.5,-9.4 11,-2.7 16.2,43.8 35.4,85.2 57.1,125.5 -0.2,-12.8 23.2,-20.6 33.1,-23.6 19.6,-5.9 42.5,-3.8 55.7,13.5 28,37 -8.3,77.2 -45.7,83.6 1.9,3.1 3.8,6.1 5.8,9.2 0.7,1.2 0.5,2.4 -0.1,3.4 0.2,2.7 -1.4,5.3 -5.1,5.4 -26.5,0.8 -53.6,2 -77.3,15.5 -26.4,15 -35.7,39.9 -51.1,64.1 -0.2,0.4 -0.4,0.7 -0.6,1 83.6,-57.2 192.6,-80.5 292.1,-73.7 66.2,4.5 128.8,22.6 181.5,54.1"
               style="fill:#a6dff2;fill-opacity:1;fill-rule:nonzero;stroke:none"
               id="path306"
               inkscape:connector-curvature="0" />
            <path
               d="m 6638.83,6552.6 c 9.3,-9.6 6.9,-35.8 -9.8,-35.5 -3.9,0.1 -5.7,4.8 -3.1,7.6 5,5.6 12.2,12.3 6.3,20.3 -5.6,7.7 -19.9,4.5 -23.3,-3.7 -1.1,-2.6 -5,-1.7 -4.4,1.2 3.6,14.7 23.4,21.5 34.3,10.1"
               style="fill:#2f3031;fill-opacity:1;fill-rule:nonzero;stroke:none"
               id="path308"
               inkscape:connector-curvature="0" />
            <path
               d="m 6512.73,6622.5 c 5.1,-9.8 6.3,-25.6 -1.7,-34.2 -4.1,-4.3 -10.2,0.3 -9.3,5.4 1.5,7.7 4.6,13.7 1.2,21.6 -3,7.1 -9.8,11.7 -17.6,11.2 -17.2,-1.1 -17,-18.5 -9.6,-29.7 1.8,-2.8 -1.2,-6.1 -4.1,-5.3 -11.2,2.8 -15.5,16.1 -13.3,26.5 2.5,11.6 12.3,19.8 24,20.8 12.3,0.9 24.7,-5.2 30.4,-16.3"
               style="fill:#2f3031;fill-opacity:1;fill-rule:nonzero;stroke:none"
               id="path310"
               inkscape:connector-curvature="0" />
            <path
               d="m 6324.33,6316.1 c 26.2,-4.6 55.5,-26 43,-56.4 -6.3,-15.3 -21.5,-20.2 -37,-18.5 -6.6,0.8 -39.9,7.1 -38.6,16.3 0.2,1.8 -1.4,3.4 -3,3.5 10.4,19 21.4,37.8 32.9,56.4 0.7,-0.6 1.6,-1.1 2.7,-1.3"
               style="fill:#f8e1cb;fill-opacity:1;fill-rule:nonzero;stroke:none"
               id="path312"
               inkscape:connector-curvature="0" />
            <path
               d="m 6318.43,7253.2 c 11.1,76.5 -66.9,83.4 -121.1,68.9 -54.7,-14.71 -105,-46.6 -143.1,-88.4 -19,-20.9 -35.6,-44.6 -47.9,-70 -17.7,-36.4 -16.5,-87.5 29.1,-99.4 26.3,-6.8 40.4,-4.5 68.6,-0.6 1,0.1 1.9,0 2.8,-0.31 6,0.21 11.8,1.41 17.8,2.71 4.7,1 9.2,2.9 13.9,4.1 54.2,23.8 105.5,54 141.8,102.3 17.6,23.3 33.9,51.3 38.1,80.7 z m -124.6,81.69 c 77.6,21.71 159.8,-8 133.6,-100.19 -28.6,-100.9 -124.4,-159.9 -220.5,-184.1 -1.6,-0.4 -2.7,0.29 -3.3,1.29 -75.7,-12.79 -151.2,16.61 -114.6,105.11 35.3,85.3 116.6,153.3 204.8,177.89"
               style="fill:#2f3031;fill-opacity:1;fill-rule:nonzero;stroke:none"
               id="path314"
               inkscape:connector-curvature="0" />
            <path
               d="m 6039.03,7125.2 c 68.8,-82.9 303.1,79.3 232.6,160.9 -1.5,1.7 -3.6,0.9 -4.6,-0.6 -43.7,39.1 -105.7,-5.8 -141,-37 -19.2,-16.9 -100.7,-82.4 -86.1,-118.3 -1.6,-0.9 -2.4,-3.1 -0.9,-5 z m 158.3,196.9 c 54.2,14.5 132.2,7.6 121.1,-68.9 -4.2,-29.4 -20.5,-57.4 -38.1,-80.7 -36.3,-48.3 -87.6,-78.5 -141.8,-102.3 -4.7,-1.2 -9.2,-3.1 -13.9,-4.1 -6,-1.3 -11.8,-2.5 -17.8,-2.71 -0.9,0.31 -1.8,0.41 -2.8,0.31 -28.2,-3.9 -42.3,-6.2 -68.6,0.6 -45.6,11.9 -46.8,63 -29.1,99.4 12.3,25.4 28.9,49.1 47.9,70 38.1,41.8 88.4,73.69 143.1,88.4"
               style="fill:#f8ee4e;fill-opacity:1;fill-rule:nonzero;stroke:none"
               id="path316"
               inkscape:connector-curvature="0" />
            <path
               d="m 6237.03,6356.7 c 24.9,-17.2 56.9,-23.8 86.8,-21.3 -47.5,-59.3 -82.4,-127.6 -105.4,-200 -0.3,0.8 -0.7,1.6 -1.8,1.7 -73.3,12 -149.4,46 -170.7,124.5 -19.5,71.9 17.7,189.2 106.5,187.3 0.6,0 1.3,0.1 1.8,0.4 38.5,-6.6 52.6,-71.8 82.8,-92.6"
               style="fill:#a6dff2;fill-opacity:1;fill-rule:nonzero;stroke:none"
               id="path318"
               inkscape:connector-curvature="0" />
            <path
               d="m 6053.03,7123 c 71.2,-40.3 247.4,68.8 217.3,151.5 -2,-1.8 -5,-2.4 -7.5,0 -61.2,60 -234.5,-114.5 -209.8,-151.5 z m 218.6,163.1 c 70.5,-81.6 -163.8,-243.8 -232.6,-160.9 -1.5,1.9 -0.7,4.1 0.9,5 -14.6,35.9 66.9,101.4 86.1,118.3 35.3,31.2 97.3,76.1 141,37 1,1.5 3.1,2.3 4.6,0.6"
               style="fill:#2f3031;fill-opacity:1;fill-rule:nonzero;stroke:none"
               id="path320"
               inkscape:connector-curvature="0" />
            <path
               d="m 6161.73,6457.8 c -2.5,0.4 -5,0.7 -7.6,0.7 -0.2,0.1 -0.3,0.1 -0.4,0.2 -67,13.7 -109.7,-55.4 -122.8,-118.9 -9.9,-9.8 -19.5,-19.9 -29,-29.9 -28.6,-7.5 -56.9,-0.7 -81.3,17.2 37.8,39.3 59.6,97.2 37.2,107.7 -3.5,1.6 -8.1,-1.9 -5.7,-5.7 15.4,-24.9 -20.1,-76.8 -36.2,-93.9 -24.9,-26.4 -63.3,-45.3 -97.5,-26.8 36.5,43.9 58.3,105.3 72.9,154.1 1.7,5.6 -7,8 -8.7,2.4 -16.1,-51.9 -36.1,-111.6 -73.9,-153.7 -14.2,-15.8 -30.9,-29.1 -50.8,-38.5 -70.2,-33.4 -122.8,16.6 -118.3,85.9 2.3,36.9 13.9,75.9 27.5,110.2 36.7,91.9 114.2,156 215.6,159.5 84.4,2.9 156.3,-36.5 216.6,-91.2 16.5,-30.3 37.8,-56.7 62.4,-79.3"
               style="fill:#e8e8e6;fill-opacity:1;fill-rule:nonzero;stroke:none"
               id="path322"
               inkscape:connector-curvature="0" />
            <path
               d="m 6142.03,6700 3.7,-25 c -0.5,-0.1 -0.9,-0.3 -1.3,-0.6 -7.5,-5.3 -14.7,-12.2 -23.1,-15.9 -9.6,-4.3 -24.5,-4 -29.1,7.5 -3.7,9.7 6.3,23.5 13.1,29.9 9.6,9 23.5,12.4 34.9,4.7 0.6,-0.4 1.2,-0.6 1.8,-0.6"
               style="fill:#f8e1cb;fill-opacity:1;fill-rule:nonzero;stroke:none"
               id="path324"
               inkscape:connector-curvature="0" />
            <path
               d="m 6104.43,5873.3 c 19.6,-9.7 39.4,-18.9 59.7,-27.3 -9.8,-25.7 -34.1,-61.3 -64.9,-52.1 -39.2,11.6 -8.7,59.5 5.2,79.4"
               style="fill:#f8e1cb;fill-opacity:1;fill-rule:nonzero;stroke:none"
               id="path326"
               inkscape:connector-curvature="0" />
            <path
               d="m 6115.03,6527.1 c 1.4,-1.7 -0.8,-4 -2.4,-2.4 -4.4,4.2 -8.8,8.4 -13.3,12.4 -0.8,1.3 -1.5,2.6 -2.2,4 -1.8,3.5 -3.6,7.1 -5.3,10.6 8.2,-7.7 15.9,-16 23.2,-24.6"
               style="fill:#2f3031;fill-opacity:1;fill-rule:nonzero;stroke:none"
               id="path328"
               inkscape:connector-curvature="0" />
            <path
               d="m 6097.13,6541.1 c 0.7,-1.4 1.4,-2.7 2.2,-4 -60.3,54.7 -132.2,94.1 -216.6,91.2 -101.4,-3.5 -178.9,-67.6 -215.6,-159.5 -13.6,-34.3 -25.2,-73.3 -27.5,-110.2 -4.5,-69.3 48.1,-119.3 118.3,-85.9 19.9,9.4 36.6,22.7 50.8,38.5 l 1.1,-1 c -1.2,-1.3 -1.7,-3.4 0,-4.8 1.2,-1 2.5,-1.9 3.7,-2.8 -24.3,-27.1 -54.6,-46.4 -93.1,-49.9 -94.6,-8.5 -96,94.2 -79.2,160 26.3,102.7 85.6,192.4 194.5,216.9 92.8,20.9 188.7,-13.6 256.1,-77.8 0,0 -0.1,0 0,-0.1 1.7,-3.5 3.5,-7.1 5.3,-10.6"
               style="fill:#2f3031;fill-opacity:1;fill-rule:nonzero;stroke:none"
               id="path330"
               inkscape:connector-curvature="0" />
            <path
               d="m 6021.93,6310.6 c 1,-2.6 0.5,-5.8 -2.4,-7.1 -1.6,-0.7 -3.2,-1.3 -4.8,-1.9 2.5,3 5,6 7.2,9"
               style="fill:#2f3031;fill-opacity:1;fill-rule:nonzero;stroke:none"
               id="path332"
               inkscape:connector-curvature="0" />
            <path
               d="m 6014.93,6314.3 c 3.2,1.3 5.9,-0.9 7,-3.7 -2.2,-3 -4.7,-6 -7.2,-9 -8.6,-3.3 -17.6,-5.3 -26.7,-6.1 4.6,4.8 9.2,9.6 13.9,14.4 4.3,1.1 8.7,2.6 13,4.4"
               style="fill:#2f3031;fill-opacity:1;fill-rule:nonzero;stroke:none"
               id="path334"
               inkscape:connector-curvature="0" />
            <path
               d="m 6001.93,6309.9 c -4.7,-4.8 -9.3,-9.6 -13.9,-14.4 -26.6,-2.2 -53.5,6.4 -72.4,26.6 1.7,1.6 3.4,3.3 5,5 24.4,-17.9 52.7,-24.7 81.3,-17.2"
               style="fill:#2f3031;fill-opacity:1;fill-rule:nonzero;stroke:none"
               id="path336"
               inkscape:connector-curvature="0" />
            <path
               d="m 5957.83,6434.8 c 22.4,-10.5 0.6,-68.4 -37.2,-107.7 -0.7,0.4 -1.3,0.9 -2,1.4 -3.2,2.5 -6.6,-2.6 -4.1,-5.3 0.3,-0.4 0.7,-0.8 1.1,-1.1 -29.6,-28.4 -67.7,-44.4 -102.1,-19.5 1.6,1.9 3.3,3.8 4.9,5.8 34.2,-18.5 72.6,0.4 97.5,26.8 16.1,17.1 51.6,69 36.2,93.9 -2.4,3.8 2.2,7.3 5.7,5.7"
               style="fill:#2f3031;fill-opacity:1;fill-rule:nonzero;stroke:none"
               id="path338"
               inkscape:connector-curvature="0" />
            <path
               d="m 5918.63,6328.5 c 0.7,-0.5 1.3,-1 2,-1.4 -1.6,-1.7 -3.3,-3.4 -5,-5 -0.4,0.3 -0.8,0.7 -1.1,1.1 -2.5,2.7 0.9,7.8 4.1,5.3"
               style="fill:#2f3031;fill-opacity:1;fill-rule:nonzero;stroke:none"
               id="path340"
               inkscape:connector-curvature="0" />
            <path
               d="m 5882.63,6464.9 c 1.7,5.6 10.4,3.2 8.7,-2.4 -14.6,-48.8 -36.4,-110.2 -72.9,-154.1 -1.5,0.8 -2.9,1.6 -4.3,2.5 -1.5,1 -3.2,0.4 -4.3,-0.7 l -1.1,1 c 37.8,42.1 57.8,101.8 73.9,153.7"
               style="fill:#2f3031;fill-opacity:1;fill-rule:nonzero;stroke:none"
               id="path342"
               inkscape:connector-curvature="0" />
            <path
               d="m 5872.63,6032.4 c 20.6,-18.8 41.8,-36.8 63.8,-53.8 -17.2,-23.1 -44.2,-44.1 -74.4,-34.3 -47.2,15.4 -6.4,64.9 10.6,88.1"
               style="fill:#f8e1cb;fill-opacity:1;fill-rule:nonzero;stroke:none"
               id="path344"
               inkscape:connector-curvature="0" />
            <path
               d="m 5818.43,6308.4 c -1.6,-2 -3.3,-3.9 -4.9,-5.8 -1.2,0.9 -2.5,1.8 -3.7,2.8 -1.7,1.4 -1.2,3.5 0,4.8 1.1,1.1 2.8,1.7 4.3,0.7 1.4,-0.9 2.8,-1.7 4.3,-2.5"
               style="fill:#2f3031;fill-opacity:1;fill-rule:nonzero;stroke:none"
               id="path346"
               inkscape:connector-curvature="0" />
          </g>
        </g>
      </g>
      <path
         style="display:none;fill:none;fill-rule:evenodd;stroke:#000000;stroke-width:2.18532228px;stroke-linecap:butt;stroke-linejoin:miter;stroke-opacity:1"
         d="m 304.85127,489.92204 c 137.79082,26.95615 294.89483,19.40271 454.18543,-7.39059"
         id="path_title"
         inkscape:connector-curvature="0"
         sodipodi:nodetypes="cc" />
    </g>
  </g>
</svg>
