<?xml version="1.0" encoding="UTF-8" standalone="no"?>
<!-- Created with Inkscape (http://www.inkscape.org/) -->

<svg
   xmlns:dc="http://purl.org/dc/elements/1.1/"
   xmlns:cc="http://creativecommons.org/ns#"
   xmlns:rdf="http://www.w3.org/1999/02/22-rdf-syntax-ns#"
   xmlns:svg="http://www.w3.org/2000/svg"
   xmlns="http://www.w3.org/2000/svg"
   xmlns:xlink="http://www.w3.org/1999/xlink"
   xmlns:sodipodi="http://sodipodi.sourceforge.net/DTD/sodipodi-0.dtd"
   xmlns:inkscape="http://www.inkscape.org/namespaces/inkscape"
   width="302.66983"
   height="254.03009"
   viewBox="0 0 302.66983 254.03009"
   id="svg5182"
   version="1.1"
   inkscape:version="0.91 r"
   sodipodi:docname="teacher.svg">
  <defs
     id="defs5184">
    <clipPath
       clipPathUnits="userSpaceOnUse"
       id="clipPath4724">
      <path
         style="fill:#ffffff;fill-opacity:1;fill-rule:evenodd;stroke:#469b47;stroke-width:3.4719336;stroke-linecap:butt;stroke-linejoin:miter;stroke-miterlimit:4;stroke-opacity:1"
         inkscape:transform-center-x="-1.523987"
         inkscape:transform-center-y="0.037845324"
         d="m 1228.3681,-172.41861 c -1.4135,3.83139 -13.5457,6.61416 -15.5144,10.19213 -1.9687,3.57797 2.1732,15.31571 -0.3068,18.56023 -2.48,3.24453 -14.8934,2.3279 -17.8294,5.16654 -2.9359,2.83865 -2.4377,15.27584 -5.7639,17.64514 -3.3262,2.36945 -14.9179,-2.16545 -18.5601,-0.31827 -3.6422,1.84703 -6.832,13.87862 -10.7089,15.16238 -3.8768,1.28364 -13.6168,-6.46659 -17.6416,-5.77501 -4.0248,0.69159 -10.6193,11.24832 -14.7023,11.33228 -4.083,0.0842 -11.1058,-10.19283 -15.1556,-10.71833 -4.0499,-0.5255 -13.4631,7.61854 -17.3894,6.49524 -3.9263,-1.1233 -7.6081,-13.01351 -11.3231,-14.70933 -3.7151,-1.69597 -15.1106,3.31164 -18.5313,1.08104 -3.4208,-2.2306 -3.4343,-14.67789 -6.4844,-17.39341 -3.0502,-2.71566 -15.4153,-1.28939 -18.0266,-4.42919 -2.6114,-3.13979 1.0446,-15.03799 -1.0695,-18.53201 -2.1143,-3.49388 -14.3506,-5.77572 -15.9203,-9.54574 -1.5699,-3.77003 5.4308,-14.06198 4.4404,-18.02393 -0.9904,-3.96194 -12.0105,-9.74904 -12.3993,-13.81431 -0.3888,-4.06529 9.3344,-11.83658 9.5558,-15.91435 0.2214,-4.07778 -8.6033,-12.85613 -7.7766,-16.85528 0.8267,-3.99929 12.4086,-8.55933 13.822,-12.39071 1.4136,-3.83138 -4.4317,-14.82081 -2.4628,-18.39864 1.9687,-3.57796 14.3802,-4.52157 16.8602,-7.7661 2.4801,-3.24453 0.1337,-15.46859 3.0696,-18.30724 2.936,-2.83865 15.0741,-0.0815 18.4002,-2.45144 3.3263,-2.36931 4.6873,-14.74191 8.3295,-16.58909 3.6422,-1.84717 14.4285,4.36475 18.3053,3.08112 3.8768,-1.28378 8.8242,-12.70548 12.8491,-13.39706 4.0248,-0.69145 12.5009,8.42385 16.5839,8.33989 4.083,-0.0842 12.1773,-9.54 16.2271,-9.01449 4.0499,0.52549 9.4626,11.73422 13.3889,12.85752 3.9264,1.12316 14.4481,-5.52693 18.1632,-3.83096 3.7151,1.69584 5.5835,14.00203 9.0043,16.23262 3.4209,2.23075 15.4354,-1.0225 18.4855,1.69302 3.0501,2.71553 1.2083,15.02579 3.8196,18.16559 2.6113,3.13979 15.051,3.5725 17.1652,7.06637 2.1141,3.49401 -3.2744,14.71439 -1.7046,18.48442 1.5699,3.77002 13.3293,7.85019 14.3198,11.812 0.9904,3.96195 -7.466,13.0955 -7.0771,17.16078 0.3887,4.06527 10.4232,11.43026 10.2018,15.50804 -0.2214,4.07777 -10.9943,10.31315 -11.821,14.3123 -0.8267,3.99929 6.5912,13.99486 5.1776,17.82624 z"
         id="path4726"
         inkscape:connector-curvature="0" />
    </clipPath>
    <path
       sodipodi:nodetypes="cc"
       inkscape:connector-curvature="0"
       id="path3888"
       d="m 946.42857,-11.06583 c 22.57458,4.45539 46.31115,6.25478 73.57143,0"
       style="fill:none;stroke:#000000;stroke-width:1px;stroke-linecap:butt;stroke-linejoin:miter;stroke-opacity:1" />
    <path
       sodipodi:nodetypes="cc"
       inkscape:connector-curvature="0"
       id="path3890"
       d="m 936.3911,2.85485 c 31.4831,6.39764 64.3131,6.39763 98.4899,0"
       style="fill:none;stroke:#000000;stroke-width:1px;stroke-linecap:butt;stroke-linejoin:miter;stroke-opacity:1" />
  </defs>
  <sodipodi:namedview
     id="base"
     pagecolor="#ffffff"
     bordercolor="#666666"
     borderopacity="1.0"
     inkscape:pageopacity="0.0"
     inkscape:pageshadow="2"
     inkscape:zoom="2.6222656"
     inkscape:cx="202.40368"
     inkscape:cy="158.21397"
     inkscape:document-units="px"
     inkscape:current-layer="layer1"
     showgrid="false"
     units="px"
     fit-margin-top="0"
     fit-margin-left="0"
     fit-margin-right="0"
     fit-margin-bottom="0"
     inkscape:window-width="1855"
     inkscape:window-height="1056"
     inkscape:window-x="65"
     inkscape:window-y="24"
     inkscape:window-maximized="1" />
  <metadata
     id="metadata5187">
    <rdf:RDF>
      <cc:Work
         rdf:about="">
        <dc:format>image/svg+xml</dc:format>
        <dc:type
           rdf:resource="http://purl.org/dc/dcmitype/StillImage" />
        <dc:title></dc:title>
        <dc:description>svg.setImg('image', data['image'])
svg.setText('name', data['name'])
svg.setText('surnames', data['surnames'])</dc:description>
      </cc:Work>
    </rdf:RDF>
  </metadata>
  <g
     inkscape:label="Capa 1"
     inkscape:groupmode="layer"
     id="layer1"
     transform="translate(-79.489676,-112.06795)">
    <g
       transform="translate(-753.86193,345.64256)"
       style="display:inline"
       id="g6585">
      <path
         sodipodi:type="star"
         style="fill:#ffffff;fill-opacity:1;fill-rule:evenodd;stroke:#469b47;stroke-width:2.47297335;stroke-linecap:butt;stroke-linejoin:miter;stroke-miterlimit:4;stroke-dasharray:none;stroke-opacity:1"
         id="path6611-9-4-7-3-6"
         sodipodi:sides="21"
         sodipodi:cx="-225"
         sodipodi:cy="1214.505"
         sodipodi:r1="78.418686"
         sodipodi:r2="71.361008"
         sodipodi:arg1="0.35344023"
         sodipodi:arg2="0.50303988"
         inkscape:flatsided="false"
         inkscape:rounded="0.22"
         inkscape:randomized="0"
         d="m -151.42857,1241.6479 c -1.00682,2.729 -9.64824,4.7111 -11.05054,7.2596 -1.40231,2.5485 1.54795,10.909 -0.21853,13.22 -1.76647,2.311 -10.60824,1.6581 -12.69942,3.68 -2.09118,2.0219 -1.73631,10.8806 -4.10549,12.5682 -2.36917,1.6877 -10.62565,-1.5424 -13.21989,-0.2267 -2.59424,1.3156 -4.8663,9.8854 -7.62766,10.7998 -2.76137,0.9143 -9.69893,-4.606 -12.56573,-4.1134 -2.86679,0.4926 -7.56389,8.0119 -10.47208,8.0717 -2.90819,0.06 -7.91041,-7.2601 -10.79503,-7.6344 -2.88462,-0.3743 -9.58941,5.4265 -12.38602,4.6264 -2.79661,-0.8001 -5.41902,-9.2692 -8.06516,-10.4771 -2.64613,-1.208 -10.76285,2.3588 -13.19939,0.77 -2.43655,-1.5888 -2.44613,-10.4547 -4.61866,-12.3889 -2.17252,-1.9343 -10.97997,-0.9184 -12.83995,-3.1548 -1.85998,-2.2364 0.74412,-10.7112 -0.76177,-13.1999 -1.50588,-2.4886 -10.22147,-4.1139 -11.33962,-6.7992 -1.11814,-2.6853 3.86824,-10.016 3.16281,-12.838 -0.70543,-2.822 -8.55475,-6.944 -8.83171,-9.8396 -0.27696,-2.8956 6.64865,-8.4309 6.80635,-11.3354 0.1577,-2.9045 -6.12791,-9.1571 -5.53907,-12.0056 0.58883,-2.8486 8.83831,-6.0966 9.84512,-8.8256 1.00682,-2.729 -3.15657,-10.5565 -1.75426,-13.1049 1.40231,-2.5485 10.24264,-3.2206 12.00912,-5.5316 1.76647,-2.311 0.0952,-11.0179 2.18643,-13.0398 2.09118,-2.0219 10.73686,-0.058 13.10604,-1.7461 2.36917,-1.6876 3.33859,-10.5003 5.93284,-11.816 2.59424,-1.3157 10.27707,3.1089 13.03843,2.1946 2.76136,-0.9144 6.2853,-9.0498 9.1521,-9.5424 2.86679,-0.4925 8.90412,6.0001 11.81231,5.9403 2.90819,-0.06 8.67353,-6.7951 11.55815,-6.4208 2.88462,0.3743 6.73999,8.358 9.53661,9.1581 2.79661,0.8 10.29107,-3.9367 12.9372,-2.7287 2.64614,1.2079 3.977,9.9733 6.41354,11.5621 2.43654,1.5889 10.99421,-0.7283 13.16674,1.2059 2.17252,1.9342 0.86061,10.7025 2.72059,12.9389 1.85998,2.2364 10.72047,2.5446 12.22635,5.0332 1.50588,2.4887 -2.33223,10.4807 -1.21408,13.166 1.11814,2.6853 9.49415,5.5915 10.19959,8.4134 0.70543,2.822 -5.31785,9.3276 -5.04089,12.2232 0.27696,2.8956 7.42426,8.1415 7.26656,11.046 -0.1577,2.9045 -7.83095,7.3458 -8.41979,10.1943 -0.58883,2.8486 4.69468,9.9682 3.68786,12.6972 z"
         inkscape:transform-center-x="-1.5377982"
         inkscape:transform-center-y="0.038188112"
         transform="matrix(1.4166849,0,0,1.4166849,1303.2739,-1842.1956)" />
      <image
         y="-337.5737"
         x="1010.3659"
         id="image"
         xlink:href="file:///home/jmramoss/almacen/ORLAS/ejemplos/profesora.jpg"
         height="313.30035"
         width="229.75359"
         clip-path="url(#clipPath4724)"
         transform="matrix(0.99079776,0,0,0.99079776,-130.2014,86.971859)"
         inkscape:label="#%image" />
      <g
         transform="translate(326.78435,510.01813)"
         id="g3870">
        <g
           id="g3872"
           transform="translate(-508.57143,-921.42857)">
          <path
             style="fill:#519f52;fill-opacity:1;fill-rule:nonzero;stroke:#ffffff;stroke-width:2;stroke-linecap:butt;stroke-linejoin:miter;stroke-miterlimit:4;stroke-dasharray:none;stroke-opacity:1"
             d="m 1060.6291,361.33249 15.7143,45.71428 c 57.1745,19.14681 117.357,21.99638 182.1427,-0.71428 l 12.8572,-44.28571 c -71.14,23.33934 -141.4793,25.47971 -210.7142,-0.71429 z"
             id="path3874"
             inkscape:connector-curvature="0"
             sodipodi:nodetypes="ccccc" />
          <path
             sodipodi:nodetypes="ccccccc"
             inkscape:connector-curvature="0"
             id="path3876"
             d="m 1015.7084,395.25795 c 14.8945,-10.3251 30.4122,-19.09214 47.9822,-22.72843 l 12.1219,34.85026 21.7182,7.07107 c -23.0039,-1.1938 -38.7527,5.77439 -51.0127,16.66752 3.7709,-10.65122 6.5477,-20.63976 14.1422,-33.84011 -23.9609,-4.41384 -37.1092,-4.32241 -44.9518,-2.02031 z"
             style="fill:#519f52;fill-opacity:1;stroke:#ffffff;stroke-width:2;stroke-linecap:butt;stroke-linejoin:miter;stroke-miterlimit:4;stroke-dasharray:none;stroke-opacity:1" />
          <path
             style="fill:#519f52;fill-opacity:1;stroke:#ffffff;stroke-width:2;stroke-linecap:butt;stroke-linejoin:miter;stroke-miterlimit:4;stroke-dasharray:none;stroke-opacity:1"
             d="m 1317.2388,395.25795 c -14.8945,-10.3251 -30.4122,-19.09213 -47.9822,-22.72843 l -10.6066,34.85026 -23.2335,7.07107 c 23.0039,-1.1938 38.7527,5.77439 51.0127,16.66752 -3.7708,-10.65122 -6.5476,-20.63976 -14.1422,-33.84011 23.961,-4.41384 37.1092,-4.32241 44.9518,-2.02031 z"
             id="path3878"
             inkscape:connector-curvature="0"
             sodipodi:nodetypes="ccccccc" />
        </g>
      </g>
      <text
         sodipodi:linespacing="125%"
         id="name"
         style="font-style:normal;font-variant:normal;font-weight:600;font-stretch:normal;font-size:40px;line-height:125%;font-family:'Matura MT Script Capitals';-inkscape-font-specification:'Matura MT Script Capitals Semi-Bold';letter-spacing:0px;word-spacing:0px;fill:#000000;fill-opacity:1;stroke:none"
         xml:space="preserve"
         inkscape:label="#%name"><textPath
           style="font-style:normal;font-variant:normal;font-weight:bold;font-stretch:normal;font-size:28px;font-family:'Dancing Script';-inkscape-font-specification:'Dancing Script Bold'"
           id="textPath3892"
           xlink:href="#path3888">Magaly</textPath></text>
      <text
         transform="matrix(1,0,0,0.68581751,0,2.7967425)"
         sodipodi:linespacing="125%"
         id="surnames"
         style="font-style:normal;font-variant:normal;font-weight:600;font-stretch:normal;font-size:40px;line-height:125%;font-family:'Matura MT Script Capitals';-inkscape-font-specification:'Matura MT Script Capitals Semi-Bold';letter-spacing:0px;word-spacing:0px;fill:#000000;fill-opacity:1;stroke:none"
         xml:space="preserve"
         inkscape:label="#%surnames"><textPath
           id="textPath3895"
           xlink:href="#path3890"><tspan
   id="tspan3886"
   style="font-style:normal;font-variant:normal;font-weight:bold;font-stretch:normal;font-size:14px;font-family:'Dancing Script';-inkscape-font-specification:'Dancing Script Bold'">Socorro Hernández</tspan></textPath></text>
      <path
         sodipodi:nodetypes="cc"
         inkscape:connector-curvature="0"
         id="path_name"
         d="m 946.42857,-11.06583 c 22.57458,4.45539 46.31115,6.25478 73.57143,0"
         style="display:none;fill:none;stroke:#000000;stroke-width:1px;stroke-linecap:butt;stroke-linejoin:miter;stroke-opacity:1" />
      <path
         sodipodi:nodetypes="cc"
         inkscape:connector-curvature="0"
         id="path_surnames"
         d="m 936.3911,2.85485 c 31.4831,6.39764 64.3131,6.39763 98.4899,0"
         style="display:none;fill:none;stroke:#000000;stroke-width:1px;stroke-linecap:butt;stroke-linejoin:miter;stroke-opacity:1" />
    </g>
  </g>
</svg>
